<svg width="120" height="29" viewBox="0 0 120 29" fill="none" xmlns="http://www.w3.org/2000/svg">
<g clip-path="url(#clip0_14405_3994)">
<rect width="120" height="29" fill="#5C6368"/>
<path d="M0 22.5661L7.38494 2.85246C7.75203 1.90164 8.32426 1.19381 9.10162 0.728962C9.90057 0.242987 10.7967 0 11.79 0C12.7833 0 13.6794 0.232422 14.4784 0.697266C15.2773 1.14098 15.8496 1.84882 16.195 2.82076L23.6124 22.5661H18.5271L17.0048 18.0973H6.44563L4.85851 22.5661H0ZM7.8384 14.1038H15.6444L12.373 4.37377C12.3298 4.22586 12.2543 4.12022 12.1463 4.05683C12.0599 3.99344 11.9519 3.96175 11.8224 3.96175C11.6928 3.96175 11.5849 4.00401 11.4985 4.08852C11.4121 4.15191 11.3473 4.24699 11.3041 4.37377L7.8384 14.1038Z" fill="#5C6368"/>
<path d="M25.7334 22.5661V13.2798C25.7334 11.9486 26.0465 10.7337 26.6727 9.63496C27.3205 8.53624 28.249 7.65937 29.4582 7.00436C30.6675 6.34935 32.1142 6.02185 33.7985 6.02185C35.5044 6.02185 36.9512 6.34935 38.1388 7.00436C39.348 7.65937 40.2657 8.53624 40.8919 9.63496C41.5397 10.7337 41.8636 11.9486 41.8636 13.2798V22.5661H37.4262V13.2798C37.4262 12.6248 37.2643 12.0332 36.9404 11.5049C36.6165 10.9556 36.1738 10.5224 35.6124 10.2055C35.0725 9.88851 34.4679 9.73004 33.7985 9.73004C33.1291 9.73004 32.5137 9.88851 31.9523 10.2055C31.4124 10.5224 30.9806 10.9556 30.6567 11.5049C30.3328 12.0332 30.1708 12.6248 30.1708 13.2798V22.5661H25.7334Z" fill="#5C6368"/>
<path d="M52.3149 22.9464C51.3432 22.9464 50.4579 22.6929 49.6589 22.1858C48.8816 21.6787 48.3417 21.0131 48.0394 20.1891L43.3105 6.40216H48.1367L51.9586 18.4142C52.0018 18.4987 52.0558 18.5621 52.1206 18.6044C52.1854 18.6466 52.2609 18.6678 52.3473 18.6678C52.4337 18.6678 52.5093 18.6466 52.574 18.6044C52.6604 18.5621 52.7144 18.4987 52.736 18.4142L56.5905 6.40216H61.3195L56.5905 20.1574C56.2882 20.9814 55.7375 21.6576 54.9385 22.1858C54.1612 22.6929 53.2866 22.9464 52.3149 22.9464Z" fill="#5C6368"/>
<path d="M71.0566 22.9464C69.3508 22.9464 67.8284 22.5767 66.4896 21.8372C65.1508 21.0765 64.0928 20.0623 63.3154 18.7945C62.538 17.5056 62.1494 16.0689 62.1494 14.4842C62.1494 12.8995 62.538 11.4732 63.3154 10.2055C64.0928 8.91657 65.1508 7.90236 66.4896 7.16283C67.8284 6.40218 69.3508 6.02185 71.0566 6.02185C72.7625 6.02185 74.2849 6.40218 75.6236 7.16283C76.9624 7.90236 78.0205 8.91657 78.7979 10.2055C79.5752 11.4732 79.9639 12.8995 79.9639 14.4842C79.9639 16.0689 79.5752 17.5056 78.7979 18.7945C78.0205 20.0623 76.9624 21.0765 75.6236 21.8372C74.2849 22.5767 72.7625 22.9464 71.0566 22.9464ZM71.0566 19.2383C71.9636 19.2383 72.7409 19.027 73.3887 18.6044C74.0581 18.1818 74.5656 17.6113 74.9111 16.8929C75.2781 16.1745 75.4617 15.3716 75.4617 14.4842C75.4617 13.5967 75.2781 12.7938 74.9111 12.0754C74.5656 11.357 74.0581 10.7865 73.3887 10.3639C72.7409 9.94134 71.9636 9.73004 71.0566 9.73004C70.1497 9.73004 69.3616 9.94134 68.6922 10.3639C68.0444 10.7865 67.5369 11.357 67.1698 12.0754C66.8243 12.7938 66.6516 13.5967 66.6516 14.4842C66.6516 15.3716 66.8243 16.1745 67.1698 16.8929C67.5369 17.6113 68.0444 18.1818 68.6922 18.6044C69.3616 19.027 70.1497 19.2383 71.0566 19.2383Z" fill="#5C6368"/>
<path d="M91.2722 22.9464C89.5879 22.9464 88.1411 22.6189 86.9319 21.9639C85.7227 21.3089 84.7941 20.4321 84.1463 19.3333C83.5201 18.2346 83.207 17.0197 83.207 15.6885V6.40216H87.6445V15.6885C87.6445 16.3435 87.8064 16.9457 88.1303 17.4951C88.4542 18.0233 88.8861 18.4459 89.4259 18.7628C89.9874 19.0798 90.6028 19.2383 91.2722 19.2383C91.9416 19.2383 92.5462 19.0798 93.086 18.7628C93.6474 18.4459 94.0901 18.0233 94.414 17.4951C94.7379 16.9457 94.8999 16.3435 94.8999 15.6885V6.40216H99.3373V15.6885C99.3373 17.0197 99.0134 18.2346 98.3656 19.3333C97.7394 20.4321 96.8217 21.3089 95.6124 21.9639C94.4248 22.6189 92.978 22.9464 91.2722 22.9464Z" fill="#5C6368"/>
<path d="M106.04 29V25.2918H114.526C114.828 25.2918 115.077 25.1862 115.271 24.9749C115.465 24.7847 115.563 24.5523 115.563 24.2776V20.3158H115.53C115.034 20.8652 114.526 21.3089 114.008 21.647C113.49 21.9851 112.928 22.2386 112.324 22.4076C111.741 22.5556 111.093 22.6295 110.38 22.6295C108.912 22.6295 107.584 22.2914 106.396 21.6153C105.23 20.918 104.302 19.9461 103.611 18.6995C102.92 17.4528 102.574 16.0055 102.574 14.3574C102.574 12.7938 102.909 11.3887 103.578 10.1421C104.269 8.87431 105.263 7.87066 106.558 7.13114C107.854 6.39161 109.43 6.02185 111.287 6.02185C113.079 6.02185 114.623 6.38105 115.919 7.09944C117.214 7.81784 118.219 8.83205 118.931 10.1421C119.644 11.4521 120 13.0051 120 14.8011V24.4044C120 25.82 119.579 26.9399 118.737 27.7639C117.916 28.588 116.772 29 115.303 29H106.04ZM111.287 18.9213C112.172 18.9213 112.928 18.7206 113.554 18.3191C114.181 17.9177 114.656 17.3894 114.98 16.7344C115.325 16.0583 115.498 15.3082 115.498 14.4842C115.498 13.5967 115.325 12.7938 114.98 12.0754C114.656 11.357 114.181 10.7865 113.554 10.3639C112.928 9.94134 112.172 9.73004 111.287 9.73004C110.423 9.73004 109.668 9.94134 109.02 10.3639C108.394 10.7654 107.908 11.3148 107.562 12.012C107.238 12.7093 107.076 13.4911 107.076 14.3574C107.076 15.2025 107.238 15.9738 107.562 16.671C107.908 17.3472 108.394 17.8965 109.02 18.3191C109.668 18.7206 110.423 18.9213 111.287 18.9213Z" fill="#5C6368"/>
</g>
<defs>
<clipPath id="clip0_14405_3994">
<rect width="120" height="29" fill="white"/>
</clipPath>
</defs>
</svg>
