<svg width="151" height="48" viewBox="0 0 151 48" fill="none" xmlns="http://www.w3.org/2000/svg">
<g clip-path="url(#clip0_14405_4037)">
<rect width="151" height="48" fill="#5C6368"/>
<mask id="mask0_14405_4037" style="mask-type:luminance" maskUnits="userSpaceOnUse" x="0" y="0" width="48" height="48">
<path d="M48 0H0V48H48V0Z" fill="white"/>
</mask>
<g mask="url(#mask0_14405_4037)">
<path d="M30.544 30.5403C29.1693 33.5905 26.8713 36.1324 24.0026 37.8028C21.6423 39.1827 18.9033 39.966 15.9723 39.966C13.6431 39.966 11.4281 39.468 9.43089 38.5653C3.99957 36.1324 0.18675 30.753 0.00518751 24.4657C0 24.3101 0 24.1596 0 24.004C0 23.8484 0 23.6928 0.00518751 23.5423C0.181563 17.2551 3.99957 11.8756 9.4257 9.4375C8.52826 11.4347 8.03026 13.6446 8.03026 15.9738C8.03026 18.8995 8.81876 21.6437 10.1934 24.004C11.8638 26.8727 14.4057 29.1708 17.456 30.5403C19.4531 31.4377 21.663 31.9357 23.9974 31.9357C26.3318 31.9357 28.5468 31.4377 30.544 30.5403Z" fill="#615F6F"/>
<path d="M47.9985 24.0036C47.9985 24.1592 47.9985 24.3148 47.9933 24.4653C47.8169 30.7525 43.9989 36.132 38.578 38.5701C39.4754 36.5729 39.9734 34.3579 39.9734 32.0287C39.9734 29.1029 39.1849 26.3587 37.8102 23.9984C36.1399 21.1297 33.598 18.8265 30.5477 17.457C28.5505 16.5595 26.3407 16.0615 24.0063 16.0615C21.6719 16.0615 19.462 16.5595 17.4648 17.457C18.8343 14.4067 21.1376 11.87 24.0011 10.1944C26.3614 8.81456 29.1004 8.03125 32.0314 8.03125C34.3657 8.03125 36.5808 8.52925 38.578 9.43188C43.9989 11.87 47.8169 17.2494 47.9933 23.5367C47.9933 23.6923 47.9985 23.848 47.9985 24.0036Z" fill="#615F6F"/>
<path d="M38.5753 9.43089C36.5781 8.53345 34.363 8.03026 32.0287 8.03026C29.1029 8.03026 26.3587 8.81876 23.9984 10.1934C21.1297 11.8638 18.8316 14.4057 17.4621 17.456C16.5647 19.4532 16.0615 21.6682 16.0615 23.9974C16.0615 26.3266 16.5595 28.5417 17.4569 30.5337C14.4067 29.1642 11.87 26.8609 10.1944 23.9974C8.81456 21.6371 8.03125 18.8981 8.03125 15.9671C8.03125 13.638 8.52925 11.4229 9.42669 9.43089C11.8648 4.00476 17.2494 0.18675 23.5367 0.00518751C23.6923 0 23.848 0 24.0036 0C24.1592 0 24.3148 0 24.4653 0.00518751C30.7577 0.18675 36.1372 4.00476 38.5753 9.43089Z" fill="#5C6368"/>
<path d="M39.9685 32.0281C39.9685 34.3573 39.4705 36.5724 38.5731 38.5696C36.135 43.9957 30.7503 47.8137 24.4631 47.9901C24.3075 47.9953 24.1518 47.9953 24.0014 47.9953C23.8458 47.9953 23.6901 47.9953 23.5397 47.9901C17.2524 47.8137 11.8678 43.9957 9.42969 38.5696C11.4269 39.467 13.6368 39.9702 15.9711 39.9702C18.8969 39.9702 21.6411 39.1817 24.0014 37.807C26.8701 36.1366 29.1733 33.5948 30.5428 30.5445C31.4403 28.5473 31.9383 26.3374 31.9383 24.0082C31.9383 21.6791 31.4403 19.4588 30.5428 17.4668C33.5931 18.8363 36.135 21.1396 37.8054 24.0082C39.18 26.3582 39.9685 29.1024 39.9685 32.0281Z" fill="#5C6368"/>
</g>
<path d="M69.2447 37.0844C68.5877 37.0844 68.0831 36.8966 67.7311 36.5212C67.3791 36.1457 67.2031 35.6294 67.2031 34.9724V13.8172C67.2031 13.1366 67.3909 12.6204 67.7663 12.2684C68.1418 11.8929 68.6581 11.7052 69.3151 11.7052C69.9018 11.7052 70.3594 11.8225 70.6879 12.0572C71.0399 12.2684 71.3567 12.6439 71.6383 13.1836L80.3327 29.27H79.2063L87.9007 13.1836C88.1823 12.6439 88.4874 12.2684 88.8159 12.0572C89.1445 11.8225 89.6021 11.7052 90.1887 11.7052C90.8458 11.7052 91.3503 11.8929 91.7023 12.2684C92.0543 12.6204 92.2303 13.1366 92.2303 13.8172V34.9724C92.2303 35.6294 92.0543 36.1457 91.7023 36.5212C91.3738 36.8966 90.8693 37.0844 90.1887 37.0844C89.5317 37.0844 89.0271 36.8966 88.6751 36.5212C88.3231 36.1457 88.1471 35.6294 88.1471 34.9724V18.6748H88.9215L81.5295 32.1564C81.2949 32.5553 81.0485 32.8486 80.7903 33.0364C80.5322 33.2241 80.1802 33.318 79.7343 33.318C79.2885 33.318 78.9247 33.2241 78.6431 33.0364C78.3615 32.8252 78.1151 32.5318 77.9039 32.1564L70.4415 18.6396H71.2863V34.9724C71.2863 35.6294 71.1103 36.1457 70.7583 36.5212C70.4298 36.8966 69.9253 37.0844 69.2447 37.0844Z" fill="#5C6368"/>
<path d="M99.4525 37.0492C98.7485 37.0492 98.2088 36.838 97.8333 36.4156C97.4578 35.9932 97.2701 35.4065 97.2701 34.6556V21.7372C97.2701 20.9628 97.4578 20.3761 97.8333 19.9772C98.2088 19.5548 98.7485 19.3436 99.4525 19.3436C100.156 19.3436 100.696 19.5548 101.071 19.9772C101.47 20.3761 101.67 20.9628 101.67 21.7372V34.6556C101.67 35.4065 101.482 35.9932 101.106 36.4156C100.731 36.838 100.18 37.0492 99.4525 37.0492ZM99.4525 16.07C98.6312 16.07 97.9858 15.8705 97.5165 15.4716C97.0706 15.0492 96.8477 14.4743 96.8477 13.7468C96.8477 12.9958 97.0706 12.4209 97.5165 12.022C97.9858 11.6231 98.6312 11.4236 99.4525 11.4236C100.297 11.4236 100.942 11.6231 101.388 12.022C101.834 12.4209 102.057 12.9958 102.057 13.7468C102.057 14.4743 101.834 15.0492 101.388 15.4716C100.942 15.8705 100.297 16.07 99.4525 16.07Z" fill="#5C6368"/>
<path d="M111.909 37.1548C110.665 37.1548 109.55 36.9201 108.565 36.4508C107.603 35.958 106.84 35.3009 106.277 34.4796C105.737 33.6582 105.467 32.7313 105.467 31.6988C105.467 30.4316 105.796 29.4342 106.453 28.7068C107.11 27.9558 108.178 27.4161 109.656 27.0876C111.134 26.759 113.117 26.5948 115.605 26.5948H117.365V29.1292H115.64C114.185 29.1292 113.023 29.1996 112.155 29.3404C111.287 29.4812 110.665 29.7276 110.29 30.0796C109.938 30.4081 109.762 30.8774 109.762 31.4876C109.762 32.262 110.031 32.8956 110.571 33.3884C111.111 33.8812 111.862 34.1276 112.824 34.1276C113.598 34.1276 114.279 33.9516 114.866 33.5996C115.476 33.2241 115.957 32.7196 116.309 32.086C116.661 31.4524 116.837 30.7249 116.837 29.9036V25.8556C116.837 24.6822 116.579 23.8374 116.062 23.3212C115.546 22.8049 114.678 22.5468 113.458 22.5468C112.777 22.5468 112.038 22.6289 111.24 22.7932C110.466 22.9574 109.644 23.239 108.776 23.638C108.33 23.8492 107.931 23.9078 107.579 23.814C107.251 23.7201 106.993 23.5324 106.805 23.2508C106.617 22.9457 106.523 22.6172 106.523 22.2652C106.523 21.9132 106.617 21.5729 106.805 21.2444C106.993 20.8924 107.309 20.6342 107.755 20.47C108.835 20.0241 109.867 19.7073 110.853 19.5196C111.862 19.3318 112.777 19.238 113.598 19.238C115.288 19.238 116.673 19.4961 117.752 20.0124C118.855 20.5286 119.676 21.3148 120.216 22.3708C120.756 23.4033 121.026 24.7409 121.026 26.3836V34.8316C121.026 35.559 120.85 36.1222 120.498 36.5212C120.146 36.8966 119.641 37.0844 118.984 37.0844C118.327 37.0844 117.811 36.8966 117.435 36.5212C117.083 36.1222 116.907 35.559 116.907 34.8316V33.142H117.189C117.025 33.9633 116.696 34.679 116.203 35.2892C115.734 35.8758 115.135 36.3334 114.408 36.662C113.681 36.9905 112.847 37.1548 111.909 37.1548Z" fill="#5C6368"/>
<path d="M127.674 37.0844C126.97 37.0844 126.43 36.8966 126.055 36.5212C125.679 36.1222 125.492 35.559 125.492 34.8316V21.526C125.492 20.7985 125.679 20.247 126.055 19.8716C126.43 19.4961 126.958 19.3084 127.639 19.3084C128.319 19.3084 128.847 19.4961 129.223 19.8716C129.598 20.247 129.786 20.7985 129.786 21.526V23.9196L129.399 23.0396C129.915 21.7958 130.713 20.8572 131.792 20.2236C132.895 19.5665 134.139 19.238 135.524 19.238C136.908 19.238 138.046 19.4961 138.938 20.0124C139.83 20.5286 140.498 21.3148 140.944 22.3708C141.39 23.4033 141.613 24.7174 141.613 26.3132V34.8316C141.613 35.559 141.425 36.1222 141.05 36.5212C140.675 36.8966 140.135 37.0844 139.431 37.0844C138.727 37.0844 138.175 36.8966 137.776 36.5212C137.401 36.1222 137.213 35.559 137.213 34.8316V26.5244C137.213 25.1868 136.955 24.2129 136.439 23.6028C135.946 22.9926 135.172 22.6876 134.116 22.6876C132.825 22.6876 131.792 23.0982 131.018 23.9196C130.267 24.7174 129.892 25.7852 129.892 27.1228V34.8316C129.892 36.3334 129.152 37.0844 127.674 37.0844Z" fill="#5C6368"/>
<path d="M148.194 36.9788C147.396 36.9788 146.751 36.7324 146.258 36.2396C145.789 35.7468 145.554 35.1132 145.554 34.3388C145.554 33.5878 145.789 32.9777 146.258 32.5084C146.751 32.0156 147.396 31.7692 148.194 31.7692C149.016 31.7692 149.649 32.0156 150.095 32.5084C150.564 32.9777 150.799 33.5878 150.799 34.3388C150.799 35.1132 150.564 35.7468 150.095 36.2396C149.649 36.7324 149.016 36.9788 148.194 36.9788Z" fill="#5C6368"/>
</g>
<defs>
<clipPath id="clip0_14405_4037">
<rect width="151" height="48" fill="white"/>
</clipPath>
</defs>
</svg>
