<svg width="258" height="48" viewBox="0 0 258 48" fill="none" xmlns="http://www.w3.org/2000/svg">
<g clip-path="url(#clip0_14405_4069)">
<rect width="258" height="48" fill="#5C6368"/>
<mask id="mask0_14405_4069" style="mask-type:luminance" maskUnits="userSpaceOnUse" x="0" y="0" width="48" height="48">
<path d="M48 0H0V48H48V0Z" fill="white"/>
</mask>
<g mask="url(#mask0_14405_4069)">
<path d="M30.544 30.5403C29.1693 33.5905 26.8713 36.1324 24.0026 37.8028C21.6423 39.1827 18.9033 39.966 15.9723 39.966C13.6431 39.966 11.4281 39.468 9.43089 38.5653C3.99957 36.1324 0.18675 30.753 0.00518751 24.4657C0 24.3101 0 24.1596 0 24.004C0 23.8484 0 23.6928 0.00518751 23.5423C0.181563 17.2551 3.99957 11.8756 9.4257 9.4375C8.52826 11.4347 8.03026 13.6446 8.03026 15.9738C8.03026 18.8995 8.81876 21.6437 10.1934 24.004C11.8638 26.8727 14.4057 29.1708 17.456 30.5403C19.4531 31.4377 21.663 31.9357 23.9974 31.9357C26.3318 31.9357 28.5468 31.4377 30.544 30.5403Z" fill="#615F6F"/>
<path d="M47.9985 24.0036C47.9985 24.1592 47.9985 24.3148 47.9933 24.4653C47.8169 30.7525 43.9989 36.132 38.578 38.5701C39.4754 36.5729 39.9734 34.3579 39.9734 32.0287C39.9734 29.1029 39.1849 26.3587 37.8102 23.9984C36.1399 21.1297 33.598 18.8265 30.5477 17.457C28.5505 16.5595 26.3407 16.0615 24.0063 16.0615C21.6719 16.0615 19.462 16.5595 17.4648 17.457C18.8343 14.4067 21.1376 11.87 24.0011 10.1944C26.3614 8.81456 29.1004 8.03125 32.0314 8.03125C34.3657 8.03125 36.5808 8.52925 38.578 9.43188C43.9989 11.87 47.8169 17.2494 47.9933 23.5367C47.9933 23.6923 47.9985 23.848 47.9985 24.0036Z" fill="#615F6F"/>
<path d="M38.5753 9.43089C36.5781 8.53345 34.363 8.03026 32.0287 8.03026C29.1029 8.03026 26.3587 8.81876 23.9984 10.1934C21.1297 11.8638 18.8316 14.4057 17.4621 17.456C16.5647 19.4532 16.0615 21.6682 16.0615 23.9974C16.0615 26.3266 16.5595 28.5417 17.4569 30.5337C14.4067 29.1642 11.87 26.8609 10.1944 23.9974C8.81456 21.6371 8.03125 18.8981 8.03125 15.9671C8.03125 13.638 8.52925 11.4229 9.42669 9.43089C11.8648 4.00476 17.2494 0.18675 23.5367 0.00518751C23.6923 0 23.848 0 24.0036 0C24.1592 0 24.3148 0 24.4653 0.00518751C30.7577 0.18675 36.1372 4.00476 38.5753 9.43089Z" fill="#5C6368"/>
<path d="M39.9685 32.0281C39.9685 34.3573 39.4705 36.5724 38.5731 38.5696C36.135 43.9957 30.7503 47.8137 24.4631 47.9901C24.3075 47.9953 24.1518 47.9953 24.0014 47.9953C23.8458 47.9953 23.6901 47.9953 23.5397 47.9901C17.2524 47.8137 11.8678 43.9957 9.42969 38.5696C11.4269 39.467 13.6368 39.9702 15.9711 39.9702C18.8969 39.9702 21.6411 39.1817 24.0014 37.807C26.8701 36.1366 29.1733 33.5948 30.5428 30.5445C31.4403 28.5473 31.9383 26.3374 31.9383 24.0082C31.9383 21.6791 31.4403 19.4588 30.5428 17.4668C33.5931 18.8363 36.135 21.1396 37.8054 24.0082C39.18 26.3582 39.9685 29.1024 39.9685 32.0281Z" fill="#5C6368"/>
</g>
<path d="M69.2447 37.0844C68.5877 37.0844 68.0831 36.8966 67.7311 36.5212C67.3791 36.1457 67.2031 35.6294 67.2031 34.9724V13.8172C67.2031 13.1366 67.3909 12.6204 67.7663 12.2684C68.1418 11.8929 68.6581 11.7052 69.3151 11.7052C69.9018 11.7052 70.3594 11.8225 70.6879 12.0572C71.0399 12.2684 71.3567 12.6439 71.6383 13.1836L80.3327 29.27H79.2063L87.9007 13.1836C88.1823 12.6439 88.4874 12.2684 88.8159 12.0572C89.1445 11.8225 89.6021 11.7052 90.1887 11.7052C90.8458 11.7052 91.3503 11.8929 91.7023 12.2684C92.0543 12.6204 92.2303 13.1366 92.2303 13.8172V34.9724C92.2303 35.6294 92.0543 36.1457 91.7023 36.5212C91.3738 36.8966 90.8693 37.0844 90.1887 37.0844C89.5317 37.0844 89.0271 36.8966 88.6751 36.5212C88.3231 36.1457 88.1471 35.6294 88.1471 34.9724V18.6748H88.9215L81.5295 32.1564C81.2949 32.5553 81.0485 32.8486 80.7903 33.0364C80.5322 33.2241 80.1802 33.318 79.7343 33.318C79.2885 33.318 78.9247 33.2241 78.6431 33.0364C78.3615 32.8252 78.1151 32.5318 77.9039 32.1564L70.4415 18.6396H71.2863V34.9724C71.2863 35.6294 71.1103 36.1457 70.7583 36.5212C70.4298 36.8966 69.9253 37.0844 69.2447 37.0844Z" fill="#5C6368"/>
<path d="M99.4525 37.0492C98.7485 37.0492 98.2088 36.838 97.8333 36.4156C97.4578 35.9932 97.2701 35.4065 97.2701 34.6556V21.7372C97.2701 20.9628 97.4578 20.3761 97.8333 19.9772C98.2088 19.5548 98.7485 19.3436 99.4525 19.3436C100.156 19.3436 100.696 19.5548 101.071 19.9772C101.47 20.3761 101.67 20.9628 101.67 21.7372V34.6556C101.67 35.4065 101.482 35.9932 101.106 36.4156C100.731 36.838 100.18 37.0492 99.4525 37.0492ZM99.4525 16.07C98.6312 16.07 97.9858 15.8705 97.5165 15.4716C97.0706 15.0492 96.8477 14.4743 96.8477 13.7468C96.8477 12.9958 97.0706 12.4209 97.5165 12.022C97.9858 11.6231 98.6312 11.4236 99.4525 11.4236C100.297 11.4236 100.942 11.6231 101.388 12.022C101.834 12.4209 102.057 12.9958 102.057 13.7468C102.057 14.4743 101.834 15.0492 101.388 15.4716C100.942 15.8705 100.297 16.07 99.4525 16.07Z" fill="#5C6368"/>
<path d="M111.909 37.1548C110.665 37.1548 109.55 36.9201 108.565 36.4508C107.603 35.958 106.84 35.3009 106.277 34.4796C105.737 33.6582 105.467 32.7313 105.467 31.6988C105.467 30.4316 105.796 29.4342 106.453 28.7068C107.11 27.9558 108.178 27.4161 109.656 27.0876C111.134 26.759 113.117 26.5948 115.605 26.5948H117.365V29.1292H115.64C114.185 29.1292 113.023 29.1996 112.155 29.3404C111.287 29.4812 110.665 29.7276 110.29 30.0796C109.938 30.4081 109.762 30.8774 109.762 31.4876C109.762 32.262 110.031 32.8956 110.571 33.3884C111.111 33.8812 111.862 34.1276 112.824 34.1276C113.598 34.1276 114.279 33.9516 114.866 33.5996C115.476 33.2241 115.957 32.7196 116.309 32.086C116.661 31.4524 116.837 30.7249 116.837 29.9036V25.8556C116.837 24.6822 116.579 23.8374 116.062 23.3212C115.546 22.8049 114.678 22.5468 113.458 22.5468C112.777 22.5468 112.038 22.6289 111.24 22.7932C110.466 22.9574 109.644 23.239 108.776 23.638C108.33 23.8492 107.931 23.9078 107.579 23.814C107.251 23.7201 106.993 23.5324 106.805 23.2508C106.617 22.9457 106.523 22.6172 106.523 22.2652C106.523 21.9132 106.617 21.5729 106.805 21.2444C106.993 20.8924 107.309 20.6342 107.755 20.47C108.835 20.0241 109.867 19.7073 110.853 19.5196C111.862 19.3319 112.777 19.238 113.598 19.238C115.288 19.238 116.673 19.4961 117.752 20.0124C118.855 20.5286 119.676 21.3148 120.216 22.3708C120.756 23.4033 121.026 24.7409 121.026 26.3836V34.8316C121.026 35.559 120.85 36.1222 120.498 36.5212C120.146 36.8966 119.641 37.0844 118.984 37.0844C118.327 37.0844 117.811 36.8966 117.435 36.5212C117.083 36.1222 116.907 35.559 116.907 34.8316V33.142H117.189C117.025 33.9633 116.696 34.679 116.203 35.2892C115.734 35.8758 115.135 36.3334 114.408 36.662C113.681 36.9905 112.847 37.1548 111.909 37.1548Z" fill="#5C6368"/>
<path d="M127.674 37.0844C126.97 37.0844 126.43 36.8966 126.055 36.5212C125.679 36.1222 125.492 35.559 125.492 34.8316V21.526C125.492 20.7985 125.679 20.247 126.055 19.8716C126.43 19.4961 126.958 19.3084 127.639 19.3084C128.319 19.3084 128.847 19.4961 129.223 19.8716C129.598 20.247 129.786 20.7985 129.786 21.526V23.9196L129.399 23.0396C129.915 21.7958 130.713 20.8572 131.792 20.2236C132.895 19.5665 134.139 19.238 135.524 19.238C136.908 19.238 138.046 19.4961 138.938 20.0124C139.83 20.5286 140.499 21.3148 140.944 22.3708C141.39 23.4033 141.613 24.7174 141.613 26.3132V34.8316C141.613 35.559 141.425 36.1222 141.05 36.5212C140.675 36.8966 140.135 37.0844 139.431 37.0844C138.727 37.0844 138.175 36.8966 137.776 36.5212C137.401 36.1222 137.213 35.559 137.213 34.8316V26.5244C137.213 25.1868 136.955 24.2129 136.439 23.6028C135.946 22.9926 135.172 22.6876 134.116 22.6876C132.825 22.6876 131.792 23.0982 131.018 23.9196C130.267 24.7174 129.892 25.7852 129.892 27.1228V34.8316C129.892 36.3334 129.152 37.0844 127.674 37.0844Z" fill="#5C6368"/>
<path d="M148.194 36.9788C147.396 36.9788 146.751 36.7324 146.258 36.2396C145.789 35.7468 145.554 35.1132 145.554 34.3388C145.554 33.5878 145.789 32.9777 146.258 32.5084C146.751 32.0156 147.396 31.7692 148.194 31.7692C149.016 31.7692 149.649 32.0156 150.095 32.5084C150.564 32.9777 150.799 33.5878 150.799 34.3388C150.799 35.1132 150.564 35.7468 150.095 36.2396C149.649 36.7324 149.016 36.9788 148.194 36.9788Z" fill="#5C6368"/>
<path d="M164.133 37.1548C163.101 37.1548 162.068 37.0726 161.036 36.9084C160.003 36.7676 159.029 36.5446 158.114 36.2396C157.199 35.911 156.377 35.5121 155.65 35.0428C155.228 34.7612 154.934 34.4209 154.77 34.022C154.606 33.623 154.547 33.2358 154.594 32.8604C154.664 32.4614 154.817 32.1212 155.052 31.8396C155.31 31.5345 155.627 31.3468 156.002 31.2764C156.377 31.206 156.788 31.3116 157.234 31.5932C158.267 32.2033 159.358 32.6492 160.508 32.9308C161.657 33.2124 162.866 33.3532 164.133 33.3532C165.987 33.3532 167.336 33.0481 168.181 32.438C169.026 31.8044 169.448 30.9948 169.448 30.0092C169.448 29.1878 169.143 28.5425 168.533 28.0732C167.947 27.6038 166.926 27.2166 165.471 26.9116L161.599 26.102C159.369 25.6326 157.703 24.8465 156.6 23.7436C155.521 22.6172 154.981 21.1388 154.981 19.3084C154.981 18.1585 155.216 17.1143 155.685 16.1756C156.155 15.2369 156.812 14.4273 157.656 13.7468C158.525 13.0663 159.545 12.55 160.719 12.198C161.916 11.8225 163.23 11.6348 164.661 11.6348C166.069 11.6348 167.407 11.8108 168.674 12.1628C169.941 12.5148 171.079 13.031 172.088 13.7116C172.464 13.9697 172.71 14.2865 172.828 14.662C172.968 15.0374 173.004 15.4129 172.933 15.7884C172.863 16.1404 172.699 16.4454 172.44 16.7036C172.182 16.9617 171.854 17.1143 171.455 17.1612C171.079 17.2081 170.645 17.0908 170.152 16.8092C169.284 16.3164 168.404 15.9644 167.512 15.7532C166.621 15.542 165.659 15.4364 164.626 15.4364C163.547 15.4364 162.62 15.5889 161.845 15.894C161.071 16.199 160.472 16.6332 160.05 17.1964C159.651 17.7361 159.452 18.3814 159.452 19.1324C159.452 19.9772 159.733 20.6577 160.296 21.174C160.86 21.6668 161.822 22.054 163.183 22.3356L167.02 23.1452C169.343 23.638 171.068 24.4124 172.194 25.4684C173.344 26.5244 173.919 27.9324 173.919 29.6924C173.919 30.8188 173.684 31.8396 173.215 32.7548C172.769 33.67 172.112 34.4561 171.244 35.1132C170.399 35.7702 169.378 36.2748 168.181 36.6268C166.984 36.9788 165.635 37.1548 164.133 37.1548Z" fill="#5C6368"/>
<path d="M185.076 37.1548C183.551 37.1548 182.272 36.8966 181.24 36.3804C180.23 35.8641 179.48 35.1132 178.987 34.1276C178.494 33.1185 178.248 31.8748 178.248 30.3964V22.8988H176.417C175.854 22.8988 175.42 22.758 175.115 22.4764C174.81 22.1713 174.657 21.7606 174.657 21.2444C174.657 20.7046 174.81 20.294 175.115 20.0124C175.42 19.7308 175.854 19.59 176.417 19.59H178.248V16.3868C178.248 15.6593 178.435 15.1079 178.811 14.7324C179.21 14.3569 179.761 14.1692 180.465 14.1692C181.169 14.1692 181.709 14.3569 182.084 14.7324C182.46 15.1079 182.648 15.6593 182.648 16.3868V19.59H186.379C186.942 19.59 187.376 19.7308 187.681 20.0124C187.986 20.294 188.139 20.7046 188.139 21.2444C188.139 21.7606 187.986 22.1713 187.681 22.4764C187.376 22.758 186.942 22.8988 186.379 22.8988H182.648V30.15C182.648 31.2764 182.894 32.1212 183.387 32.6844C183.88 33.2476 184.677 33.5292 185.78 33.5292C186.179 33.5292 186.531 33.494 186.836 33.4236C187.141 33.3532 187.411 33.3062 187.646 33.2828C187.928 33.2593 188.162 33.3532 188.35 33.5644C188.538 33.7521 188.632 34.151 188.632 34.7612C188.632 35.2305 188.549 35.6529 188.385 36.0284C188.244 36.3804 187.975 36.6268 187.576 36.7676C187.271 36.8614 186.872 36.9436 186.379 37.014C185.886 37.1078 185.452 37.1548 185.076 37.1548Z" fill="#5C6368"/>
<path d="M196.931 37.1548C195.5 37.1548 194.315 36.8966 193.376 36.3804C192.437 35.8406 191.733 35.0428 191.264 33.9868C190.818 32.9308 190.595 31.6166 190.595 30.0444V21.526C190.595 20.775 190.783 20.2236 191.159 19.8716C191.534 19.4961 192.074 19.3084 192.778 19.3084C193.482 19.3084 194.021 19.4961 194.397 19.8716C194.796 20.2236 194.995 20.775 194.995 21.526V30.1148C194.995 31.335 195.242 32.2385 195.735 32.8252C196.227 33.4118 197.013 33.7052 198.093 33.7052C199.266 33.7052 200.228 33.3062 200.979 32.5084C201.73 31.687 202.106 30.6076 202.106 29.27V21.526C202.106 20.775 202.293 20.2236 202.669 19.8716C203.044 19.4961 203.584 19.3084 204.288 19.3084C204.992 19.3084 205.532 19.4961 205.907 19.8716C206.306 20.2236 206.506 20.775 206.506 21.526V34.8316C206.506 36.3334 205.79 37.0844 204.359 37.0844C203.678 37.0844 203.15 36.8966 202.775 36.5212C202.399 36.1222 202.211 35.559 202.211 34.8316V32.1564L202.704 33.2124C202.211 34.4796 201.46 35.4534 200.451 36.134C199.466 36.8145 198.292 37.1548 196.931 37.1548Z" fill="#5C6368"/>
<path d="M217.703 37.1548C216.201 37.1548 214.875 36.791 213.725 36.0636C212.599 35.3361 211.719 34.3036 211.085 32.966C210.452 31.6049 210.135 30.0092 210.135 28.1788C210.135 26.3249 210.452 24.7409 211.085 23.4268C211.719 22.0892 212.599 21.0567 213.725 20.3292C214.875 19.6017 216.201 19.238 217.703 19.238C219.134 19.238 220.378 19.59 221.434 20.294C222.514 20.998 223.241 21.9249 223.617 23.0748H223.229V13.9228C223.229 13.1953 223.417 12.6438 223.793 12.2684C224.168 11.8929 224.708 11.7052 225.412 11.7052C226.116 11.7052 226.655 11.8929 227.031 12.2684C227.43 12.6438 227.629 13.1953 227.629 13.9228V34.8316C227.629 35.559 227.442 36.1222 227.066 36.5212C226.691 36.8966 226.151 37.0844 225.447 37.0844C224.743 37.0844 224.203 36.8966 223.828 36.5212C223.452 36.1222 223.265 35.559 223.265 34.8316V32.086L223.652 33.142C223.3 34.3622 222.584 35.3361 221.505 36.0636C220.425 36.791 219.158 37.1548 217.703 37.1548ZM218.935 33.8108C219.803 33.8108 220.566 33.5996 221.223 33.1772C221.88 32.7548 222.385 32.1329 222.737 31.3116C223.112 30.4668 223.3 29.4225 223.3 28.1788C223.3 26.3014 222.901 24.9052 222.103 23.99C221.305 23.0513 220.249 22.582 218.935 22.582C218.067 22.582 217.304 22.7932 216.647 23.2156C215.99 23.6145 215.474 24.2364 215.098 25.0812C214.746 25.9025 214.57 26.935 214.57 28.1788C214.57 30.0326 214.969 31.4406 215.767 32.4028C216.565 33.3414 217.621 33.8108 218.935 33.8108Z" fill="#5C6368"/>
<path d="M234.374 37.0492C233.67 37.0492 233.13 36.838 232.755 36.4156C232.379 35.9932 232.192 35.4065 232.192 34.6556V21.7372C232.192 20.9628 232.379 20.3761 232.755 19.9772C233.13 19.5548 233.67 19.3436 234.374 19.3436C235.078 19.3436 235.618 19.5548 235.993 19.9772C236.392 20.3761 236.592 20.9628 236.592 21.7372V34.6556C236.592 35.4065 236.404 35.9932 236.028 36.4156C235.653 36.838 235.101 37.0492 234.374 37.0492ZM234.374 16.07C233.553 16.07 232.907 15.8705 232.438 15.4716C231.992 15.0492 231.769 14.4743 231.769 13.7468C231.769 12.9958 231.992 12.4209 232.438 12.022C232.907 11.6231 233.553 11.4236 234.374 11.4236C235.219 11.4236 235.864 11.6231 236.31 12.022C236.756 12.4209 236.979 12.9958 236.979 13.7468C236.979 14.4743 236.756 15.0492 236.31 15.4716C235.864 15.8705 235.219 16.07 234.374 16.07Z" fill="#5C6368"/>
<path d="M249.013 37.1548C247.23 37.1548 245.681 36.791 244.367 36.0636C243.053 35.3361 242.032 34.3036 241.304 32.966C240.577 31.6049 240.213 30.0092 240.213 28.1788C240.213 26.7942 240.413 25.5622 240.811 24.4828C241.234 23.3798 241.832 22.4412 242.607 21.6668C243.381 20.8689 244.308 20.2705 245.387 19.8716C246.467 19.4492 247.675 19.238 249.013 19.238C250.797 19.238 252.345 19.6017 253.659 20.3292C254.974 21.0567 255.994 22.0892 256.722 23.4268C257.449 24.7644 257.813 26.3484 257.813 28.1788C257.813 29.5633 257.602 30.807 257.179 31.91C256.781 33.0129 256.194 33.9633 255.419 34.7612C254.645 35.5356 253.718 36.134 252.639 36.5564C251.559 36.9553 250.351 37.1548 249.013 37.1548ZM249.013 33.8108C249.881 33.8108 250.644 33.5996 251.301 33.1772C251.958 32.7548 252.463 32.1329 252.815 31.3116C253.19 30.4668 253.378 29.4225 253.378 28.1788C253.378 26.3014 252.979 24.9052 252.181 23.99C251.383 23.0513 250.327 22.582 249.013 22.582C248.145 22.582 247.382 22.7932 246.725 23.2156C246.068 23.6145 245.552 24.2364 245.176 25.0812C244.824 25.9025 244.648 26.935 244.648 28.1788C244.648 30.0326 245.047 31.4406 245.845 32.4028C246.643 33.3414 247.699 33.8108 249.013 33.8108Z" fill="#5C6368"/>
</g>
<defs>
<clipPath id="clip0_14405_4069">
<rect width="258" height="48" fill="white"/>
</clipPath>
</defs>
</svg>
