<svg width="110" height="25" viewBox="0 0 110 25" fill="none" xmlns="http://www.w3.org/2000/svg">
<g clip-path="url(#clip0_14405_4001)">
<rect width="110" height="25" fill="#5C6368"/>
<path d="M20.6993 0.260079C21.1458 0.0866928 21.7731 0 22.5811 0C23.3891 0 24.112 0.0541829 24.7499 0.162549C24.0907 5.14738 23.5698 9.66623 23.1871 13.7191C22.8256 17.7503 22.6236 19.8743 22.5811 20.091C22.5598 20.3078 22.5492 20.5028 22.5492 20.6762C22.5704 21.2397 22.8362 21.5215 23.3465 21.5215C24.6223 21.5215 26.3977 20.026 28.6729 17.0351C29.0769 18.1838 29.3107 18.9532 29.3745 19.3433C28.3539 20.9905 27.1207 22.345 25.6748 23.407C24.2502 24.4473 22.9 24.9675 21.6242 24.9675C20.3485 24.9675 19.4661 24.6316 18.977 23.9597C18.488 23.2878 18.2435 22.5401 18.2435 21.7165C18.2435 21.5215 18.2647 21.1422 18.3073 20.5787C18.371 20.0152 18.7963 16.5041 19.583 10.0455L14.3524 22.3667H11.6414L10.0786 10.2406L7.84597 20.3186C7.4845 21.9224 6.88914 23.1036 6.05989 23.8622C5.25191 24.6207 4.35887 25 3.38078 25C2.40269 25 1.60534 24.7074 0.988719 24.1222C0.329573 23.4937 0 22.6051 0 21.4564C0 19.1591 1.74355 17.1977 5.23064 15.5722C7.12303 6.31773 8.14364 1.19202 8.29248 0.195058C8.80279 0.0650193 9.4832 0 10.3337 0C11.2055 0 11.8008 0.0216729 12.1198 0.0650187H12.343L14.3205 15.1821L20.6993 0.422627V0.260079ZM2.26449 20.9038C2.26449 21.5973 2.53027 21.9441 3.06184 21.9441C3.42331 21.9441 3.72099 21.6515 3.95488 21.0663C4.25256 20.3511 4.49708 19.4083 4.68844 18.238C3.07247 19.1699 2.26449 20.0585 2.26449 20.9038Z" fill="#5C6368"/>
<path d="M34.8783 9.13525C36.8345 9.13525 38.4611 9.77461 39.7581 11.0533C41.0764 12.332 41.7356 13.8925 41.7356 15.7347C41.7356 18.5306 40.9276 20.7737 39.3116 22.4642C37.7169 24.1331 35.782 24.9675 33.5069 24.9675C31.2317 24.9675 29.4244 24.3065 28.0849 22.9844C26.7666 21.6623 26.1074 20.026 26.1074 18.0754C26.1074 15.3446 26.926 13.1773 28.5633 11.5735C30.2218 9.94799 32.3268 9.13525 34.8783 9.13525ZM34.2404 11.7685C33.2411 11.7685 32.4012 12.3537 31.7208 13.5241C31.0404 14.6944 30.6683 16.1682 30.6045 17.9454C30.6045 19.2024 30.849 20.2427 31.3381 21.0663C31.8484 21.8899 32.6138 22.3017 33.6344 22.3017C34.6551 22.3017 35.5056 21.7274 36.186 20.5787C36.8876 19.43 37.2385 18.1188 37.2385 16.645C37.2385 15.1712 36.994 14.0009 36.5049 13.1339C36.0159 12.2237 35.261 11.7685 34.2404 11.7685Z" fill="#5C6368"/>
<path d="M55.2763 1.33292C55.4252 0.964478 55.7547 0.661054 56.2651 0.422649C56.7966 0.162571 57.4239 0.0325317 58.1468 0.0325317C58.891 0.0325317 59.4438 0.140897 59.8053 0.357629C59.5927 2.04813 59.2525 4.7031 58.7847 8.32252C57.8066 15.8864 57.3176 20.0585 57.3176 20.8388C57.3176 21.5973 57.6365 21.9766 58.2744 21.9766C58.8272 21.9766 59.4013 21.6298 59.9967 20.9363C60.592 20.2211 61.1342 19.0616 61.6233 17.4577C62.2186 18.0429 62.6333 18.6823 62.8671 19.3758C62.1017 21.9549 60.9003 23.6238 59.2631 24.3823C58.5189 24.7508 57.8172 24.935 57.1581 24.935C55.2657 24.935 54.0006 24.2414 53.3627 22.8544C52.257 24.2631 50.843 24.9675 49.1208 24.9675C47.3985 24.9675 45.942 24.3715 44.7513 23.1795C43.5818 21.9874 42.9971 20.4161 42.9971 18.4655C42.9971 15.6264 43.8157 13.3615 45.4529 11.671C47.0902 9.98051 49.1633 9.13526 51.6723 9.13526C51.7361 9.13526 51.7999 9.13526 51.8637 9.13526C52.7354 9.13526 53.554 9.2653 54.3195 9.52538L55.2763 1.33292ZM52.1507 11.671C50.7899 11.671 49.7055 12.202 48.8975 13.264C48.1108 14.3043 47.643 15.8648 47.4942 17.9454C47.4729 18.1404 47.4623 18.3247 47.4623 18.498C47.4623 19.56 47.7068 20.4053 48.1958 21.0338C48.7061 21.6623 49.3547 21.9766 50.1414 21.9766C51.4809 21.9766 52.4909 21.0121 53.1713 19.0832L54.0006 12.0936C53.2989 11.8119 52.6823 11.671 52.1507 11.671Z" fill="#5C6368"/>
<path d="M74.7582 24.935C72.8021 24.935 71.505 24.2414 70.8672 22.8544C69.7615 24.2631 68.3369 24.9675 66.5933 24.9675C64.871 24.9675 63.4145 24.3715 62.2238 23.1795C61.0544 21.9874 60.4697 20.4161 60.4697 18.4655C60.4697 15.6264 61.2883 13.3615 62.9255 11.671C64.5627 9.9805 66.6359 9.13525 69.1449 9.13525C69.2086 9.13525 69.2724 9.13525 69.3362 9.13525C70.3994 9.13525 71.3775 9.31947 72.2705 9.68792C72.8446 9.31947 73.5356 9.13525 74.3436 9.13525C75.1729 9.13525 75.7682 9.24362 76.1297 9.46035C75.9383 11.0642 75.7363 12.6463 75.5237 14.2068C75.3111 15.7456 75.1622 16.8401 75.0772 17.4902C74.8858 18.964 74.7901 20.026 74.7901 20.6762C74.7901 21.5431 75.1303 21.9766 75.8107 21.9766C76.3423 21.9766 76.9058 21.619 77.5011 20.9038C78.0965 20.1669 78.6174 19.0182 79.064 17.4577C79.6806 18.0212 80.1058 18.6498 80.3397 19.3433C79.7231 21.4023 78.8939 22.8544 77.852 23.6996C76.8101 24.5232 75.7789 24.935 74.7582 24.935ZM69.6233 11.671C68.2625 11.671 67.1781 12.202 66.3701 13.264C65.5834 14.3043 65.1156 15.8648 64.9667 17.9454C64.9455 18.1404 64.9348 18.3247 64.9348 18.498C64.9348 19.56 65.1794 20.4053 65.6684 21.0338C66.1787 21.6623 66.8272 21.9766 67.6139 21.9766C68.9535 21.9766 69.9635 21.0121 70.6439 19.0832L71.4093 12.0611C70.7927 11.801 70.1974 11.671 69.6233 11.671Z" fill="#5C6368"/>
<path d="M90.0313 18.9532C89.3722 20.7087 88.4153 22.15 87.1608 23.277C85.9276 24.3823 84.5136 24.935 82.9189 24.935C81.3242 24.935 80.1229 24.404 79.3149 23.342C78.5281 22.2583 78.1348 21.023 78.1348 19.6359C78.1348 19.3541 78.1454 19.0724 78.1667 18.7906L79.2511 9.52536C79.9315 9.26528 80.6544 9.13524 81.4199 9.13524C82.8232 9.13524 83.5249 9.66623 83.5249 10.7282C83.5249 10.7716 83.3442 12.2237 82.9827 15.0845C82.6425 17.9237 82.4724 19.5709 82.4724 20.026C82.4724 21.2614 83.0571 21.8791 84.2266 21.8791C85.2259 21.8791 86.0658 21.3047 86.7462 20.156C87.9369 18.0754 88.5642 15.7239 88.628 13.1014H88.3409C87.4479 13.1014 86.7675 12.8955 86.2997 12.4837C85.7681 12.0069 85.5023 11.4326 85.5023 10.7607C85.5023 10.0889 85.7043 9.54703 86.1083 9.13524C86.5974 8.70178 87.1821 8.48505 87.8625 8.48505C89.4785 8.48505 90.4885 9.34114 90.8925 11.0533C91.5303 10.9666 91.9875 10.8799 92.2639 10.7932V12.6463L91.0838 12.8414V13.394C91.0626 15.3446 90.7117 17.1977 90.0313 18.9532ZM87.3203 10.7607C87.3203 11.1292 87.6286 11.3134 88.2452 11.3134C88.309 11.3134 88.3728 11.3134 88.4366 11.3134C88.2878 10.7282 88.0645 10.4356 87.7668 10.4356C87.4691 10.4356 87.3203 10.544 87.3203 10.7607Z" fill="#5C6368"/>
<path d="M98.4544 17.4902C99.7727 17.2085 100.751 16.6667 101.389 15.8648C102.048 15.0629 102.377 14.2935 102.377 13.5566C102.377 12.798 102.175 12.2887 101.771 12.0286C101.389 11.7469 100.963 11.606 100.496 11.606C99.4963 11.606 98.6139 12.1803 97.8484 13.329C97.1042 14.456 96.7321 15.8106 96.7321 17.3927C96.7321 18.9532 97.0936 20.1235 97.8165 20.9038C98.5607 21.6623 99.475 22.0416 100.559 22.0416C102.154 22.0416 103.685 21.4781 105.152 20.3511C106.619 19.2241 107.81 17.7503 108.724 15.9298C109.192 16.3849 109.617 16.9484 110 17.6203C109.298 19.2458 108.054 20.8388 106.268 22.3992C105.375 23.1578 104.312 23.7755 103.079 24.2523C101.867 24.7291 100.612 24.9675 99.3156 24.9675C97.1893 24.9675 95.5095 24.3065 94.2763 22.9844C92.958 21.554 92.2988 19.7226 92.2988 17.4902C92.2988 15.2579 93.1174 13.3073 94.7547 11.6385C96.4132 9.96967 98.3906 9.13525 100.687 9.13525C102.324 9.13525 103.653 9.50369 104.674 10.2406C105.694 10.9558 106.215 11.9311 106.236 13.1665C106.236 14.8353 105.577 16.1899 104.259 17.2302C102.962 18.2705 101.176 18.9965 98.9009 19.4083L98.4544 17.4902Z" fill="#5C6368"/>
</g>
<defs>
<clipPath id="clip0_14405_4001">
<rect width="110" height="25" fill="white"/>
</clipPath>
</defs>
</svg>
