<svg width="110" height="38" viewBox="0 0 110 38" fill="none" xmlns="http://www.w3.org/2000/svg">
<rect width="110" height="38" fill="#5C6368"/>
<path d="M11.4102 13.8008H21.5701V4.08392H11.4102V13.8008Z" fill="#5C6368"/>
<path d="M1.25391 23.5156H11.4139V13.7988H1.25391V23.5156Z" fill="#5C6368"/>
<path d="M29.2812 21.7751L32.111 2.63611H46.5802L45.3549 7.10004H37.4493L36.9534 10.3363H44.2756L43.6629 14.605H36.3409L35.2614 21.7751H29.2812Z" fill="#5C6368"/>
<path d="M47.2236 21.7751L49.2948 7.5185H55.0416L52.9412 21.7751H47.2236ZM49.5573 5.67713L50.1407 1.6875H55.8876L55.3041 5.67713H49.5573Z" fill="#5C6368"/>
<path d="M55.8262 21.7751L57.9265 7.5185H62.2731L62.5356 9.58306C62.6912 9.37847 62.9635 9.09017 63.3525 8.71818C63.7609 8.34618 64.3248 8.01139 65.0444 7.71379C65.764 7.3976 66.6877 7.2395 67.8157 7.2395C69.216 7.2395 70.2661 7.5836 70.9663 8.27178C71.6664 8.95997 72.0164 9.81556 72.0164 10.8385C72.0164 11.0245 71.997 11.2849 71.9581 11.6197C71.9192 11.9359 71.8609 12.3637 71.7831 12.9031C71.7247 13.4425 71.6275 14.1121 71.4914 14.9119C71.3747 15.7117 71.2288 16.6788 71.0538 17.8134C70.8982 18.948 70.7037 20.2686 70.4703 21.7751H64.6944C64.9277 20.2314 65.1222 18.9387 65.2778 17.8971C65.4334 16.8369 65.5598 15.9813 65.657 15.3304C65.7543 14.6608 65.8223 14.14 65.8612 13.768C65.9196 13.3774 65.9585 13.0891 65.9779 12.9031C65.9974 12.6985 66.0071 12.5311 66.0071 12.4009C66.0071 12.0289 65.8904 11.7313 65.657 11.5081C65.4431 11.2849 65.1222 11.1733 64.6944 11.1733C64.3637 11.1733 64.072 11.2477 63.8192 11.3965C63.5664 11.5453 63.3622 11.7499 63.2066 12.0103C63.0705 12.2521 62.9732 12.5311 62.9149 12.8473L61.6022 21.7751H55.8262Z" fill="#5C6368"/>
<path d="M78.3667 22.0541C76.8303 22.0541 75.6343 21.5891 74.7786 20.6592C73.9229 19.7292 73.4951 18.3063 73.4951 16.3905C73.4951 15.256 73.6215 14.1493 73.8743 13.0705C74.1466 11.9731 74.555 10.9873 75.0995 10.1132C75.6635 9.23897 76.3733 8.54148 77.229 8.02069C78.1042 7.4999 79.1544 7.2395 80.3796 7.2395C81.4103 7.2395 82.2077 7.4162 82.7716 7.76959C83.3356 8.10439 83.7343 8.51358 83.9677 8.99717L85.047 1.6875H90.823C90.5313 3.56607 90.2688 5.23074 90.0354 6.68151C89.802 8.13229 89.5978 9.40636 89.4228 10.5037C89.2672 11.6011 89.1213 12.5404 88.9852 13.3216C88.8685 14.1028 88.7713 14.7631 88.6935 15.3025C88.6157 15.8419 88.5574 16.2882 88.5185 16.6416C88.4796 16.9764 88.4504 17.2461 88.431 17.4507C88.4115 17.6553 88.4018 17.8227 88.4018 17.9529C88.4018 18.1575 88.4601 18.3342 88.5768 18.483C88.6935 18.6318 88.888 18.7062 89.1602 18.7062C89.3547 18.7062 89.5395 18.669 89.7145 18.5946C89.909 18.5202 90.084 18.4365 90.2396 18.3435L89.7728 21.4125C89.3644 21.6171 88.8783 21.7751 88.3143 21.8867C87.7697 21.9983 87.2641 22.0541 86.7973 22.0541C86.2139 22.0541 85.6499 21.9983 85.1054 21.8867C84.5608 21.7937 84.0844 21.5984 83.676 21.3009C83.2676 20.9847 82.9856 20.5104 82.83 19.878C82.3243 20.4918 81.7117 21.0126 80.9922 21.4404C80.2726 21.8495 79.3975 22.0541 78.3667 22.0541ZM80.7588 18.6783C81.1867 18.6783 81.5367 18.5946 81.809 18.4272C82.1007 18.2412 82.3341 17.9994 82.5091 17.7018C82.6841 17.4042 82.8008 17.0787 82.8592 16.7253C83.0731 15.2002 83.2287 14.1214 83.3259 13.489C83.4231 12.838 83.4718 12.4567 83.4718 12.3451C83.4718 11.8057 83.3065 11.4058 82.9758 11.1454C82.6452 10.8664 82.2563 10.7269 81.809 10.7269C81.4589 10.7269 81.138 10.8013 80.8463 10.9501C80.5546 11.0989 80.3115 11.3221 80.117 11.6197C79.942 11.8987 79.8253 12.2335 79.767 12.6241C79.5725 13.8703 79.4266 14.8747 79.3294 15.6373C79.2516 16.3998 79.2127 16.8834 79.2127 17.088C79.2127 17.5716 79.3586 17.9622 79.6503 18.2598C79.942 18.5388 80.3115 18.6783 80.7588 18.6783Z" fill="#5C6368"/>
<path d="M91.8643 21.7751L93.9647 7.5185H98.2821L98.603 9.58306C98.6613 9.47146 98.8072 9.29477 99.0406 9.05297C99.2739 8.79257 99.5754 8.52288 99.9449 8.24389C100.314 7.96489 100.751 7.73239 101.257 7.5464C101.763 7.3418 102.307 7.2395 102.891 7.2395C104.058 7.2395 104.942 7.5185 105.545 8.07649C106.148 8.63448 106.45 9.38776 106.45 10.3363C106.45 10.8571 106.401 11.3779 106.304 11.8987C106.207 12.4009 106.09 12.8659 105.954 13.2937H101.228C101.267 13.1263 101.286 12.9682 101.286 12.8194C101.306 12.652 101.315 12.5125 101.315 12.4009C101.315 12.1033 101.267 11.8708 101.17 11.7034C101.092 11.536 100.975 11.4151 100.82 11.3407C100.664 11.2663 100.489 11.2291 100.294 11.2291C100.1 11.2291 99.9157 11.2663 99.7407 11.3407C99.5657 11.4151 99.4198 11.5174 99.3031 11.6476C99.1864 11.7592 99.0892 11.8987 99.0114 12.0661C98.9336 12.2335 98.8753 12.4195 98.8364 12.6241L97.4945 21.7751H91.8643Z" fill="#5C6368"/>
<path d="M0.578125 35.5055V31.3188H1.66933L3.02216 34.5717H3.03493L4.39414 31.3188H5.49173V35.5055H4.81531V32.0634H4.7834L3.36037 35.5055H2.63291L1.21626 32.0634H1.18435V35.5055H0.578125Z" fill="#5C6368"/>
<path d="M7.38195 35.5665C7.20753 35.5665 7.03949 35.5401 6.87783 35.4872C6.72042 35.4343 6.59067 35.3448 6.48857 35.2187C6.39072 35.0885 6.3418 34.9135 6.3418 34.6938C6.3418 34.47 6.39285 34.291 6.49495 34.1567C6.6013 34.0184 6.7502 33.9126 6.94164 33.8394C7.13733 33.7661 7.36919 33.7173 7.6372 33.6929C7.90947 33.6685 8.20727 33.6563 8.53058 33.6563V33.3389C8.53058 33.1192 8.47315 32.9666 8.35829 32.8812C8.24768 32.7917 8.07113 32.7469 7.82864 32.7469C7.62444 32.7469 7.44789 32.7897 7.29899 32.8751C7.1501 32.9565 7.07565 33.0867 7.07565 33.2657V33.3389H6.45666C6.45241 33.3186 6.45028 33.2982 6.45028 33.2779C6.45028 33.2535 6.45028 33.2291 6.45028 33.2047C6.45028 33.0256 6.50771 32.871 6.62257 32.7408C6.74169 32.6066 6.90123 32.5048 7.10117 32.4357C7.30537 32.3624 7.53723 32.3258 7.79673 32.3258H7.88607C8.31575 32.3258 8.63481 32.4072 8.84327 32.5699C9.05598 32.7327 9.16233 32.9666 9.16233 33.2718V34.9257C9.16233 34.9989 9.17935 35.0518 9.21338 35.0844C9.24742 35.1169 9.28783 35.1332 9.33463 35.1332C9.38143 35.1332 9.43035 35.1251 9.4814 35.1088C9.5367 35.0925 9.58563 35.0722 9.62817 35.0478V35.4384C9.57286 35.4791 9.5048 35.5096 9.42397 35.5299C9.34314 35.5543 9.24742 35.5665 9.13681 35.5665C9.00067 35.5665 8.89006 35.5421 8.80498 35.4933C8.72415 35.4404 8.66459 35.3712 8.6263 35.2858C8.58802 35.2003 8.56462 35.1047 8.55611 34.9989C8.43274 35.182 8.27108 35.3224 8.07113 35.4201C7.87544 35.5177 7.64571 35.5665 7.38195 35.5665ZM7.6372 35.1332C7.7861 35.1332 7.92862 35.1027 8.06475 35.0417C8.20088 34.9766 8.31149 34.8789 8.39658 34.7487C8.48592 34.6185 8.53058 34.4558 8.53058 34.2605V34.0286C8.21152 34.0286 7.93712 34.0448 7.7074 34.0774C7.47767 34.1059 7.30112 34.1628 7.17775 34.2483C7.05863 34.3337 6.99907 34.4659 6.99907 34.645C6.99907 34.8159 7.05225 34.94 7.1586 35.0173C7.26496 35.0946 7.42449 35.1332 7.6372 35.1332Z" fill="#5C6368"/>
<path d="M10.3604 35.5055V31.1113H10.9985V34.0957L12.5045 32.3869H13.2575L11.9557 33.8272L13.3341 35.5055H12.5619L11.5218 34.2483L10.9985 34.7548V35.5055H10.3604Z" fill="#5C6368"/>
<path d="M13.9693 35.5055V32.3869H14.6075V35.5055H13.9693ZM13.9502 31.624V31.1113H14.6266V31.624H13.9502Z" fill="#5C6368"/>
<path d="M15.6699 35.5055V32.3869H16.1294L16.2187 32.8446C16.3378 32.6737 16.491 32.5455 16.6782 32.4601C16.8696 32.3706 17.0759 32.3258 17.2971 32.3258C17.5226 32.3258 17.7204 32.3665 17.8906 32.4479C18.065 32.5293 18.2012 32.6513 18.299 32.8141C18.3969 32.9727 18.4458 33.1721 18.4458 33.4122V35.5055H17.8076V33.5159C17.8076 33.2596 17.746 33.0765 17.6226 32.9666C17.4992 32.8527 17.3248 32.7958 17.0993 32.7958C16.9547 32.7958 16.8207 32.8303 16.6973 32.8995C16.5782 32.9687 16.4825 33.0623 16.4101 33.1802C16.3421 33.2942 16.308 33.4264 16.308 33.5769V35.5055H15.6699Z" fill="#5C6368"/>
<path d="M20.014 36.6529C19.8651 36.6529 19.729 36.6183 19.6056 36.5491C19.4865 36.4799 19.3908 36.3864 19.3185 36.2684C19.2461 36.1545 19.21 36.0304 19.21 35.8961C19.21 35.7496 19.2525 35.6113 19.3376 35.4811C19.4227 35.3509 19.5397 35.2553 19.6886 35.1942C19.595 35.1373 19.5205 35.064 19.4652 34.9745C19.4142 34.885 19.3887 34.7894 19.3887 34.6877C19.3887 34.5372 19.4376 34.411 19.5354 34.3093C19.6333 34.2035 19.7609 34.1242 19.9183 34.0713C19.7864 33.9858 19.6801 33.8862 19.5992 33.7722C19.5184 33.6542 19.478 33.5159 19.478 33.3572C19.478 33.1823 19.5248 33.0175 19.6184 32.8629C19.7162 32.7042 19.863 32.576 20.0587 32.4784C20.2544 32.3767 20.499 32.3258 20.7926 32.3258C20.9287 32.3258 21.0521 32.334 21.1627 32.3502C21.2775 32.3665 21.3796 32.393 21.469 32.4296C21.6306 32.3645 21.7561 32.279 21.8455 32.1732C21.9348 32.0675 21.9859 31.9515 21.9986 31.8254H22.5219C22.5219 31.9556 22.4942 32.0756 22.4389 32.1855C22.3879 32.2953 22.3134 32.3869 22.2156 32.4601C22.1177 32.5333 22.0007 32.5842 21.8646 32.6127L21.8582 32.631C21.9561 32.7123 22.0327 32.808 22.088 32.9178C22.1475 33.0277 22.1773 33.1497 22.1773 33.284C22.1773 33.463 22.1284 33.6298 22.0305 33.7844C21.9327 33.935 21.7902 34.057 21.603 34.1506C21.42 34.2401 21.1924 34.2849 20.9202 34.2849H20.4224C20.2906 34.2849 20.1842 34.3154 20.1034 34.3764C20.0225 34.4375 19.9821 34.5188 19.9821 34.6206C19.9821 34.7182 20.0204 34.7975 20.097 34.8586C20.1778 34.9196 20.2863 34.9501 20.4224 34.9501H21.654C21.922 34.9501 22.1326 35.0295 22.2858 35.1881C22.4432 35.3428 22.5219 35.534 22.5219 35.7618C22.5219 35.9246 22.4793 36.0731 22.3943 36.2073C22.3134 36.3457 22.1986 36.4535 22.0497 36.5308C21.905 36.6122 21.7349 36.6529 21.5392 36.6529H20.014ZM20.2182 36.2379H21.4434C21.5711 36.2379 21.6817 36.1951 21.7753 36.1097C21.8731 36.0243 21.922 35.9205 21.922 35.7984C21.922 35.6967 21.8816 35.6072 21.8008 35.5299C21.7242 35.4526 21.6306 35.414 21.52 35.414H20.2182C20.0949 35.414 19.9906 35.4546 19.9056 35.536C19.8205 35.6174 19.7779 35.715 19.7779 35.829C19.7779 35.9388 19.8205 36.0344 19.9056 36.1158C19.9906 36.1972 20.0949 36.2379 20.2182 36.2379ZM20.8245 33.9065C21.0584 33.9065 21.2414 33.8475 21.3733 33.7295C21.5051 33.6115 21.5711 33.4712 21.5711 33.3084C21.5711 33.1457 21.5051 33.0053 21.3733 32.8873C21.2414 32.7652 21.0584 32.7042 20.8245 32.7042C20.5905 32.7042 20.4075 32.7652 20.2757 32.8873C20.148 33.0053 20.0842 33.1457 20.0842 33.3084C20.0842 33.4712 20.148 33.6115 20.2757 33.7295C20.4075 33.8475 20.5905 33.9065 20.8245 33.9065Z" fill="#5C6368"/>
<path d="M24.6383 35.5055V32.3869H25.2764V35.5055H24.6383ZM24.6191 31.624V31.1113H25.2956V31.624H24.6191Z" fill="#5C6368"/>
<path d="M26.3389 35.5055V32.3869H26.7983L26.8876 32.8446C27.0068 32.6737 27.1599 32.5455 27.3471 32.4601C27.5385 32.3706 27.7449 32.3258 27.9661 32.3258C28.1916 32.3258 28.3894 32.3665 28.5595 32.4479C28.734 32.5293 28.8701 32.6513 28.9679 32.8141C29.0658 32.9727 29.1147 33.1721 29.1147 33.4122V35.5055H28.4766V33.5159C28.4766 33.2596 28.4149 33.0765 28.2915 32.9666C28.1682 32.8527 27.9937 32.7958 27.7683 32.7958C27.6236 32.7958 27.4896 32.8303 27.3662 32.8995C27.2471 32.9687 27.1514 33.0623 27.0791 33.1802C27.011 33.2942 26.977 33.4264 26.977 33.5769V35.5055H26.3389Z" fill="#5C6368"/>
<path d="M31.0653 35.5665C30.9079 35.5665 30.7654 35.5421 30.6378 35.4933C30.5144 35.4445 30.4165 35.3672 30.3442 35.2614C30.2761 35.1515 30.2421 35.0071 30.2421 34.8281V32.8629H29.8848V32.3869H30.2613L30.4846 31.3921H30.8802V32.3869H31.6396V32.8629H30.8802V34.7182C30.8802 34.8972 30.9185 35.0112 30.9951 35.06C31.0717 35.1088 31.1546 35.1332 31.244 35.1332C31.2908 35.1332 31.3546 35.123 31.4354 35.1027C31.5205 35.0824 31.5886 35.062 31.6396 35.0417V35.4506C31.5928 35.475 31.5354 35.4953 31.4673 35.5116C31.4035 35.5319 31.3354 35.5462 31.2631 35.5543C31.1951 35.5625 31.1291 35.5665 31.0653 35.5665Z" fill="#5C6368"/>
<path d="M33.7915 35.5665C33.5022 35.5665 33.2469 35.5075 33.0257 35.3895C32.8087 35.2675 32.6386 35.0905 32.5152 34.8586C32.3918 34.6226 32.3301 34.3398 32.3301 34.0103V33.8821C32.3301 33.5485 32.394 33.2657 32.5216 33.0338C32.6535 32.8019 32.8321 32.6269 33.0576 32.5089C33.2831 32.3869 33.5405 32.3258 33.8298 32.3258H33.9C34.1637 32.3258 34.3977 32.3787 34.6019 32.4845C34.8061 32.5903 34.9635 32.7408 35.0741 32.9361C35.189 33.1314 35.2464 33.3633 35.2464 33.6319V34.0225H32.9938C32.9938 34.2544 33.0257 34.4537 33.0895 34.6206C33.1576 34.7874 33.2533 34.9155 33.3767 35.005C33.5043 35.0905 33.6596 35.1332 33.8425 35.1332C33.9957 35.1332 34.1318 35.1047 34.2509 35.0478C34.37 34.9908 34.4658 34.9033 34.5381 34.7853C34.6104 34.6673 34.6466 34.5209 34.6466 34.3459H35.2464C35.2464 34.5941 35.1847 34.8098 35.0613 34.9928C34.938 35.1759 34.7699 35.3183 34.5572 35.4201C34.3488 35.5177 34.1127 35.5665 33.8489 35.5665H33.7915ZM33.0002 33.6563H34.621C34.621 33.3511 34.5508 33.1253 34.4105 32.9788C34.2743 32.8324 34.0829 32.7591 33.8361 32.7591C33.6107 32.7591 33.4171 32.8344 33.2554 32.985C33.098 33.1355 33.0129 33.3593 33.0002 33.6563Z" fill="#5C6368"/>
<path d="M36.1221 35.5055V32.3869H36.5943L36.6836 32.8446C36.6879 32.8364 36.707 32.8059 36.7411 32.753C36.7751 32.7001 36.8262 32.6411 36.8942 32.576C36.9665 32.5069 37.058 32.4479 37.1686 32.3991C37.2835 32.3502 37.4239 32.3258 37.5898 32.3258C37.8153 32.3258 38.0003 32.3706 38.145 32.4601C38.2939 32.5455 38.4023 32.6635 38.4704 32.8141C38.5427 32.9646 38.5789 33.1355 38.5789 33.3267C38.5789 33.3674 38.5768 33.4101 38.5725 33.4549C38.5683 33.4956 38.5661 33.5281 38.5661 33.5525H38.0173V33.4366C38.0173 33.3471 37.9982 33.2535 37.9599 33.1558C37.9259 33.0541 37.8642 32.9707 37.7748 32.9056C37.6855 32.8364 37.56 32.8019 37.3983 32.8019C37.2792 32.8019 37.1771 32.8263 37.092 32.8751C37.0112 32.9239 36.9453 32.985 36.8942 33.0582C36.8474 33.1314 36.8134 33.2087 36.7921 33.2901C36.7709 33.3715 36.7602 33.4467 36.7602 33.5159V35.5055H36.1221Z" fill="#5C6368"/>
<path d="M39.2568 35.5055V32.3869H39.7162L39.8055 32.8446C39.9247 32.6737 40.0778 32.5455 40.265 32.4601C40.4564 32.3706 40.6628 32.3258 40.884 32.3258C41.1095 32.3258 41.3073 32.3665 41.4774 32.4479C41.6519 32.5293 41.788 32.6513 41.8858 32.8141C41.9837 32.9727 42.0326 33.1721 42.0326 33.4122V35.5055H41.3945V33.5159C41.3945 33.2596 41.3328 33.0765 41.2094 32.9666C41.0861 32.8527 40.9116 32.7958 40.6862 32.7958C40.5415 32.7958 40.4075 32.8303 40.2841 32.8995C40.165 32.9687 40.0693 33.0623 39.997 33.1802C39.9289 33.2942 39.8949 33.4264 39.8949 33.5769V35.5055H39.2568Z" fill="#5C6368"/>
<path d="M44.3666 35.5665C44.0773 35.5665 43.8221 35.5075 43.6009 35.3895C43.3839 35.2675 43.2137 35.0905 43.0904 34.8586C42.967 34.6226 42.9053 34.3398 42.9053 34.0103V33.8821C42.9053 33.5485 42.9691 33.2657 43.0968 33.0338C43.2286 32.8019 43.4073 32.6269 43.6328 32.5089C43.8583 32.3869 44.1156 32.3258 44.4049 32.3258H44.4751C44.7389 32.3258 44.9729 32.3787 45.1771 32.4845C45.3813 32.5903 45.5387 32.7408 45.6493 32.9361C45.7641 33.1314 45.8216 33.3633 45.8216 33.6319V34.0225H43.569C43.569 34.2544 43.6009 34.4537 43.6647 34.6206C43.7328 34.7874 43.8285 34.9155 43.9518 35.005C44.0795 35.0905 44.2348 35.1332 44.4177 35.1332C44.5708 35.1332 44.707 35.1047 44.8261 35.0478C44.9452 34.9908 45.0409 34.9033 45.1132 34.7853C45.1856 34.6673 45.2217 34.5209 45.2217 34.3459H45.8216C45.8216 34.5941 45.7599 34.8098 45.6365 34.9928C45.5131 35.1759 45.3451 35.3183 45.1324 35.4201C44.9239 35.5177 44.6878 35.5665 44.4241 35.5665H44.3666ZM43.5754 33.6563H45.1962C45.1962 33.3511 45.126 33.1253 44.9856 32.9788C44.8495 32.8324 44.658 32.7591 44.4113 32.7591C44.1858 32.7591 43.9923 32.8344 43.8306 32.985C43.6732 33.1355 43.5881 33.3593 43.5754 33.6563Z" fill="#5C6368"/>
<path d="M47.6484 35.5665C47.491 35.5665 47.3484 35.5421 47.2208 35.4933C47.0975 35.4445 46.9996 35.3672 46.9273 35.2614C46.8592 35.1515 46.8252 35.0071 46.8252 34.8281V32.8629H46.4678V32.3869H46.8443L47.0677 31.3921H47.4633V32.3869H48.2227V32.8629H47.4633V34.7182C47.4633 34.8972 47.5016 35.0112 47.5782 35.06C47.6547 35.1088 47.7377 35.1332 47.827 35.1332C47.8738 35.1332 47.9377 35.123 48.0185 35.1027C48.1036 35.0824 48.1716 35.062 48.2227 35.0417V35.4506C48.1759 35.475 48.1185 35.4953 48.0504 35.5116C47.9866 35.5319 47.9185 35.5462 47.8462 35.5543C47.7781 35.5625 47.7122 35.5665 47.6484 35.5665Z" fill="#5C6368"/>
<path d="M51.8197 35.5665C51.5304 35.5665 51.2752 35.5075 51.0539 35.3895C50.837 35.2675 50.6668 35.0905 50.5434 34.8586C50.4201 34.6226 50.3584 34.3398 50.3584 34.0103V33.8821C50.3584 33.5485 50.4222 33.2657 50.5498 33.0338C50.6817 32.8019 50.8604 32.6269 51.0858 32.5089C51.3113 32.3869 51.5687 32.3258 51.858 32.3258H51.9282C52.1919 32.3258 52.4259 32.3787 52.6301 32.4845C52.8343 32.5903 52.9917 32.7408 53.1023 32.9361C53.2172 33.1314 53.2746 33.3633 53.2746 33.6319V34.0225H51.022C51.022 34.2544 51.0539 34.4537 51.1178 34.6206C51.1858 34.7874 51.2815 34.9155 51.4049 35.005C51.5325 35.0905 51.6878 35.1332 51.8707 35.1332C52.0239 35.1332 52.16 35.1047 52.2791 35.0478C52.3983 34.9908 52.494 34.9033 52.5663 34.7853C52.6386 34.6673 52.6748 34.5209 52.6748 34.3459H53.2746C53.2746 34.5941 53.2129 34.8098 53.0896 34.9928C52.9662 35.1759 52.7982 35.3183 52.5855 35.4201C52.377 35.5177 52.1409 35.5665 51.8771 35.5665H51.8197ZM51.0284 33.6563H52.6493C52.6493 33.3511 52.5791 33.1253 52.4387 32.9788C52.3025 32.8324 52.1111 32.7591 51.8644 32.7591C51.6389 32.7591 51.4453 32.8344 51.2837 32.985C51.1263 33.1355 51.0412 33.3593 51.0284 33.6563Z" fill="#5C6368"/>
<path d="M54.9865 35.5665C54.812 35.5665 54.644 35.5401 54.4823 35.4872C54.3249 35.4343 54.1952 35.3448 54.0931 35.2187C53.9952 35.0885 53.9463 34.9135 53.9463 34.6938C53.9463 34.47 53.9974 34.291 54.0995 34.1567C54.2058 34.0184 54.3547 33.9126 54.5462 33.8394C54.7419 33.7661 54.9737 33.7173 55.2417 33.6929C55.514 33.6685 55.8118 33.6563 56.1351 33.6563V33.3389C56.1351 33.1192 56.0777 32.9666 55.9628 32.8812C55.8522 32.7917 55.6757 32.7469 55.4332 32.7469C55.229 32.7469 55.0524 32.7897 54.9035 32.8751C54.7546 32.9565 54.6802 33.0867 54.6802 33.2657V33.3389H54.0612C54.0569 33.3186 54.0548 33.2982 54.0548 33.2779C54.0548 33.2535 54.0548 33.2291 54.0548 33.2047C54.0548 33.0256 54.1122 32.871 54.2271 32.7408C54.3462 32.6066 54.5057 32.5048 54.7057 32.4357C54.9099 32.3624 55.1417 32.3258 55.4013 32.3258H55.4906C55.9203 32.3258 56.2393 32.4072 56.4478 32.5699C56.6605 32.7327 56.7668 32.9666 56.7668 33.2718V34.9257C56.7668 34.9989 56.7839 35.0518 56.8179 35.0844C56.8519 35.1169 56.8923 35.1332 56.9391 35.1332C56.9859 35.1332 57.0349 35.1251 57.0859 35.1088C57.1412 35.0925 57.1901 35.0722 57.2327 35.0478V35.4384C57.1774 35.4791 57.1093 35.5096 57.0285 35.5299C56.9477 35.5543 56.8519 35.5665 56.7413 35.5665C56.6052 35.5665 56.4946 35.5421 56.4095 35.4933C56.3287 35.4404 56.2691 35.3712 56.2308 35.2858C56.1925 35.2003 56.1691 35.1047 56.1606 34.9989C56.0373 35.182 55.8756 35.3224 55.6756 35.4201C55.48 35.5177 55.2502 35.5665 54.9865 35.5665ZM55.2417 35.1332C55.3906 35.1332 55.5331 35.1027 55.6693 35.0417C55.8054 34.9766 55.916 34.8789 56.0011 34.7487C56.0904 34.6185 56.1351 34.4558 56.1351 34.2605V34.0286C55.816 34.0286 55.5416 34.0448 55.3119 34.0774C55.0822 34.1059 54.9056 34.1628 54.7823 34.2483C54.6631 34.3337 54.6036 34.4659 54.6036 34.645C54.6036 34.8159 54.6568 34.94 54.7631 35.0173C54.8695 35.0946 55.029 35.1332 55.2417 35.1332Z" fill="#5C6368"/>
<path d="M59.0935 35.5665C58.8681 35.5665 58.6724 35.5401 58.5065 35.4872C58.3405 35.4343 58.2023 35.3651 58.0917 35.2797C57.9811 35.1902 57.8981 35.0925 57.8428 34.9867C57.7875 34.8769 57.7598 34.7691 57.7598 34.6633C57.7598 34.6389 57.7598 34.6185 57.7598 34.6023C57.7598 34.5819 57.762 34.5575 57.7662 34.529H58.3278C58.3235 34.5412 58.3214 34.5534 58.3214 34.5656C58.3214 34.5738 58.3214 34.5839 58.3214 34.5961C58.3214 34.7141 58.3597 34.8138 58.4363 34.8952C58.5171 34.9725 58.6234 35.0315 58.7553 35.0722C58.8915 35.1129 59.0446 35.1332 59.2148 35.1332C59.3594 35.1332 59.4913 35.1149 59.6104 35.0783C59.7338 35.0417 59.8295 34.9888 59.8976 34.9196C59.9699 34.8464 60.0061 34.7609 60.0061 34.6633C60.0061 34.5494 59.9678 34.4619 59.8912 34.4009C59.8146 34.3358 59.7125 34.2869 59.5849 34.2544C59.4573 34.2178 59.3169 34.1872 59.1637 34.1628C59.0148 34.1344 58.8617 34.1038 58.7043 34.0713C58.5511 34.0347 58.4107 33.9858 58.2831 33.9248C58.1555 33.8638 58.0534 33.7804 57.9768 33.6746C57.9002 33.5647 57.8619 33.4203 57.8619 33.2413C57.8619 33.1029 57.8938 32.9768 57.9577 32.8629C58.0215 32.749 58.1129 32.6534 58.2321 32.576C58.3512 32.4947 58.4916 32.4336 58.6532 32.393C58.8191 32.3482 58.9999 32.3258 59.1956 32.3258H59.2786C59.4658 32.3258 59.6359 32.3502 59.7891 32.3991C59.9422 32.4438 60.0741 32.5069 60.1847 32.5883C60.2953 32.6656 60.3783 32.7551 60.4336 32.8568C60.4932 32.9544 60.5229 33.0582 60.5229 33.168C60.5229 33.1884 60.5208 33.2108 60.5166 33.2352C60.5166 33.2555 60.5166 33.2698 60.5166 33.2779H59.955V33.2108C59.955 33.1701 59.9444 33.1253 59.9231 33.0765C59.9061 33.0236 59.8678 32.9748 59.8082 32.93C59.7529 32.8812 59.6742 32.8405 59.5721 32.808C59.4743 32.7754 59.3467 32.7591 59.1893 32.7591C59.0404 32.7591 58.917 32.7734 58.8191 32.8019C58.7213 32.8303 58.6447 32.867 58.5894 32.9117C58.5384 32.9565 58.5022 33.0033 58.4809 33.0521C58.4597 33.1009 58.449 33.1457 58.449 33.1864C58.449 33.284 58.4873 33.3633 58.5639 33.4244C58.6405 33.4813 58.7426 33.5261 58.8702 33.5586C58.9978 33.5912 59.1382 33.6197 59.2914 33.6441C59.4488 33.6685 59.604 33.699 59.7572 33.7356C59.9103 33.7682 60.0507 33.817 60.1784 33.8821C60.306 33.9431 60.4081 34.0286 60.4847 34.1384C60.5612 34.2483 60.5995 34.3907 60.5995 34.5656C60.5995 34.7487 60.5634 34.9054 60.491 35.0356C60.4187 35.1617 60.3187 35.2634 60.1911 35.3407C60.0635 35.418 59.9167 35.475 59.7508 35.5116C59.5849 35.5482 59.4083 35.5665 59.2212 35.5665H59.0935Z" fill="#5C6368"/>
<path d="M61.7293 36.6407C61.6357 36.6407 61.5506 36.6325 61.474 36.6162C61.3974 36.604 61.323 36.5837 61.2507 36.5552V36.0792C61.2975 36.0955 61.357 36.1117 61.4293 36.128C61.5017 36.1443 61.5719 36.1524 61.6399 36.1524C61.7505 36.1524 61.842 36.13 61.9143 36.0853C61.9866 36.0446 62.0526 35.9734 62.1121 35.8717C62.176 35.77 62.2398 35.6316 62.3036 35.4567L61.0273 32.3869H61.7101L62.6163 34.6938H62.6482L63.5352 32.3869H64.1669L62.9417 35.3773C62.8481 35.6092 62.7481 35.8208 62.6418 36.012C62.5397 36.2033 62.4163 36.3559 62.2717 36.4698C62.127 36.5837 61.9462 36.6407 61.7293 36.6407Z" fill="#5C6368"/>
<path d="M66.3935 35.5055V32.8629H66.0234V32.3869H66.3935V31.8193C66.3935 31.5548 66.4701 31.3636 66.6233 31.2456C66.7807 31.1235 66.9785 31.0625 67.2167 31.0625C67.2763 31.0625 67.3401 31.0686 67.4082 31.0808C67.4805 31.0889 67.5507 31.1012 67.6188 31.1174C67.6868 31.1337 67.7443 31.152 67.791 31.1724V31.5813C67.74 31.5609 67.6719 31.5426 67.5868 31.5263C67.506 31.506 67.4422 31.4958 67.3954 31.4958C67.3401 31.4958 67.2827 31.506 67.2231 31.5263C67.1678 31.5426 67.121 31.5772 67.0827 31.6301C67.0487 31.683 67.0317 31.7684 67.0317 31.8864V32.3869H67.791V32.8629H67.0317V35.5055H66.3935Z" fill="#5C6368"/>
<path d="M69.8735 35.5665C69.5927 35.5665 69.3396 35.5035 69.1141 35.3773C68.8929 35.2512 68.7185 35.0701 68.5909 34.8342C68.4632 34.5982 68.3994 34.3195 68.3994 33.9981V33.8943C68.3994 33.5647 68.4632 33.284 68.5909 33.0521C68.7185 32.8161 68.8929 32.6371 69.1141 32.515C69.3396 32.3889 69.5927 32.3258 69.8735 32.3258H69.9565C70.2415 32.3258 70.4946 32.3889 70.7158 32.515C70.9371 32.6411 71.1115 32.8222 71.2391 33.0582C71.3667 33.2901 71.4305 33.5688 71.4305 33.8943V33.9981C71.4305 34.3195 71.3667 34.5982 71.2391 34.8342C71.1115 35.0701 70.9349 35.2512 70.7095 35.3773C70.4882 35.5035 70.2372 35.5665 69.9565 35.5665H69.8735ZM69.9118 35.1332C70.0734 35.1332 70.2181 35.0966 70.3457 35.0234C70.4733 34.9501 70.5754 34.8403 70.652 34.6938C70.7286 34.5473 70.7669 34.3663 70.7669 34.1506V33.7417C70.7669 33.522 70.7286 33.341 70.652 33.1986C70.5754 33.0521 70.4733 32.9422 70.3457 32.869C70.2181 32.7958 70.0734 32.7591 69.9118 32.7591C69.7544 32.7591 69.6119 32.7958 69.4842 32.869C69.3566 32.9422 69.2545 33.0521 69.1779 33.1986C69.1014 33.341 69.0631 33.522 69.0631 33.7417V34.1506C69.0631 34.3663 69.1014 34.5473 69.1779 34.6938C69.2545 34.8403 69.3566 34.9501 69.4842 35.0234C69.6119 35.0966 69.7544 35.1332 69.9118 35.1332Z" fill="#5C6368"/>
<path d="M72.2979 35.5055V32.3869H72.7701L72.8595 32.8446C72.8638 32.8364 72.8828 32.8059 72.9168 32.753C72.9509 32.7001 73.002 32.6411 73.0701 32.576C73.1424 32.5069 73.2339 32.4479 73.3445 32.3991C73.4593 32.3502 73.5996 32.3258 73.7656 32.3258C73.991 32.3258 74.1761 32.3706 74.3207 32.4601C74.4696 32.5455 74.5781 32.6635 74.6462 32.8141C74.7185 32.9646 74.7547 33.1355 74.7547 33.3267C74.7547 33.3674 74.7526 33.4101 74.7484 33.4549C74.7441 33.4956 74.742 33.5281 74.742 33.5525H74.1932V33.4366C74.1932 33.3471 74.174 33.2535 74.1357 33.1558C74.1016 33.0541 74.0401 32.9707 73.9507 32.9056C73.8614 32.8364 73.7359 32.8019 73.5742 32.8019C73.4551 32.8019 73.353 32.8263 73.2679 32.8751C73.1871 32.9239 73.1211 32.985 73.0701 33.0582C73.0233 33.1314 72.9892 33.2087 72.9679 33.2901C72.9466 33.3715 72.9361 33.4467 72.9361 33.5159V35.5055H72.2979Z" fill="#5C6368"/>
<path d="M78.4413 35.5665C77.9521 35.5665 77.5841 35.3794 77.3373 35.005L77.114 35.5055H76.8779V31.1113H77.516V32.7836C77.6053 32.6574 77.733 32.5496 77.8989 32.4601C78.0691 32.3706 78.2669 32.3258 78.4923 32.3258C78.7263 32.3258 78.939 32.3787 79.1305 32.4845C79.3262 32.5903 79.4815 32.753 79.5963 32.9727C79.7112 33.1925 79.7686 33.4712 79.7686 33.8089V33.9309C79.7686 34.3093 79.7069 34.6206 79.5836 34.8647C79.4644 35.1047 79.3049 35.2817 79.105 35.3956C78.905 35.5096 78.6838 35.5665 78.4413 35.5665ZM78.3201 35.1332C78.4689 35.1332 78.6008 35.0986 78.7157 35.0295C78.8348 34.9603 78.9284 34.8484 78.9965 34.6938C79.0688 34.5392 79.105 34.3358 79.105 34.0835V33.7417C79.105 33.522 79.0709 33.341 79.0029 33.1986C78.9348 33.0521 78.8433 32.9443 78.7285 32.8751C78.6136 32.8019 78.4817 32.7652 78.3328 32.7652C78.1882 32.7652 78.052 32.8019 77.9244 32.8751C77.801 32.9443 77.7011 33.0521 77.6245 33.1986C77.5479 33.341 77.5096 33.5241 77.5096 33.7478V34.0896C77.5096 34.3459 77.5458 34.5514 77.6181 34.706C77.6947 34.8565 77.7925 34.9664 77.9117 35.0356C78.035 35.1007 78.1712 35.1332 78.3201 35.1332Z" fill="#5C6368"/>
<path d="M81.7075 35.5665C81.3714 35.5665 81.1034 35.4791 80.9034 35.3041C80.7035 35.1251 80.6035 34.8504 80.6035 34.4802V32.3869H81.2416V34.3337C81.2416 34.6063 81.2991 34.8016 81.4139 34.9196C81.5288 35.0335 81.6968 35.0905 81.9181 35.0905C82.067 35.0905 82.2031 35.0579 82.3265 34.9928C82.4541 34.9237 82.5562 34.8301 82.6328 34.7121C82.7093 34.5941 82.7476 34.4619 82.7476 34.3154V32.3869H83.3858V34.9257C83.3858 34.9989 83.4028 35.0518 83.4368 35.0844C83.4751 35.1169 83.5176 35.1332 83.5644 35.1332C83.6112 35.1332 83.6602 35.1251 83.7112 35.1088C83.7623 35.0925 83.8091 35.0722 83.8516 35.0478V35.4384C83.7963 35.4791 83.7282 35.5096 83.6474 35.5299C83.5666 35.5543 83.473 35.5665 83.3666 35.5665C83.2305 35.5665 83.122 35.5421 83.0412 35.4933C82.9603 35.4445 82.9008 35.3814 82.8625 35.3041C82.8242 35.2227 82.7966 35.1373 82.7795 35.0478C82.6732 35.2105 82.5222 35.3387 82.3265 35.4323C82.1308 35.5218 81.9244 35.5665 81.7075 35.5665Z" fill="#5C6368"/>
<path d="M85.7282 35.5665C85.5027 35.5665 85.307 35.5401 85.1411 35.4872C84.9752 35.4343 84.8369 35.3651 84.7263 35.2797C84.6157 35.1902 84.5328 35.0925 84.4775 34.9867C84.4222 34.8769 84.3945 34.7691 84.3945 34.6633C84.3945 34.6389 84.3945 34.6185 84.3945 34.6023C84.3945 34.5819 84.3966 34.5575 84.4009 34.529H84.9624C84.9582 34.5412 84.9561 34.5534 84.9561 34.5656C84.9561 34.5738 84.9561 34.5839 84.9561 34.5961C84.9561 34.7141 84.9943 34.8138 85.0709 34.8952C85.1518 34.9725 85.2581 35.0315 85.39 35.0722C85.5261 35.1129 85.6793 35.1332 85.8494 35.1332C85.9941 35.1332 86.126 35.1149 86.2451 35.0783C86.3685 35.0417 86.4642 34.9888 86.5322 34.9196C86.6046 34.8464 86.6407 34.7609 86.6407 34.6633C86.6407 34.5494 86.6024 34.4619 86.5259 34.4009C86.4493 34.3358 86.3472 34.2869 86.2196 34.2544C86.0919 34.2178 85.9515 34.1872 85.7984 34.1628C85.6495 34.1344 85.4963 34.1038 85.3389 34.0713C85.1858 34.0347 85.0454 33.9858 84.9178 33.9248C84.7901 33.8638 84.688 33.7804 84.6115 33.6746C84.5349 33.5647 84.4966 33.4203 84.4966 33.2413C84.4966 33.1029 84.5285 32.9768 84.5923 32.8629C84.6561 32.749 84.7476 32.6534 84.8667 32.576C84.9858 32.4947 85.1262 32.4336 85.2879 32.393C85.4538 32.3482 85.6346 32.3258 85.8303 32.3258H85.9133C86.1004 32.3258 86.2706 32.3502 86.4238 32.3991C86.5769 32.4438 86.7088 32.5069 86.8194 32.5883C86.93 32.6656 87.013 32.7551 87.0683 32.8568C87.1278 32.9544 87.1576 33.0582 87.1576 33.168C87.1576 33.1884 87.1555 33.2108 87.1512 33.2352C87.1512 33.2555 87.1512 33.2698 87.1512 33.2779H86.5897V33.2108C86.5897 33.1701 86.579 33.1253 86.5578 33.0765C86.5408 33.0236 86.5025 32.9748 86.4429 32.93C86.3876 32.8812 86.3089 32.8405 86.2068 32.808C86.109 32.7754 85.9813 32.7591 85.8239 32.7591C85.675 32.7591 85.5516 32.7734 85.4538 32.8019C85.356 32.8303 85.2794 32.867 85.2241 32.9117C85.173 32.9565 85.1369 33.0033 85.1156 33.0521C85.0943 33.1009 85.0837 33.1457 85.0837 33.1864C85.0837 33.284 85.122 33.3633 85.1985 33.4244C85.2751 33.4813 85.3772 33.5261 85.5049 33.5586C85.6325 33.5912 85.7729 33.6197 85.926 33.6441C86.0834 33.6685 86.2387 33.699 86.3919 33.7356C86.545 33.7682 86.6854 33.817 86.813 33.8821C86.9406 33.9431 87.0427 34.0286 87.1193 34.1384C87.1959 34.2483 87.2342 34.3907 87.2342 34.5656C87.2342 34.7487 87.198 34.9054 87.1257 35.0356C87.0534 35.1617 86.9534 35.2634 86.8258 35.3407C86.6982 35.418 86.5514 35.475 86.3855 35.5116C86.2196 35.5482 86.043 35.5665 85.8558 35.5665H85.7282Z" fill="#5C6368"/>
<path d="M88.109 35.5055V32.3869H88.7471V35.5055H88.109ZM88.0898 31.624V31.1113H88.7663V31.624H88.0898Z" fill="#5C6368"/>
<path d="M89.8086 35.5055V32.3869H90.2681L90.3574 32.8446C90.4766 32.6737 90.6297 32.5455 90.8169 32.4601C91.0083 32.3706 91.2147 32.3258 91.4359 32.3258C91.6613 32.3258 91.8592 32.3665 92.0293 32.4479C92.2038 32.5293 92.3399 32.6513 92.4377 32.8141C92.5356 32.9727 92.5845 33.1721 92.5845 33.4122V35.5055H91.9464V33.5159C91.9464 33.2596 91.8847 33.0765 91.7613 32.9666C91.6379 32.8527 91.4635 32.7958 91.2381 32.7958C91.0934 32.7958 90.9594 32.8303 90.836 32.8995C90.7169 32.9687 90.6212 33.0623 90.5489 33.1802C90.4808 33.2942 90.4468 33.4264 90.4468 33.5769V35.5055H89.8086Z" fill="#5C6368"/>
<path d="M94.9183 35.5665C94.629 35.5665 94.3738 35.5075 94.1526 35.3895C93.9356 35.2675 93.7654 35.0905 93.6421 34.8586C93.5187 34.6226 93.457 34.3398 93.457 34.0103V33.8821C93.457 33.5485 93.5208 33.2657 93.6484 33.0338C93.7803 32.8019 93.959 32.6269 94.1845 32.5089C94.41 32.3869 94.6673 32.3258 94.9566 32.3258H95.0268C95.2906 32.3258 95.5246 32.3787 95.7288 32.4845C95.933 32.5903 96.0904 32.7408 96.201 32.9361C96.3158 33.1314 96.3733 33.3633 96.3733 33.6319V34.0225H94.1207C94.1207 34.2544 94.1526 34.4537 94.2164 34.6206C94.2844 34.7874 94.3802 34.9155 94.5035 35.005C94.6312 35.0905 94.7864 35.1332 94.9694 35.1332C95.1225 35.1332 95.2587 35.1047 95.3778 35.0478C95.4969 34.9908 95.5926 34.9033 95.6649 34.7853C95.7373 34.6673 95.7734 34.5209 95.7734 34.3459H96.3733C96.3733 34.5941 96.3116 34.8098 96.1882 34.9928C96.0648 35.1759 95.8968 35.3183 95.6841 35.4201C95.4756 35.5177 95.2395 35.5665 94.9758 35.5665H94.9183ZM94.127 33.6563H95.7479C95.7479 33.3511 95.6777 33.1253 95.5373 32.9788C95.4012 32.8324 95.2097 32.7591 94.963 32.7591C94.7375 32.7591 94.544 32.8344 94.3823 32.985C94.2249 33.1355 94.1398 33.3593 94.127 33.6563Z" fill="#5C6368"/>
<path d="M98.3786 35.5665C98.1532 35.5665 97.9575 35.5401 97.7916 35.4872C97.6256 35.4343 97.4874 35.3651 97.3768 35.2797C97.2662 35.1902 97.1832 35.0925 97.1279 34.9867C97.0726 34.8769 97.0449 34.7691 97.0449 34.6633C97.0449 34.6389 97.0449 34.6185 97.0449 34.6023C97.0449 34.5819 97.0471 34.5575 97.0513 34.529H97.6129C97.6086 34.5412 97.6065 34.5534 97.6065 34.5656C97.6065 34.5738 97.6065 34.5839 97.6065 34.5961C97.6065 34.7141 97.6448 34.8138 97.7214 34.8952C97.8022 34.9725 97.9085 35.0315 98.0404 35.0722C98.1766 35.1129 98.3297 35.1332 98.4999 35.1332C98.6445 35.1332 98.7764 35.1149 98.8955 35.0783C99.0189 35.0417 99.1146 34.9888 99.1827 34.9196C99.255 34.8464 99.2912 34.7609 99.2912 34.6633C99.2912 34.5494 99.2529 34.4619 99.1763 34.4009C99.0997 34.3358 98.9976 34.2869 98.87 34.2544C98.7424 34.2178 98.602 34.1872 98.4488 34.1628C98.2999 34.1344 98.1468 34.1038 97.9894 34.0713C97.8362 34.0347 97.6958 33.9858 97.5682 33.9248C97.4406 33.8638 97.3385 33.7804 97.2619 33.6746C97.1853 33.5647 97.147 33.4203 97.147 33.2413C97.147 33.1029 97.1789 32.9768 97.2428 32.8629C97.3066 32.749 97.398 32.6534 97.5172 32.576C97.6363 32.4947 97.7767 32.4336 97.9383 32.393C98.1042 32.3482 98.285 32.3258 98.4807 32.3258H98.5637C98.7509 32.3258 98.921 32.3502 99.0742 32.3991C99.2273 32.4438 99.3592 32.5069 99.4698 32.5883C99.5804 32.6656 99.6634 32.7551 99.7187 32.8568C99.7783 32.9544 99.8081 33.0582 99.8081 33.168C99.8081 33.1884 99.8059 33.2108 99.8017 33.2352C99.8017 33.2555 99.8017 33.2698 99.8017 33.2779H99.2401V33.2108C99.2401 33.1701 99.2295 33.1253 99.2082 33.0765C99.1912 33.0236 99.1529 32.9748 99.0933 32.93C99.038 32.8812 98.9593 32.8405 98.8572 32.808C98.7594 32.7754 98.6318 32.7591 98.4744 32.7591C98.3255 32.7591 98.2021 32.7734 98.1042 32.8019C98.0064 32.8303 97.9298 32.867 97.8745 32.9117C97.8235 32.9565 97.7873 33.0033 97.766 33.0521C97.7448 33.1009 97.7341 33.1457 97.7341 33.1864C97.7341 33.284 97.7724 33.3633 97.849 33.4244C97.9256 33.4813 98.0277 33.5261 98.1553 33.5586C98.2829 33.5912 98.4233 33.6197 98.5765 33.6441C98.7339 33.6685 98.8891 33.699 99.0423 33.7356C99.1954 33.7682 99.3358 33.817 99.4635 33.8821C99.5911 33.9431 99.6932 34.0286 99.7698 34.1384C99.8463 34.2483 99.8846 34.3907 99.8846 34.5656C99.8846 34.7487 99.8485 34.9054 99.7761 35.0356C99.7038 35.1617 99.6038 35.2634 99.4762 35.3407C99.3486 35.418 99.2018 35.475 99.0359 35.5116C98.87 35.5482 98.6934 35.5665 98.5063 35.5665H98.3786Z" fill="#5C6368"/>
<path d="M101.837 35.5665C101.612 35.5665 101.416 35.5401 101.25 35.4872C101.084 35.4343 100.946 35.3651 100.836 35.2797C100.725 35.1902 100.642 35.0925 100.587 34.9867C100.531 34.8769 100.504 34.7691 100.504 34.6633C100.504 34.6389 100.504 34.6185 100.504 34.6023C100.504 34.5819 100.506 34.5575 100.51 34.529H101.072C101.067 34.5412 101.065 34.5534 101.065 34.5656C101.065 34.5738 101.065 34.5839 101.065 34.5961C101.065 34.7141 101.104 34.8138 101.18 34.8952C101.261 34.9725 101.367 35.0315 101.499 35.0722C101.635 35.1129 101.789 35.1332 101.959 35.1332C102.103 35.1332 102.235 35.1149 102.354 35.0783C102.478 35.0417 102.573 34.9888 102.642 34.9196C102.714 34.8464 102.75 34.7609 102.75 34.6633C102.75 34.5494 102.712 34.4619 102.635 34.4009C102.559 34.3358 102.456 34.2869 102.329 34.2544C102.201 34.2178 102.061 34.1872 101.908 34.1628C101.759 34.1344 101.606 34.1038 101.448 34.0713C101.295 34.0347 101.155 33.9858 101.027 33.9248C100.899 33.8638 100.797 33.7804 100.721 33.6746C100.644 33.5647 100.606 33.4203 100.606 33.2413C100.606 33.1029 100.638 32.9768 100.702 32.8629C100.765 32.749 100.857 32.6534 100.976 32.576C101.095 32.4947 101.235 32.4336 101.397 32.393C101.563 32.3482 101.744 32.3258 101.94 32.3258H102.023C102.21 32.3258 102.38 32.3502 102.533 32.3991C102.686 32.4438 102.818 32.5069 102.929 32.5883C103.039 32.6656 103.122 32.7551 103.178 32.8568C103.237 32.9544 103.267 33.0582 103.267 33.168C103.267 33.1884 103.265 33.2108 103.26 33.2352C103.26 33.2555 103.26 33.2698 103.26 33.2779H102.699V33.2108C102.699 33.1701 102.688 33.1253 102.667 33.0765C102.65 33.0236 102.612 32.9748 102.552 32.93C102.497 32.8812 102.418 32.8405 102.316 32.808C102.218 32.7754 102.091 32.7591 101.933 32.7591C101.784 32.7591 101.661 32.7734 101.563 32.8019C101.465 32.8303 101.389 32.867 101.333 32.9117C101.282 32.9565 101.246 33.0033 101.225 33.0521C101.204 33.1009 101.193 33.1457 101.193 33.1864C101.193 33.284 101.231 33.3633 101.308 33.4244C101.384 33.4813 101.486 33.5261 101.614 33.5586C101.742 33.5912 101.882 33.6197 102.035 33.6441C102.193 33.6685 102.348 33.699 102.501 33.7356C102.654 33.7682 102.795 33.817 102.922 33.8821C103.05 33.9431 103.152 34.0286 103.229 34.1384C103.305 34.2483 103.343 34.3907 103.343 34.5656C103.343 34.7487 103.307 34.9054 103.235 35.0356C103.163 35.1617 103.063 35.2634 102.935 35.3407C102.807 35.418 102.661 35.475 102.495 35.5116C102.329 35.5482 102.152 35.5665 101.965 35.5665H101.837Z" fill="#5C6368"/>
</svg>
