<svg width="120" height="33" viewBox="0 0 120 33" fill="none" xmlns="http://www.w3.org/2000/svg">
<g clip-path="url(#clip0_14405_3920)">
<rect width="120" height="33" fill="#5C6368"/>
<mask id="mask0_14405_3920" style="mask-type:luminance" maskUnits="userSpaceOnUse" x="0" y="0" width="120" height="33">
<path d="M120 0H0V33H120V0Z" fill="white"/>
</mask>
<g mask="url(#mask0_14405_3920)">
<path d="M0 31.9922V27.2326H0.707734V31.9922H0Z" fill="#5C6368"/>
<path d="M3.17513 31.9922V27.8242H1.47656V27.2326H5.57435V27.8242H3.87578V31.9922H3.17513Z" fill="#5C6368"/>
<path d="M6.17016 28.8033L6.52402 27.423L6.61603 27.8174C6.4792 27.8174 6.3636 27.7766 6.26924 27.695C6.17959 27.6134 6.13477 27.5046 6.13477 27.3686C6.13477 27.2281 6.17959 27.117 6.26924 27.0354C6.3636 26.9493 6.47684 26.9062 6.60895 26.9062C6.74578 26.9062 6.85666 26.9516 6.94159 27.0422C7.02652 27.1284 7.06898 27.2372 7.06898 27.3686C7.06898 27.4094 7.06662 27.4525 7.0619 27.4978C7.05718 27.5386 7.04539 27.5862 7.02652 27.6406C7.01236 27.695 6.98877 27.7652 6.95574 27.8514L6.61603 28.8033H6.17016Z" fill="#5C6368"/>
<path d="M9.65454 32.0466C9.27708 32.0466 8.91614 31.9922 8.57171 31.8834C8.22728 31.7701 7.95598 31.6251 7.75781 31.4483L8.01968 30.9179C8.2084 31.0766 8.44903 31.208 8.74156 31.3123C9.03409 31.4166 9.33842 31.4687 9.65454 31.4687C9.94235 31.4687 10.1759 31.437 10.3552 31.3735C10.5345 31.31 10.6666 31.2239 10.7515 31.1151C10.8364 31.0018 10.8789 30.8749 10.8789 30.7343C10.8789 30.5712 10.8223 30.4397 10.709 30.34C10.6005 30.2402 10.4566 30.1609 10.2773 30.102C10.1027 30.0385 9.90933 29.9841 9.69701 29.9388C9.48469 29.8935 9.27001 29.8413 9.05297 29.7824C8.84065 29.719 8.64484 29.6396 8.46555 29.5444C8.29097 29.4492 8.14943 29.3223 8.04091 29.1637C7.93239 29.0005 7.87813 28.792 7.87813 28.5381C7.87813 28.2933 7.94418 28.069 8.07629 27.865C8.21312 27.6565 8.42072 27.491 8.6991 27.3686C8.98219 27.2417 9.34078 27.1782 9.77486 27.1782C10.0626 27.1782 10.3481 27.2145 10.6312 27.287C10.9143 27.3595 11.1596 27.4638 11.3672 27.5998L11.1337 28.1438C10.9213 28.0078 10.6972 27.9103 10.4613 27.8514C10.2254 27.7879 9.99661 27.7562 9.77486 27.7562C9.49648 27.7562 9.26765 27.7902 9.08835 27.8582C8.90906 27.9262 8.77695 28.0168 8.69202 28.1302C8.61181 28.2435 8.57171 28.3704 8.57171 28.5109C8.57171 28.6786 8.62597 28.8124 8.73449 28.9121C8.84772 29.0118 8.99163 29.0911 9.1662 29.1501C9.3455 29.209 9.5413 29.2634 9.75362 29.3133C9.96595 29.3586 10.1782 29.4107 10.3905 29.4696C10.6076 29.5286 10.8034 29.6056 10.978 29.7008C11.1573 29.796 11.3012 29.9229 11.4097 30.0816C11.5182 30.2402 11.5725 30.4442 11.5725 30.6935C11.5725 30.9338 11.504 31.1582 11.3672 31.3667C11.2304 31.5707 11.0181 31.7361 10.7303 31.863C10.4472 31.9854 10.0886 32.0466 9.65454 32.0466Z" fill="#5C6368"/>
<path d="M15.4905 31.9922V27.8242H13.792V27.2326H17.8897V27.8242H16.1912V31.9922H15.4905Z" fill="#5C6368"/>
<path d="M22.2139 31.9922V27.2326H22.9216V31.9922H22.2139ZM18.6611 31.9922V27.2326H19.3688V31.9922H18.6611ZM19.298 29.8708V29.2793H22.2776V29.8708H19.298Z" fill="#5C6368"/>
<path d="M24.4043 31.9922V27.2326H27.9005V27.8242H25.112V31.4007H27.9996V31.9922H24.4043ZM25.0483 29.864V29.2861H27.5962V29.864H25.0483Z" fill="#5C6368"/>
<path d="M30.2959 31.9922L32.5394 27.2326H33.2401L35.4907 31.9922H34.7476L32.7447 27.6134H33.0278L31.0249 31.9922H30.2959ZM31.2514 30.8023L31.4424 30.2584H34.2309L34.4362 30.8023H31.2514Z" fill="#5C6368"/>
<path d="M36.2295 31.9922V27.2326H38.1616C38.8033 27.2326 39.3082 27.3799 39.6762 27.6746C40.0442 27.9647 40.2282 28.3704 40.2282 28.8917C40.2282 29.2362 40.1456 29.5331 39.9805 29.7824C39.8154 30.0272 39.5795 30.2153 39.2728 30.3468C38.9661 30.4782 38.5957 30.544 38.1616 30.544H36.6188L36.9372 30.2312V31.9922H36.2295ZM39.5417 31.9922L38.2819 30.2652H39.0392L40.3131 31.9922H39.5417ZM36.9372 30.2992L36.6188 29.966H38.1404C38.5933 29.966 38.9354 29.8731 39.1666 29.6872C39.4025 29.4968 39.5205 29.2317 39.5205 28.8917C39.5205 28.5517 39.4025 28.2888 39.1666 28.103C38.9354 27.9171 38.5933 27.8242 38.1404 27.8242H36.6188L36.9372 27.4842V30.2992Z" fill="#5C6368"/>
<path d="M42.2865 31.9922V27.8242H40.5879V27.2326H44.6857V27.8242H42.9871V31.9922H42.2865Z" fill="#5C6368"/>
<path d="M44.8606 32.9986L45.2145 31.6251L45.3065 32.0194C45.1697 32.0194 45.0541 31.9786 44.9597 31.897C44.8701 31.8155 44.8252 31.7044 44.8252 31.5639C44.8252 31.4279 44.8701 31.3168 44.9597 31.2307C45.0541 31.1446 45.1673 31.1015 45.2994 31.1015C45.4362 31.1015 45.5471 31.1468 45.6321 31.2375C45.717 31.3236 45.7594 31.4324 45.7594 31.5639C45.7594 31.6092 45.7547 31.6545 45.7453 31.6999C45.7406 31.7407 45.7288 31.7905 45.7099 31.8495C45.6958 31.9038 45.6722 31.9718 45.6391 32.0534L45.3065 32.9986H44.8606Z" fill="#5C6368"/>
<path d="M48.7324 31.9922V27.2326H49.3127L52.5895 31.1423H52.2852V27.2326H52.9929V31.9922H52.4126L49.1358 28.0826H49.4401V31.9922H48.7324Z" fill="#5C6368"/>
<path d="M56.713 32.0466C56.3356 32.0466 55.9841 31.9854 55.6585 31.863C55.3377 31.7407 55.0593 31.5707 54.8234 31.3531C54.5875 31.131 54.4035 30.8726 54.2713 30.578C54.1392 30.2833 54.0732 29.9615 54.0732 29.6124C54.0732 29.2634 54.1392 28.9416 54.2713 28.6469C54.4035 28.3523 54.5875 28.0962 54.8234 27.8786C55.0593 27.6565 55.3377 27.4842 55.6585 27.3618C55.9793 27.2394 56.3309 27.1782 56.713 27.1782C57.0905 27.1782 57.4373 27.2394 57.7534 27.3618C58.0742 27.4797 58.3526 27.6497 58.5885 27.8718C58.8292 28.0894 59.0132 28.3455 59.1406 28.6401C59.2727 28.9348 59.3387 29.2589 59.3387 29.6124C59.3387 29.966 59.2727 30.2901 59.1406 30.5848C59.0132 30.8794 58.8292 31.1378 58.5885 31.3599C58.3526 31.5775 58.0742 31.7475 57.7534 31.8698C57.4373 31.9877 57.0905 32.0466 56.713 32.0466ZM56.713 31.4415C56.9867 31.4415 57.2391 31.3962 57.4703 31.3055C57.7062 31.2148 57.9091 31.0879 58.079 30.9247C58.2535 30.757 58.388 30.5621 58.4824 30.34C58.5814 30.1179 58.631 29.8753 58.631 29.6124C58.631 29.3495 58.5814 29.107 58.4824 28.8849C58.388 28.6628 58.2535 28.4701 58.079 28.3069C57.9091 28.1392 57.7062 28.01 57.4703 27.9194C57.2391 27.8287 56.9867 27.7834 56.713 27.7834C56.4347 27.7834 56.1775 27.8287 55.9416 27.9194C55.7104 28.01 55.5075 28.1392 55.333 28.3069C55.1584 28.4701 55.0215 28.6628 54.9225 28.8849C54.8281 29.107 54.7809 29.3495 54.7809 29.6124C54.7809 29.8753 54.8281 30.1179 54.9225 30.34C55.0215 30.5621 55.1584 30.757 55.333 30.9247C55.5075 31.0879 55.7104 31.2148 55.9416 31.3055C56.1775 31.3962 56.4347 31.4415 56.713 31.4415Z" fill="#5C6368"/>
<path d="M61.3343 31.9922V27.8242H59.6357V27.2326H63.7335V27.8242H62.0349V31.9922H61.3343Z" fill="#5C6368"/>
<path d="M67.0423 32.0466C66.7498 32.0466 66.4762 31.9877 66.2214 31.8698C65.9666 31.752 65.759 31.582 65.5986 31.3599L66.0091 30.8975C66.1459 31.0788 66.2992 31.2194 66.4691 31.3191C66.6437 31.4143 66.8347 31.4619 67.0423 31.4619C67.6085 31.4619 67.8916 31.14 67.8916 30.4964V27.8242H66.1011V27.2326H68.5923V30.4624C68.5923 30.9927 68.4602 31.3894 68.1959 31.6523C67.9364 31.9152 67.5519 32.0466 67.0423 32.0466Z" fill="#5C6368"/>
<path d="M72.0861 32.0466C71.435 32.0466 70.9231 31.8676 70.5504 31.5095C70.1776 31.1514 69.9912 30.6278 69.9912 29.9388V27.2326H70.699V29.9116C70.699 30.442 70.8193 30.8295 71.0599 31.0743C71.3053 31.3191 71.6497 31.4415 72.0932 31.4415C72.5414 31.4415 72.8859 31.3191 73.1265 31.0743C73.3718 30.8295 73.4945 30.442 73.4945 29.9116V27.2326H74.181V29.9388C74.181 30.6278 73.9947 31.1514 73.6219 31.5095C73.2539 31.8676 72.742 32.0466 72.0861 32.0466Z" fill="#5C6368"/>
<path d="M77.0765 32.0466C76.699 32.0466 76.3381 31.9922 75.9936 31.8834C75.6492 31.7701 75.3779 31.6251 75.1797 31.4483L75.4416 30.9179C75.6303 31.0766 75.871 31.208 76.1635 31.3123C76.456 31.4166 76.7603 31.4687 77.0765 31.4687C77.3643 31.4687 77.5978 31.437 77.7771 31.3735C77.9564 31.31 78.0885 31.2239 78.1735 31.1151C78.2584 31.0018 78.3009 30.8749 78.3009 30.7343C78.3009 30.5712 78.2442 30.4397 78.131 30.34C78.0225 30.2402 77.8786 30.1609 77.6993 30.102C77.5247 30.0385 77.3313 29.9841 77.1189 29.9388C76.9066 29.8935 76.6919 29.8413 76.4749 29.7824C76.2626 29.719 76.0668 29.6396 75.8875 29.5444C75.7129 29.4492 75.5714 29.3223 75.4628 29.1637C75.3543 29.0005 75.3001 28.792 75.3001 28.5381C75.3001 28.2933 75.3661 28.069 75.4982 27.865C75.6351 27.6565 75.8427 27.491 76.121 27.3686C76.4041 27.2417 76.7627 27.1782 77.1968 27.1782C77.4846 27.1782 77.7701 27.2145 78.0531 27.287C78.3362 27.3595 78.5816 27.4638 78.7892 27.5998L78.5556 28.1438C78.3433 28.0078 78.1192 27.9103 77.8833 27.8514C77.6474 27.7879 77.4185 27.7562 77.1968 27.7562C76.9184 27.7562 76.6896 27.7902 76.5103 27.8582C76.331 27.9262 76.1989 28.0168 76.114 28.1302C76.0337 28.2435 75.9936 28.3704 75.9936 28.5109C75.9936 28.6786 76.0479 28.8124 76.1564 28.9121C76.2697 29.0118 76.4136 29.0911 76.5881 29.1501C76.7674 29.209 76.9632 29.2634 77.1756 29.3133C77.3879 29.3586 77.6002 29.4107 77.8125 29.4696C78.0296 29.5286 78.2254 29.6056 78.3999 29.7008C78.5792 29.796 78.7231 29.9229 78.8317 30.0816C78.9402 30.2402 78.9944 30.4442 78.9944 30.6935C78.9944 30.9338 78.926 31.1582 78.7892 31.3667C78.6524 31.5707 78.44 31.7361 78.1522 31.863C77.8691 31.9854 77.5105 32.0466 77.0765 32.0466Z" fill="#5C6368"/>
<path d="M80.9426 31.9922V27.8242H79.2441V27.2326H83.3418V27.8242H81.6433V31.9922H80.9426Z" fill="#5C6368"/>
<path d="M85.2627 31.9922L87.5062 27.2326H88.2069L90.4575 31.9922H89.7144L87.7115 27.6134H87.9946L85.9917 31.9922H85.2627ZM86.2182 30.8023L86.4092 30.2584H89.1977L89.403 30.8023H86.2182Z" fill="#5C6368"/>
<path d="M93.0977 31.9922V27.2326H95.1855C95.7139 27.2326 96.1787 27.3323 96.5797 27.5318C96.9855 27.7312 97.2993 28.01 97.521 28.3681C97.7475 28.7262 97.8606 29.141 97.8606 29.6124C97.8606 30.0839 97.7475 30.4986 97.521 30.8567C97.2993 31.2148 96.9855 31.4936 96.5797 31.6931C96.1787 31.8925 95.7139 31.9922 95.1855 31.9922H93.0977ZM93.8054 31.4007H95.143C95.5535 31.4007 95.9074 31.3259 96.2046 31.1763C96.5066 31.0267 96.7401 30.8182 96.9053 30.5508C97.0704 30.2788 97.153 29.966 97.153 29.6124C97.153 29.2543 97.0704 28.9416 96.9053 28.6741C96.7401 28.4067 96.5066 28.1981 96.2046 28.0486C95.9074 27.899 95.5535 27.8242 95.143 27.8242H93.8054V31.4007Z" fill="#5C6368"/>
<path d="M98.9443 31.9922V27.2326H102.441V27.8242H99.652V31.4007H102.54V31.9922H98.9443ZM99.5883 29.864V29.2861H102.136V29.864H99.5883Z" fill="#5C6368"/>
<path d="M105.13 32.0466C104.752 32.0466 104.391 31.9922 104.047 31.8834C103.702 31.7701 103.431 31.6251 103.233 31.4483L103.495 30.9179C103.683 31.0766 103.924 31.208 104.217 31.3123C104.509 31.4166 104.813 31.4687 105.13 31.4687C105.417 31.4687 105.651 31.437 105.83 31.3735C106.01 31.31 106.142 31.2239 106.227 31.1151C106.312 31.0018 106.354 30.8749 106.354 30.7343C106.354 30.5712 106.297 30.4397 106.184 30.34C106.076 30.2402 105.932 30.1609 105.752 30.102C105.578 30.0385 105.384 29.9841 105.172 29.9388C104.96 29.8935 104.745 29.8413 104.528 29.7824C104.316 29.719 104.12 29.6396 103.941 29.5444C103.766 29.4492 103.624 29.3223 103.516 29.1637C103.407 29.0005 103.353 28.792 103.353 28.5381C103.353 28.2933 103.419 28.069 103.551 27.865C103.688 27.6565 103.896 27.491 104.174 27.3686C104.457 27.2417 104.816 27.1782 105.25 27.1782C105.538 27.1782 105.823 27.2145 106.106 27.287C106.389 27.3595 106.635 27.4638 106.842 27.5998L106.609 28.1438C106.396 28.0078 106.172 27.9103 105.936 27.8514C105.701 27.7879 105.472 27.7562 105.25 27.7562C104.972 27.7562 104.743 27.7902 104.563 27.8582C104.384 27.9262 104.252 28.0168 104.167 28.1302C104.087 28.2435 104.047 28.3704 104.047 28.5109C104.047 28.6786 104.101 28.8124 104.21 28.9121C104.323 29.0118 104.467 29.0911 104.641 29.1501C104.821 29.209 105.016 29.2634 105.229 29.3133C105.441 29.3586 105.653 29.4107 105.866 29.4696C106.083 29.5286 106.279 29.6056 106.453 29.7008C106.632 29.796 106.776 29.9229 106.885 30.0816C106.993 30.2402 107.048 30.4442 107.048 30.6935C107.048 30.9338 106.979 31.1582 106.842 31.3667C106.706 31.5707 106.493 31.7361 106.205 31.863C105.922 31.9854 105.564 32.0466 105.13 32.0466Z" fill="#5C6368"/>
<path d="M108.082 31.9922V27.2326H108.789V31.9922H108.082Z" fill="#5C6368"/>
<path d="M112.509 32.0466C112.127 32.0466 111.775 31.9877 111.454 31.8698C111.134 31.7475 110.855 31.5775 110.619 31.3599C110.383 31.1378 110.199 30.8794 110.067 30.5848C109.935 30.2901 109.869 29.966 109.869 29.6124C109.869 29.2589 109.935 28.9348 110.067 28.6401C110.199 28.3455 110.383 28.0894 110.619 27.8718C110.86 27.6497 111.141 27.4797 111.461 27.3618C111.782 27.2394 112.136 27.1782 112.523 27.1782C112.915 27.1782 113.273 27.2394 113.599 27.3618C113.924 27.4842 114.2 27.6678 114.427 27.9126L113.988 28.3341C113.785 28.1437 113.563 28.0055 113.323 27.9194C113.087 27.8287 112.83 27.7834 112.551 27.7834C112.268 27.7834 112.004 27.8287 111.759 27.9194C111.518 28.01 111.308 28.137 111.129 28.3001C110.954 28.4633 110.817 28.6582 110.718 28.8849C110.624 29.107 110.577 29.3495 110.577 29.6124C110.577 29.8708 110.624 30.1133 110.718 30.34C110.817 30.5621 110.954 30.757 111.129 30.9247C111.308 31.0879 111.518 31.2148 111.759 31.3055C111.999 31.3962 112.261 31.4415 112.544 31.4415C112.809 31.4415 113.061 31.403 113.302 31.3259C113.547 31.2443 113.773 31.1106 113.981 30.9247L114.384 31.4415C114.139 31.6409 113.851 31.7928 113.521 31.897C113.195 31.9968 112.858 32.0466 112.509 32.0466ZM114.384 31.4415L113.705 31.3531V29.5852H114.384V31.4415Z" fill="#5C6368"/>
<path d="M115.739 31.9922V27.2326H116.32L119.597 31.1423H119.292V27.2326H120V31.9922H119.42L116.143 28.0826H116.447V31.9922H115.739Z" fill="#5C6368"/>
<path d="M0.0351562 18.0991V0.685242H4.19481V18.0991H0.0351562Z" fill="#5C6368"/>
<path d="M8.45996 18.0991V0.685242H11.9007L22.5052 13.2232H20.8362V0.685242H24.9445V18.0991H21.5295L10.8993 5.56112H12.5683V18.0991H8.45996Z" fill="#5C6368"/>
<path d="M32.9205 18.0991V3.969H27.1689V0.685242H42.8318V3.969H37.0801V18.0991H32.9205Z" fill="#5C6368"/>
<path d="M45.0703 18.0991V0.685242H53.2355C55.1869 0.685242 56.9073 1.0501 58.3966 1.77983C59.8858 2.49296 61.0498 3.49633 61.8886 4.78993C62.7274 6.08353 63.1468 7.61761 63.1468 9.39216C63.1468 11.1501 62.7274 12.6842 61.8886 13.9944C61.0498 15.288 59.8858 16.2997 58.3966 17.0294C56.9073 17.7425 55.1869 18.0991 53.2355 18.0991H45.0703ZM49.2299 14.7905H53.0301C54.2283 14.7905 55.264 14.5749 56.137 14.1437C57.0271 13.6959 57.7118 13.0657 58.1911 12.253C58.6876 11.4404 58.9358 10.4867 58.9358 9.39216C58.9358 8.28099 58.6876 7.32738 58.1911 6.53132C57.7118 5.71867 57.0271 5.09675 56.137 4.66555C55.264 4.21776 54.2283 3.99387 53.0301 3.99387H49.2299V14.7905Z" fill="#5C6368"/>
<path d="M66.2832 18.0991V0.685242H79.8662V3.91924H70.4171V14.8651H80.2V18.0991H66.2832ZM70.109 10.835V7.70053H78.7621V10.835H70.109Z" fill="#5C6368"/>
<path d="M92.1115 18.3976C90.7249 18.3976 89.4325 18.182 88.2343 17.7508C87.0531 17.303 86.0261 16.6728 85.1531 15.8602C84.28 15.0475 83.5953 14.0939 83.0989 12.9993C82.6196 11.9047 82.3799 10.7023 82.3799 9.39216C82.3799 8.08198 82.6196 6.87959 83.0989 5.78501C83.5953 4.69043 84.28 3.73681 85.1531 2.92416C86.0432 2.11152 87.0788 1.48959 88.26 1.05839C89.4411 0.610611 90.7335 0.386719 92.1372 0.386719C93.6949 0.386719 95.0986 0.652073 96.3482 1.18278C97.6149 1.6969 98.6762 2.45979 99.5321 3.47146L96.8617 5.85964C96.2455 5.17967 95.5607 4.67384 94.8075 4.34215C94.0544 3.99387 93.2327 3.81973 92.3426 3.81973C91.5038 3.81973 90.7335 3.95241 90.0317 4.21776C89.3298 4.48312 88.7221 4.86456 88.2086 5.3621C87.6951 5.85964 87.2928 6.4484 87.0018 7.12836C86.7279 7.80833 86.591 8.56293 86.591 9.39216C86.591 10.2214 86.7279 10.976 87.0018 11.656C87.2928 12.3359 87.6951 12.9247 88.2086 13.4222C88.7221 13.9198 89.3298 14.3012 90.0317 14.5666C90.7335 14.8319 91.5038 14.9646 92.3426 14.9646C93.2327 14.9646 94.0544 14.7987 94.8075 14.4671C95.5607 14.1188 96.2455 13.5964 96.8617 12.8998L99.5321 15.288C98.6762 16.2997 97.6149 17.0708 96.3482 17.6015C95.0986 18.1323 93.6863 18.3976 92.1115 18.3976Z" fill="#5C6368"/>
<path d="M110.018 18.3976C108.598 18.3976 107.28 18.1737 106.064 17.7259C104.866 17.2781 103.822 16.6479 102.932 15.8353C102.059 15.0226 101.374 14.069 100.877 12.9744C100.398 11.8799 100.158 10.6858 100.158 9.39216C100.158 8.09856 100.398 6.90447 100.877 5.80989C101.374 4.7153 102.067 3.76169 102.957 2.94904C103.847 2.13639 104.892 1.50618 106.09 1.05839C107.288 0.610611 108.589 0.386719 109.993 0.386719C111.413 0.386719 112.714 0.610611 113.896 1.05839C115.094 1.50618 116.129 2.13639 117.002 2.94904C117.893 3.76169 118.586 4.7153 119.082 5.80989C119.579 6.88789 119.827 8.08198 119.827 9.39216C119.827 10.6858 119.579 11.8881 119.082 12.9993C118.586 14.0939 117.893 15.0475 117.002 15.8602C116.129 16.6562 115.094 17.2781 113.896 17.7259C112.714 18.1737 111.422 18.3976 110.018 18.3976ZM109.993 14.9646C110.797 14.9646 111.533 14.8319 112.201 14.5666C112.886 14.3012 113.485 13.9198 113.998 13.4222C114.512 12.9247 114.906 12.3359 115.179 11.656C115.47 10.976 115.616 10.2214 115.616 9.39216C115.616 8.56293 115.47 7.80833 115.179 7.12836C114.906 6.4484 114.512 5.85964 113.998 5.3621C113.502 4.86456 112.911 4.48312 112.227 4.21776C111.542 3.95241 110.797 3.81973 109.993 3.81973C109.188 3.81973 108.444 3.95241 107.759 4.21776C107.091 4.48312 106.501 4.86456 105.987 5.3621C105.474 5.85964 105.071 6.4484 104.78 7.12836C104.506 7.80833 104.369 8.56293 104.369 9.39216C104.369 10.2048 104.506 10.9594 104.78 11.656C105.071 12.3359 105.465 12.9247 105.961 13.4222C106.475 13.9198 107.074 14.3012 107.759 14.5666C108.444 14.8319 109.188 14.9646 109.993 14.9646Z" fill="#5C6368"/>
</g>
</g>
<defs>
<clipPath id="clip0_14405_3920">
<rect width="120" height="33" fill="white"/>
</clipPath>
</defs>
</svg>
