<svg width="201" height="47" viewBox="0 0 201 47" fill="none" xmlns="http://www.w3.org/2000/svg">
<g clip-path="url(#clip0_14405_4051)">
<rect width="201" height="47" fill="#5C6368"/>
<mask id="mask0_14405_4051" style="mask-type:luminance" maskUnits="userSpaceOnUse" x="0" y="0" width="48" height="47">
<path d="M47.645 0H0V46.2761H47.645V0Z" fill="white"/>
</mask>
<g mask="url(#mask0_14405_4051)">
<path d="M34.0653 23.3095C34.8385 23.1003 35.739 23.0457 36.544 23.3777C36.8442 23.5005 37.1398 23.6415 37.4354 23.7961C37.7265 23.9508 38.0039 24.1236 38.2859 24.3101C38.8498 24.6876 39.3592 25.1242 39.855 25.6335C40.8191 26.6477 41.6059 27.9394 42.1017 29.4493C42.5974 30.9593 42.793 32.6921 42.5974 34.5067C42.3973 36.3168 41.8061 38.2043 40.81 39.978C40.2188 41.0286 39.2273 41.8654 38.1904 42.2884C37.9311 42.393 37.6674 42.4703 37.4081 42.5249C37.1489 42.5794 36.8942 42.6113 36.6441 42.6113C36.1438 42.6113 35.689 42.5203 35.2933 42.3111C34.5065 41.8927 34.1472 41.1605 34.1063 40.3737C34.0653 39.5777 34.32 38.7136 34.8521 37.9314C35.507 36.949 35.9573 35.8666 36.1893 34.7796C36.4212 33.6926 36.4394 32.6056 36.262 31.596C36.2165 31.3413 36.1574 31.0912 36.0937 30.8501C36.0619 30.7273 36.0255 30.6091 35.9891 30.4908C35.9482 30.3726 35.9073 30.2543 35.8618 30.1361C35.7708 29.9041 35.6753 29.6813 35.5707 29.463C35.457 29.2447 35.3388 29.0309 35.216 28.8308C34.7111 28.0167 34.0653 27.3209 33.3376 26.7523C32.7328 26.2703 32.3416 25.7654 32.2052 25.3197C32.0506 24.8695 32.1552 24.4738 32.5463 24.0918C32.7237 23.9189 32.942 23.7689 33.2103 23.6324C33.4559 23.5142 33.747 23.3959 34.0653 23.3095Z" fill="#615F6F"/>
<path d="M28.7935 32.101C29.3574 32.6558 29.8531 33.4108 29.9759 34.2795C30.0214 34.6069 30.0442 34.9253 30.0578 35.2573C30.0669 35.5848 30.0669 35.9259 30.0396 36.2579C30.0169 36.5899 29.9714 36.9264 29.9123 37.263C29.8531 37.6041 29.7713 37.9315 29.6712 38.2726C29.2755 39.6143 28.5524 40.9469 27.4882 42.1294C26.4285 43.3118 25.0277 44.3442 23.3677 45.081C21.7122 45.8178 19.7747 46.2635 17.7327 46.2817C16.5184 46.2953 15.2995 45.8451 14.4081 45.1629C13.5212 44.467 12.9709 43.5529 12.9391 42.6615C12.9072 41.7746 13.362 41.097 14.026 40.6649C14.3581 40.4511 14.7492 40.2874 15.1676 40.1919C15.586 40.1009 16.0454 40.0555 16.5184 40.0918C17.6963 40.1692 18.8606 40.0191 19.9203 39.6734C20.4478 39.5097 20.9527 39.2777 21.4166 39.0276C21.6531 38.8912 21.8759 38.7547 22.0897 38.6092C22.3034 38.4682 22.5126 38.2954 22.7082 38.1362C23.0993 37.8178 23.4541 37.4358 23.7679 37.0629C23.9225 36.8718 24.0681 36.6672 24.2045 36.4671C24.3409 36.2624 24.4637 36.0668 24.5774 35.8485C25.0322 34.9981 25.3097 34.093 25.4416 33.1834C25.4961 32.7968 25.5917 32.4603 25.7054 32.1783C25.7645 32.0328 25.8236 31.9009 25.8964 31.7872C25.9328 31.728 25.9646 31.678 26.0055 31.628C26.0419 31.578 26.0783 31.5279 26.1192 31.4824C26.4376 31.1413 26.8242 31.0094 27.3517 31.1686C27.47 31.2005 27.5882 31.2505 27.711 31.3096C27.8338 31.3687 27.9521 31.4324 28.0749 31.5143C28.3159 31.6689 28.5661 31.8736 28.7935 32.101Z" fill="#5C6368"/>
<path d="M18.5615 31.9319C18.3614 32.696 17.9566 33.501 17.2608 34.0422C16.2329 34.829 15.0095 35.4521 13.6542 35.7704C12.2944 36.0934 10.7799 36.1343 9.22445 35.8114C7.66903 35.4885 6.07268 34.7972 4.59457 33.7238C3.11647 32.6551 1.77935 31.186 0.7424 29.4305C0.132966 28.389 -0.112627 27.1065 0.0556497 25.9968C0.0738417 25.8558 0.0965818 25.7239 0.128418 25.5874C0.160254 25.4555 0.196638 25.3236 0.242118 25.2009C0.328531 24.9507 0.428587 24.7142 0.546835 24.5005C0.78788 24.0684 1.11534 23.7227 1.48827 23.4862C2.23415 23.0178 3.04824 23.0724 3.75774 23.4317C4.11703 23.609 4.44449 23.8683 4.73556 24.1821C4.88564 24.3413 5.02663 24.5141 5.15398 24.7006C5.28132 24.887 5.39047 25.0872 5.50417 25.3009C6.02265 26.3606 6.72759 27.2975 7.55988 28.0388C8.38762 28.7847 9.32451 29.3395 10.2841 29.6897C10.7753 29.8626 11.2529 29.9945 11.7486 30.0627C12.2307 30.1445 12.7264 30.1673 13.204 30.1491C13.677 30.1354 14.159 30.0672 14.6093 29.9717C15.0687 29.8717 15.5189 29.7307 15.9419 29.5624C16.2966 29.4214 16.6468 29.3259 16.947 29.2895C17.0971 29.2713 17.2472 29.2577 17.379 29.2577C17.5155 29.2577 17.6337 29.2759 17.7565 29.2986C18.2204 29.4032 18.5297 29.6806 18.6525 30.2173C18.7571 30.6903 18.7253 31.2952 18.5615 31.9319Z" fill="#615F6F"/>
<path d="M13.5835 22.9678C12.8103 23.177 11.9098 23.2316 11.1048 22.8996C10.8046 22.7768 10.509 22.6358 10.2134 22.4812C9.92231 22.3265 9.64488 22.1537 9.36291 21.9672C8.79895 21.5897 8.28957 21.1531 7.79384 20.6438C6.82966 19.6295 6.04285 18.3379 5.54712 16.828C5.05139 15.318 4.85582 13.5852 5.05139 11.7706C5.2515 9.96047 5.84274 8.07304 6.83876 6.29932C7.43 5.24872 8.42147 4.41189 9.45842 3.98892C9.71765 3.88432 9.98144 3.807 10.2407 3.75243C10.4999 3.69785 10.7546 3.66602 11.0047 3.66602C11.505 3.66602 11.9598 3.75698 12.3555 3.96618C13.1423 4.3846 13.5016 5.11683 13.5425 5.90364C13.5835 6.69954 13.3288 7.56366 12.7967 8.34592C12.1417 9.32829 11.6915 10.4107 11.4595 11.4977C11.2276 12.5847 11.2094 13.6716 11.3868 14.6813C11.4323 14.936 11.4914 15.1861 11.5551 15.4272C11.5869 15.55 11.6233 15.6682 11.6597 15.7865C11.7006 15.9047 11.7415 16.023 11.787 16.1412C11.878 16.3732 11.9735 16.596 12.0781 16.8143C12.1918 17.0326 12.31 17.2464 12.4328 17.4465C12.9376 18.2606 13.5835 18.9564 14.3111 19.5249C14.916 20.007 15.3072 20.5119 15.4436 20.9576C15.5982 21.4078 15.4936 21.8035 15.1025 22.1855C14.9251 22.3584 14.7068 22.5084 14.4385 22.6449C14.1929 22.7677 13.9018 22.8814 13.5835 22.9678Z" fill="#5C6368"/>
<path d="M18.8518 14.181C18.2879 13.6262 17.7921 12.8712 17.6693 12.0025C17.6239 11.6751 17.6011 11.3567 17.5875 11.0247C17.5784 10.6972 17.5784 10.3561 17.6057 10.0241C17.6284 9.69212 17.6739 9.35557 17.733 9.01902C17.7921 8.67791 17.874 8.35046 17.9741 8.00936C18.3697 6.66769 19.0929 5.33512 20.1571 4.15264C21.2168 2.97016 22.6176 1.93776 24.2776 1.20098C25.9331 0.464199 27.8705 0.0184938 29.9126 0.000301712C31.1269 -0.0133423 32.3458 0.436911 33.2372 1.11911C34.1241 1.81496 34.6744 2.72911 34.7062 3.62052C34.738 4.50738 34.2832 5.18504 33.6192 5.6171C33.2872 5.83086 32.8961 5.99459 32.4777 6.09009C32.0593 6.18105 31.5999 6.22653 31.1269 6.19015C29.949 6.11283 28.7847 6.26292 27.725 6.60857C27.1974 6.7723 26.6926 7.00424 26.2287 7.25439C25.9922 7.39083 25.7694 7.52727 25.5556 7.6728C25.3418 7.81379 25.1326 7.98662 24.9371 8.1458C24.5459 8.46416 24.1912 8.84619 23.8774 9.21913C23.7227 9.41014 23.5772 9.61481 23.4408 9.81492C23.3043 10.0196 23.1815 10.2151 23.0678 10.4334C22.613 11.2839 22.3356 12.189 22.2037 13.0986C22.1491 13.4852 22.0536 13.8217 21.9399 14.1037C21.8808 14.2492 21.8217 14.3811 21.7489 14.4948C21.7125 14.5539 21.6807 14.604 21.6398 14.654C21.6034 14.704 21.567 14.7541 21.5261 14.7995C21.2077 15.1406 20.8211 15.2725 20.2935 15.1134C20.1753 15.0815 20.057 15.0315 19.9342 14.9724C19.8115 14.9132 19.6932 14.8496 19.5704 14.7677C19.3294 14.6085 19.0792 14.4039 18.8518 14.181Z" fill="#615F6F"/>
<path d="M29.0869 14.3482C29.2871 13.5842 29.6918 12.7792 30.3877 12.238C31.4155 11.4512 32.6389 10.8281 33.9943 10.5097C35.3541 10.1868 36.8686 10.1459 38.424 10.4688C39.9794 10.7917 41.5758 11.483 43.0539 12.5563C44.532 13.6251 45.8691 15.0941 46.9061 16.8496C47.5155 17.8911 47.7611 19.1737 47.5928 20.2834C47.5746 20.4244 47.5519 20.5563 47.5201 20.6927C47.4882 20.8246 47.4518 20.9565 47.4064 21.0793C47.3199 21.3294 47.2199 21.5659 47.1016 21.7797C46.8606 22.2118 46.5331 22.5574 46.1602 22.7939C45.4143 23.2623 44.6002 23.2078 43.8907 22.8485C43.5314 22.6711 43.204 22.4119 42.9129 22.0981C42.7628 21.9389 42.6218 21.7661 42.4945 21.5796C42.3671 21.3931 42.258 21.193 42.1443 20.9792C41.6258 19.9196 40.9209 18.9827 40.0886 18.2413C39.2609 17.4955 38.324 16.9406 37.3643 16.5904C36.8731 16.4176 36.3956 16.2857 35.8999 16.2175C35.4178 16.1356 34.9221 16.1129 34.4445 16.1311C33.9715 16.1447 33.4894 16.2129 33.0392 16.3084C32.5798 16.4085 32.1296 16.5495 31.7066 16.7178C31.3519 16.8587 31.0017 16.9543 30.7015 16.9906C30.5514 17.0088 30.4013 17.0225 30.2694 17.0179C30.133 17.0179 30.0147 16.9997 29.8919 16.977C29.428 16.8724 29.1188 16.595 28.996 16.0583C28.8868 15.5898 28.9232 14.9804 29.0869 14.3482Z" fill="#5C6368"/>
</g>
<path d="M69.079 34.1447C68.3103 34.1447 67.7164 33.9467 67.2971 33.5507C66.9011 33.1314 66.7031 32.5374 66.7031 31.7688V11.8881C66.7031 11.1194 66.9011 10.5371 67.2971 10.1411C67.7164 9.72185 68.3103 9.51221 69.079 9.51221H77.4645C79.1882 9.51221 80.6557 9.76844 81.8669 10.2809C83.0782 10.7933 83.9983 11.527 84.6272 12.4821C85.2794 13.4371 85.6055 14.5784 85.6055 15.9061C85.6055 17.3969 85.1746 18.6547 84.3127 19.6796C83.4509 20.7045 82.2746 21.3917 80.7838 21.7411V21.217C82.5075 21.4732 83.8469 22.1254 84.8019 23.1736C85.7569 24.2218 86.2344 25.5844 86.2344 27.2615C86.2344 29.4511 85.489 31.1515 83.9983 32.3627C82.5308 33.5507 80.481 34.1447 77.8489 34.1447H69.079ZM71.0007 30.7555H77.2898C78.8738 30.7555 80.0384 30.4527 80.7838 29.8471C81.5292 29.2182 81.9019 28.2864 81.9019 27.0519C81.9019 25.7941 81.5292 24.8623 80.7838 24.2567C80.0384 23.6511 78.8738 23.3483 77.2898 23.3483H71.0007V30.7555ZM71.0007 19.9591H76.6959C78.2332 19.9591 79.3746 19.668 80.12 19.0857C80.8886 18.48 81.273 17.5949 81.273 16.4302C81.273 15.2656 80.8886 14.3921 80.12 13.8098C79.3746 13.2041 78.2332 12.9013 76.6959 12.9013H71.0007V19.9591Z" fill="#5C6368"/>
<path d="M93.1337 34.1447C92.365 34.1447 91.771 33.9467 91.3517 33.5507C90.9558 33.1314 90.7578 32.5374 90.7578 31.7688V11.8881C90.7578 11.1194 90.9558 10.5371 91.3517 10.1411C91.771 9.72185 92.365 9.51221 93.1337 9.51221H105.608C106.19 9.51221 106.633 9.66362 106.935 9.96643C107.261 10.2692 107.424 10.7001 107.424 11.2592C107.424 11.8415 107.261 12.2957 106.935 12.6218C106.633 12.9246 106.19 13.076 105.608 13.076H95.0553V19.8543H104.839C105.445 19.8543 105.899 20.0057 106.202 20.3085C106.504 20.6114 106.656 21.0539 106.656 21.6363C106.656 22.2186 106.504 22.6611 106.202 22.964C105.899 23.2668 105.445 23.4182 104.839 23.4182H95.0553V30.5808H105.608C106.19 30.5808 106.633 30.7322 106.935 31.035C107.261 31.3378 107.424 31.7804 107.424 32.3627C107.424 32.9451 107.261 33.3876 106.935 33.6904C106.633 33.9933 106.19 34.1447 105.608 34.1447H93.1337Z" fill="#5C6368"/>
<path d="M119.611 34.4242C118.889 34.4242 118.33 34.2262 117.934 33.8302C117.562 33.4109 117.375 32.8402 117.375 32.1182V13.2507H110.562C109.956 13.2507 109.479 13.0877 109.129 12.7616C108.803 12.4122 108.64 11.9463 108.64 11.364C108.64 10.7584 108.803 10.3042 109.129 10.0013C109.479 9.67527 109.956 9.51221 110.562 9.51221H128.661C129.266 9.51221 129.732 9.67527 130.058 10.0013C130.408 10.3042 130.582 10.7584 130.582 11.364C130.582 11.9463 130.408 12.4122 130.058 12.7616C129.732 13.0877 129.266 13.2507 128.661 13.2507H121.847V32.1182C121.847 32.8402 121.661 33.4109 121.288 33.8302C120.916 34.2262 120.357 34.4242 119.611 34.4242Z" fill="#5C6368"/>
<path d="M130.651 34.4242C130.092 34.4242 129.638 34.2961 129.289 34.0398C128.962 33.7836 128.764 33.4459 128.695 33.0266C128.625 32.584 128.706 32.0949 128.939 31.5591L138.163 11.1194C138.466 10.4439 138.827 9.9664 139.246 9.68688C139.689 9.38407 140.19 9.23267 140.749 9.23267C141.284 9.23267 141.762 9.38407 142.181 9.68688C142.624 9.9664 142.997 10.4439 143.299 11.1194L152.558 31.5591C152.815 32.0949 152.908 32.584 152.838 33.0266C152.768 33.4692 152.57 33.8186 152.244 34.0748C151.918 34.3077 151.487 34.4242 150.951 34.4242C150.299 34.4242 149.786 34.2728 149.414 33.97C149.064 33.6439 148.75 33.1547 148.47 32.5025L146.199 27.2266L148.086 28.4495H133.342L135.228 27.2266L132.992 32.5025C132.689 33.178 132.375 33.6671 132.049 33.97C131.723 34.2728 131.257 34.4242 130.651 34.4242ZM140.679 14.3688L135.787 26.0037L134.879 24.8856H145.367L140.749 14.3688H140.679Z" fill="#5C6368"/>
<path d="M158.766 34.3194C157.974 34.3194 157.334 34.0748 156.844 33.5856C156.379 33.0965 156.146 32.4676 156.146 31.6989C156.146 30.9535 156.379 30.3479 156.844 29.882C157.334 29.3929 157.974 29.1483 158.766 29.1483C159.581 29.1483 160.21 29.3929 160.653 29.882C161.119 30.3479 161.352 30.9535 161.352 31.6989C161.352 32.4676 161.119 33.0965 160.653 33.5856C160.21 34.0748 159.581 34.3194 158.766 34.3194Z" fill="#5C6368"/>
<path d="M167.992 34.4242C167.27 34.4242 166.711 34.2262 166.315 33.8302C165.942 33.4109 165.756 32.8402 165.756 32.1182V11.5387C165.756 10.7933 165.942 10.2226 166.315 9.82664C166.711 9.43066 167.27 9.23267 167.992 9.23267C168.714 9.23267 169.261 9.43066 169.634 9.82664C170.03 10.2226 170.228 10.7933 170.228 11.5387V32.1182C170.228 32.8402 170.042 33.4109 169.669 33.8302C169.296 34.2262 168.737 34.4242 167.992 34.4242Z" fill="#5C6368"/>
<path d="M177.713 34.4242C177.061 34.4242 176.56 34.2378 176.211 33.8651C175.861 33.4924 175.687 32.98 175.687 32.3278V11.329C175.687 10.6535 175.873 10.1411 176.246 9.7917C176.618 9.41901 177.131 9.23267 177.783 9.23267C178.365 9.23267 178.819 9.34913 179.146 9.58206C179.495 9.7917 179.809 10.1644 180.089 10.7001L188.719 26.6676H187.601L196.231 10.7001C196.511 10.1644 196.813 9.7917 197.139 9.58206C197.466 9.34913 197.92 9.23267 198.502 9.23267C199.154 9.23267 199.655 9.41901 200.005 9.7917C200.354 10.1411 200.529 10.6535 200.529 11.329V32.3278C200.529 32.98 200.354 33.4924 200.005 33.8651C199.678 34.2378 199.178 34.4242 198.502 34.4242C197.85 34.4242 197.349 34.2378 197 33.8651C196.65 33.4924 196.476 32.98 196.476 32.3278V16.1507H197.244L189.907 29.5326C189.674 29.9286 189.429 30.2198 189.173 30.4061C188.917 30.5925 188.568 30.6856 188.125 30.6856C187.682 30.6856 187.321 30.5925 187.042 30.4061C186.762 30.1965 186.518 29.9053 186.308 29.5326L178.901 16.1158H179.74V32.3278C179.74 32.98 179.565 33.4924 179.215 33.8651C178.889 34.2378 178.389 34.4242 177.713 34.4242Z" fill="#5C6368"/>
</g>
<defs>
<clipPath id="clip0_14405_4051">
<rect width="201" height="47" fill="white"/>
</clipPath>
</defs>
</svg>
