<svg width="230" height="48" viewBox="0 0 230 48" fill="none" xmlns="http://www.w3.org/2000/svg">
<g clip-path="url(#clip0_14405_4017)">
<rect width="230" height="48" fill="#5C6368"/>
<mask id="mask0_14405_4017" style="mask-type:luminance" maskUnits="userSpaceOnUse" x="0" y="0" width="48" height="48">
<path d="M47.9949 0H0V48H47.9949V0Z" fill="white"/>
</mask>
<g mask="url(#mask0_14405_4017)">
<path d="M36.5829 5.14071L35.744 3.01013C35.744 3.01013 35.3992 2.01173 35.2294 1.7081C35.1522 1.564 34.9721 1.35815 34.8125 1.19861C33.9891 0.375194 32.8312 0.0200959 31.8019 0.349462C31.1638 0.555316 30.5565 0.838365 30.5565 0.838365C30.5565 0.838365 30.5514 0.833219 30.5514 0.838365L28.4259 1.76985C27.7312 2.07349 27.021 2.29993 26.2902 2.45432C24.772 2.77339 23.2075 2.77339 21.6996 2.45432C20.9689 2.29993 20.2535 2.07349 19.5588 1.76985L17.5671 0.900122C17.5671 0.900122 16.4452 0.354608 16.0489 0.236242C15.0608 -0.0570993 13.9544 0.38034 13.1721 1.16259C13.0383 1.29639 12.8222 1.58459 12.7347 1.74927C12.5546 2.09407 12.2355 3.05644 12.2355 3.05644L11.4121 5.15101C11.1342 5.85606 10.7894 6.51994 10.3828 7.14779C10.9695 7.02428 11.6231 7.10662 12.3384 7.42055L15.5086 8.80492L18.1847 9.97314L18.2876 10.0195L21.4835 11.409C23.084 12.1089 24.9058 12.1089 26.5063 11.4141L29.7022 10.0195L29.8051 9.97314L32.4812 8.80492L35.6514 7.42055C36.3667 7.11177 37.0203 7.01913 37.607 7.14779C37.2056 6.50964 36.8608 5.84576 36.5829 5.14071Z" fill="#5C6368"/>
<path d="M42.8316 36.6063L44.9622 35.7675L46.2643 35.2528H46.2694L46.2746 35.2477C46.4547 35.1242 46.6142 34.9904 46.7737 34.836C47.5972 34.0126 47.8956 32.8598 47.6692 31.8048C47.6744 31.7996 47.6692 31.7996 47.6692 31.7996L47.6641 31.7945L47.134 30.5799C47.134 30.5799 47.1391 30.5748 47.134 30.5748L46.2025 28.4494C45.8989 27.7546 45.6724 27.0444 45.518 26.3136C45.199 24.7954 45.199 23.231 45.518 21.7231C45.6724 20.9923 45.8989 20.2769 46.2025 19.5822L47.0722 17.5906L47.7361 16.0724C47.9008 15.0586 47.592 13.9778 46.8098 13.1956C46.676 13.0618 46.5267 12.9383 46.3775 12.8302L44.9211 12.2589L42.8265 11.4355C42.1215 11.1576 41.4576 10.8128 40.8297 10.4062C40.9532 10.9929 40.8709 11.6465 40.557 12.3619L39.1726 15.532L38.0044 18.2081L37.9581 18.311L36.5685 21.5069C35.8686 23.1074 35.8686 24.9293 36.5634 26.5298L37.9581 29.7256L38.0044 29.8286L39.1726 32.5047L40.557 35.6748C40.8657 36.3902 40.9584 37.0438 40.8297 37.6304C41.4576 37.229 42.1266 36.8842 42.8316 36.6063Z" fill="#5C6368"/>
<path d="M11.3562 42.8583L12.195 44.9889C12.195 44.9889 12.5398 45.9873 12.7096 46.2909C12.7868 46.435 12.967 46.6409 13.1265 46.8004C13.9499 47.6238 15.1078 47.9789 16.1371 47.6495C16.7753 47.4437 17.3825 47.1606 17.3825 47.1606C17.3825 47.1606 17.3877 47.1658 17.3877 47.1606L19.5131 46.2291C20.2079 45.9255 20.9181 45.6991 21.6489 45.5447C23.167 45.2256 24.7315 45.2256 26.2394 45.5447C26.9702 45.6991 27.6855 45.9255 28.3803 46.2291L30.3719 47.0989C30.3719 47.0989 31.4938 47.6444 31.8901 47.7628C32.8782 48.0561 33.9847 47.6187 34.7669 46.8364C34.9007 46.7026 35.1169 46.4144 35.2043 46.2497C35.3845 45.9049 35.7035 44.9426 35.7035 44.9426L36.527 42.848C36.8049 42.1429 37.1497 41.4791 37.5562 40.8512C36.9695 40.9747 36.316 40.8924 35.6006 40.5784L32.4305 39.1941L29.7544 38.0259L29.6514 37.9795L26.4555 36.59C24.855 35.8901 23.0332 35.8901 21.4327 36.5849L18.2368 37.9795L18.1339 38.0259L15.4578 39.1941L12.2876 40.5784C11.5723 40.8872 10.9187 40.9799 10.332 40.8512C10.7334 41.4894 11.0783 42.1532 11.3562 42.8583Z" fill="#5C6368"/>
<path d="M5.11457 11.3933L2.98399 12.2321L1.68196 12.7468H1.67167L1.66652 12.7519C1.4864 12.8754 1.32686 13.0092 1.16732 13.1636C0.343907 13.987 0.0454189 15.1398 0.271858 16.1948C0.266712 16.2 0.271858 16.2 0.271858 16.2L0.277005 16.2051L0.807079 17.4196C0.807079 17.4196 0.801933 17.4248 0.807079 17.4248L1.73857 19.5502C2.0422 20.245 2.26864 20.9552 2.42303 21.686C2.74211 23.2041 2.74211 24.7686 2.42303 26.2765C2.26864 27.0073 2.0422 27.7226 1.73857 28.4174L0.868835 30.409L0.204956 31.9272C0.0351262 32.941 0.349054 34.0218 1.1313 34.804C1.2651 34.9378 1.41435 35.0613 1.56359 35.1694L3.02001 35.7406L5.11457 36.5641C5.81962 36.842 6.4835 37.1868 7.11136 37.5933C6.98785 37.0067 7.07019 36.3531 7.38412 35.6377L8.76848 32.4676L9.93671 29.7915L9.98302 29.6885L11.3725 26.4927C12.0724 24.8921 12.0724 23.0703 11.3777 21.4698L9.98302 18.2739L9.93671 18.171L8.76848 15.4949L7.38412 12.3248C7.07533 11.6094 6.9827 10.9558 7.11136 10.3691C6.4835 10.7706 5.81448 11.1154 5.11457 11.3933Z" fill="#5C6368"/>
<path d="M19.5407 1.5542L17.4255 0.627854C17.4255 0.627854 16.4683 0.159537 16.1287 0.0617562C15.9691 0.0205854 15.6912 0 15.4699 0C14.2914 0 13.2158 0.576391 12.7166 1.5439C12.4078 2.14603 12.1763 2.77903 12.1763 2.77903C12.1763 2.77903 12.1711 2.77903 12.1711 2.78417L11.3168 4.96108C11.0389 5.67127 10.6941 6.3403 10.2824 6.9733C9.42811 8.28562 8.31135 9.40238 7.00933 10.2464C6.38147 10.6581 5.70215 11.008 4.99196 11.2859L2.94886 12.0888C2.94886 12.0888 1.76005 12.5005 1.38951 12.696C0.47861 13.1901 0 14.2914 0 15.4082C0 15.5986 0.0514635 15.9588 0.108073 16.1338C0.226439 16.5095 0.679318 17.4204 0.679318 17.4204L1.59022 19.4995C1.83725 20.0656 2.03281 20.6471 2.18205 21.239C2.22322 21.3985 2.41878 21.4551 2.532 21.3316C2.85622 20.9765 3.30396 20.6832 3.87005 20.4619L7.1174 19.1856L9.8604 18.11L9.96848 18.0688L13.2364 16.7771C14.8781 16.1338 16.175 14.8318 16.8183 13.2004L18.1049 9.9273L18.146 9.81923L19.2216 7.07623L20.4979 3.82888C20.7243 3.26278 21.0125 2.81505 21.3728 2.49083C21.4963 2.37761 21.4397 2.18205 21.2801 2.14088C20.6883 1.99678 20.1068 1.80122 19.5407 1.5542Z" fill="#615F6F"/>
<path d="M46.4394 19.5407L47.3658 17.4255L47.9319 16.1287L47.937 16.1235V16.1184C47.9782 15.9074 47.9988 15.6912 47.9988 15.4699C47.9988 14.2914 47.3915 13.2621 46.4755 12.6652C46.4755 12.66 46.4703 12.66 46.4703 12.66H46.4652L45.2198 12.1711C45.2198 12.1711 45.2198 12.166 45.2146 12.166L43.0377 11.3117C42.3275 11.0338 41.6585 10.689 41.0255 10.2773C39.7132 9.42297 38.5964 8.30621 37.7524 7.00418C37.3407 6.37633 36.9907 5.69701 36.7128 4.98681L35.91 2.94371L35.313 1.41525C35.3079 1.39466 35.2976 1.37922 35.2822 1.35864C34.6697 0.53522 33.6868 0 32.5855 0C32.3951 0 32.1995 0.015439 32.0194 0.0514635L30.5681 0.679318L28.489 1.59022C27.9229 1.83725 27.3413 2.03281 26.7495 2.18205C26.59 2.22322 26.5334 2.41878 26.6569 2.532C27.012 2.85622 27.3053 3.30396 27.5266 3.87005L28.8029 7.1174L29.8785 9.8604L29.9197 9.96848L31.2114 13.2364C31.8547 14.8781 33.1567 16.175 34.7933 16.8183L38.0663 18.1049L38.1744 18.146L40.9174 19.2216L44.1648 20.4979C44.7309 20.7243 45.1786 21.0125 45.5028 21.3728C45.616 21.4963 45.8116 21.4397 45.8528 21.2802C45.9969 20.6883 46.1924 20.1068 46.4394 19.5407Z" fill="#615F6F"/>
<path d="M28.4487 46.4448L30.5638 47.3711C30.5638 47.3711 31.521 47.8394 31.8607 47.9372C32.0202 47.9835 32.2981 48.0041 32.5194 48.0041C33.698 48.0041 34.7735 47.4277 35.2727 46.4602C35.5815 45.8581 35.8131 45.2251 35.8131 45.2251C35.8131 45.2251 35.8182 45.2251 35.8182 45.2199L36.6725 43.043C36.9504 42.3328 37.2952 41.6638 37.707 41.0308C38.5613 39.7185 39.678 38.6017 40.98 37.7577C41.6079 37.346 42.2872 36.9961 42.9974 36.7182L45.0405 35.9153C45.0405 35.9153 46.2293 35.5036 46.5999 35.3081C47.5108 34.814 47.9894 33.7127 47.9894 32.596C47.9894 32.4055 47.9379 32.0453 47.8813 31.8703C47.7629 31.4946 47.31 30.5837 47.31 30.5837L46.3991 28.5046C46.1521 27.9385 45.9566 27.357 45.8073 26.7651C45.7661 26.6056 45.5706 26.549 45.4574 26.6725C45.1331 27.0276 44.6854 27.3209 44.1193 27.5422L40.872 28.8185L38.129 29.8941L38.0209 29.9353L34.753 31.227C33.1113 31.8703 31.8144 33.1723 31.1711 34.8037L29.8845 38.0768L29.8485 38.1746L28.7729 40.9176L27.4966 44.1649C27.2702 44.731 26.982 45.1788 26.6217 45.503C26.4982 45.6162 26.5548 45.8118 26.7144 45.8529C27.3062 46.0022 27.8877 46.1977 28.4487 46.4448Z" fill="#615F6F"/>
<path d="M1.5542 28.4584L0.627854 30.5736L0.0617562 31.8705L0.0566098 31.8756V31.8808C0.0205854 32.0918 0 32.3079 0 32.5292C0 33.7077 0.607269 34.737 1.52332 35.334C1.52332 35.3391 1.52847 35.3391 1.52847 35.3391H1.53361L2.77903 35.828C2.77903 35.828 2.77903 35.8332 2.78417 35.8332L4.96108 36.6875C5.67127 36.9654 6.3403 37.3102 6.9733 37.7219C8.28562 38.5762 9.40238 39.6929 10.2464 40.995C10.6581 41.6228 11.008 42.3021 11.2859 43.0123L12.0888 45.0554L12.6857 46.5839C12.6909 46.6045 12.7012 46.6199 12.7166 46.6405C13.3239 47.4691 14.3017 48.0043 15.4082 48.0043C15.5986 48.0043 15.7941 47.9888 15.9743 47.9528L17.4204 47.325L19.4995 46.4141C20.0656 46.167 20.6471 45.9715 21.239 45.8222C21.3985 45.7811 21.4551 45.5855 21.3316 45.4723C20.9765 45.1481 20.6832 44.7003 20.4619 44.1342L19.1856 40.8869L18.11 38.1439L18.0688 38.0358L16.7771 34.7679C16.1338 33.1262 14.8318 31.8293 13.2004 31.186L9.9273 29.8994L9.81923 29.8583L7.07623 28.7827L3.82888 27.5064C3.26278 27.2799 2.81505 26.9917 2.49083 26.6315C2.37761 26.508 2.18205 26.5646 2.14088 26.7241C1.99678 27.316 1.80122 27.8923 1.5542 28.4584Z" fill="#615F6F"/>
</g>
<path d="M72.401 35.4863C71.7439 35.4863 71.2394 35.2985 70.8874 34.9231C70.5354 34.5476 70.3594 34.0313 70.3594 33.3743V12.2191C70.3594 11.5385 70.5471 11.0223 70.9226 10.6703C71.298 10.2948 71.8143 10.1071 72.4714 10.1071C73.058 10.1071 73.5156 10.2244 73.8442 10.4591C74.1962 10.6703 74.513 11.0457 74.7946 11.5855L83.489 27.6719H82.3626L91.057 11.5855C91.3386 11.0457 91.6436 10.6703 91.9722 10.4591C92.3007 10.2244 92.7583 10.1071 93.345 10.1071C94.0021 10.1071 94.5066 10.2948 94.8586 10.6703C95.2106 11.0223 95.3866 11.5385 95.3866 12.2191V33.3743C95.3866 34.0313 95.2106 34.5476 94.8586 34.9231C94.5301 35.2985 94.0255 35.4863 93.345 35.4863C92.6879 35.4863 92.1834 35.2985 91.8314 34.9231C91.4794 34.5476 91.3034 34.0313 91.3034 33.3743V17.0767H92.0778L84.6858 30.5583C84.4511 30.9572 84.2047 31.2505 83.9466 31.4383C83.6884 31.626 83.3364 31.7199 82.8906 31.7199C82.4447 31.7199 82.081 31.626 81.7994 31.4383C81.5178 31.2271 81.2714 30.9337 81.0602 30.5583L73.5978 17.0415H74.4426V33.3743C74.4426 34.0313 74.2666 34.5476 73.9146 34.9231C73.586 35.2985 73.0815 35.4863 72.401 35.4863Z" fill="#5C6368"/>
<path d="M108.909 35.5567C106.961 35.5567 105.284 35.1929 103.876 34.4655C102.468 33.738 101.376 32.7055 100.602 31.3679C99.851 30.0303 99.4756 28.4463 99.4756 26.6159C99.4756 24.8324 99.8393 23.2719 100.567 21.9343C101.318 20.5967 102.338 19.5524 103.629 18.8015C104.943 18.0271 106.433 17.6399 108.1 17.6399C109.32 17.6399 110.411 17.8393 111.373 18.2383C112.359 18.6372 113.192 19.2121 113.872 19.9631C114.576 20.714 115.104 21.6292 115.456 22.7087C115.832 23.7647 116.02 24.9615 116.02 26.2991C116.02 26.7215 115.867 27.05 115.562 27.2847C115.28 27.4959 114.87 27.6015 114.33 27.6015H103.031V25.0671H112.922L112.359 25.5951C112.359 24.5156 112.194 23.6121 111.866 22.8847C111.561 22.1572 111.103 21.6057 110.493 21.2303C109.906 20.8313 109.167 20.6319 108.276 20.6319C107.29 20.6319 106.445 20.8665 105.741 21.3359C105.061 21.7817 104.533 22.4271 104.157 23.2719C103.805 24.0932 103.629 25.0788 103.629 26.2287V26.4751C103.629 28.3993 104.075 29.8425 104.967 30.8047C105.882 31.7433 107.22 32.2127 108.98 32.2127C109.59 32.2127 110.27 32.1423 111.021 32.0015C111.796 31.8372 112.523 31.5673 113.204 31.1919C113.696 30.9103 114.13 30.7929 114.506 30.8399C114.881 30.8633 115.175 30.9924 115.386 31.2271C115.621 31.4617 115.761 31.7551 115.808 32.1071C115.855 32.4356 115.785 32.7759 115.597 33.1279C115.433 33.4799 115.14 33.7849 114.717 34.0431C113.896 34.5593 112.945 34.9465 111.866 35.2047C110.81 35.4393 109.824 35.5567 108.909 35.5567Z" fill="#5C6368"/>
<path d="M127.53 41.8927C126.262 41.8927 125.03 41.7753 123.834 41.5407C122.66 41.306 121.593 40.9423 120.63 40.4495C120.185 40.2148 119.88 39.9332 119.715 39.6047C119.574 39.2761 119.528 38.9359 119.574 38.5839C119.645 38.2553 119.786 37.962 119.997 37.7039C120.232 37.4457 120.513 37.2697 120.842 37.1759C121.17 37.082 121.51 37.1289 121.862 37.3167C122.895 37.8329 123.869 38.1615 124.784 38.3023C125.723 38.4665 126.521 38.5487 127.178 38.5487C128.75 38.5487 129.923 38.1615 130.698 37.3871C131.496 36.6361 131.894 35.5097 131.894 34.0079V30.8399H132.211C131.859 32.0367 131.12 32.9988 129.994 33.7263C128.891 34.4303 127.635 34.7823 126.227 34.7823C124.678 34.7823 123.329 34.4303 122.179 33.7263C121.029 32.9988 120.138 31.9897 119.504 30.6991C118.87 29.4084 118.554 27.9065 118.554 26.1935C118.554 24.9028 118.73 23.7412 119.082 22.7087C119.457 21.6527 119.973 20.7492 120.63 19.9983C121.311 19.2473 122.121 18.6724 123.059 18.2735C124.021 17.8511 125.077 17.6399 126.227 17.6399C127.682 17.6399 128.949 18.0036 130.029 18.7311C131.132 19.4351 131.848 20.3737 132.176 21.5471L131.824 22.4271V19.9279C131.824 19.2004 132.012 18.6489 132.387 18.2735C132.786 17.898 133.326 17.7103 134.006 17.7103C134.71 17.7103 135.25 17.898 135.626 18.2735C136.001 18.6489 136.189 19.2004 136.189 19.9279V33.4799C136.189 36.2724 135.45 38.3727 133.971 39.7807C132.493 41.1887 130.346 41.8927 127.53 41.8927ZM127.424 31.4383C128.339 31.4383 129.125 31.2271 129.782 30.8047C130.44 30.3823 130.944 29.7839 131.296 29.0095C131.672 28.2116 131.859 27.2729 131.859 26.1935C131.859 24.5743 131.46 23.3071 130.662 22.3919C129.865 21.4532 128.785 20.9839 127.424 20.9839C126.509 20.9839 125.723 21.1951 125.066 21.6175C124.409 22.0399 123.892 22.6383 123.517 23.4127C123.165 24.1871 122.989 25.114 122.989 26.1935C122.989 27.8127 123.388 29.0916 124.186 30.0303C124.984 30.9689 126.063 31.4383 127.424 31.4383Z" fill="#5C6368"/>
<path d="M146.415 35.5567C145.171 35.5567 144.057 35.322 143.071 34.8527C142.109 34.3599 141.346 33.7028 140.783 32.8815C140.243 32.0601 139.973 31.1332 139.973 30.1007C139.973 28.8335 140.302 27.8361 140.959 27.1087C141.616 26.3577 142.684 25.818 144.162 25.4895C145.641 25.1609 147.624 24.9967 150.111 24.9967H151.871V27.5311H150.146C148.691 27.5311 147.53 27.6015 146.661 27.7423C145.793 27.8831 145.171 28.1295 144.796 28.4815C144.444 28.81 144.268 29.2793 144.268 29.8895C144.268 30.6639 144.538 31.2975 145.077 31.7903C145.617 32.2831 146.368 32.5295 147.33 32.5295C148.105 32.5295 148.785 32.3535 149.372 32.0015C149.982 31.626 150.463 31.1215 150.815 30.4879C151.167 29.8543 151.343 29.1268 151.343 28.3055V24.2575C151.343 23.0841 151.085 22.2393 150.569 21.7231C150.052 21.2068 149.184 20.9487 147.964 20.9487C147.283 20.9487 146.544 21.0308 145.746 21.1951C144.972 21.3593 144.151 21.6409 143.282 22.0399C142.836 22.2511 142.437 22.3097 142.085 22.2159C141.757 22.122 141.499 21.9343 141.311 21.6527C141.123 21.3476 141.029 21.0191 141.029 20.6671C141.029 20.3151 141.123 19.9748 141.311 19.6463C141.499 19.2943 141.816 19.0361 142.261 18.8719C143.341 18.426 144.373 18.1092 145.359 17.9215C146.368 17.7337 147.283 17.6399 148.105 17.6399C149.794 17.6399 151.179 17.898 152.258 18.4143C153.361 18.9305 154.183 19.7167 154.722 20.7727C155.262 21.8052 155.532 23.1428 155.532 24.7855V33.2335C155.532 33.9609 155.356 34.5241 155.004 34.9231C154.652 35.2985 154.147 35.4863 153.49 35.4863C152.833 35.4863 152.317 35.2985 151.941 34.9231C151.589 34.5241 151.413 33.9609 151.413 33.2335V31.5439H151.695C151.531 32.3652 151.202 33.0809 150.709 33.6911C150.24 34.2777 149.642 34.7353 148.914 35.0639C148.187 35.3924 147.354 35.5567 146.415 35.5567Z" fill="#5C6368"/>
<path d="M160.667 35.4863C160.103 35.4863 159.646 35.3572 159.294 35.0991C158.965 34.8409 158.766 34.5007 158.695 34.0783C158.625 33.6324 158.707 33.1396 158.942 32.5999L168.235 12.0079C168.54 11.3273 168.903 10.8463 169.326 10.5647C169.772 10.2596 170.276 10.1071 170.839 10.1071C171.379 10.1071 171.86 10.2596 172.283 10.5647C172.729 10.8463 173.104 11.3273 173.409 12.0079L182.737 32.5999C182.995 33.1396 183.089 33.6324 183.019 34.0783C182.948 34.5241 182.749 34.8761 182.42 35.1343C182.092 35.3689 181.658 35.4863 181.118 35.4863C180.461 35.4863 179.945 35.3337 179.569 35.0287C179.217 34.7001 178.9 34.2073 178.619 33.5503L176.331 28.2351L178.231 29.4671H163.377L165.278 28.2351L163.025 33.5503C162.72 34.2308 162.403 34.7236 162.075 35.0287C161.746 35.3337 161.277 35.4863 160.667 35.4863ZM170.769 15.2815L165.841 27.0031L164.926 25.8767H176.683L175.803 27.0031L170.839 15.2815H170.769Z" fill="#5C6368"/>
<path d="M188.867 35.4863C188.139 35.4863 187.576 35.2868 187.177 34.8879C186.802 34.4655 186.614 33.8905 186.614 33.1631V12.6767C186.614 11.9257 186.813 11.3625 187.212 10.9871C187.611 10.5881 188.175 10.3887 188.902 10.3887H197.385C200.107 10.3887 202.208 11.0457 203.686 12.3599C205.164 13.6505 205.904 15.4692 205.904 17.8159C205.904 19.3412 205.563 20.6553 204.883 21.7583C204.226 22.8612 203.264 23.706 201.996 24.2927C200.729 24.8793 199.192 25.1727 197.385 25.1727L197.702 24.6447H198.864C199.826 24.6447 200.659 24.8793 201.363 25.3487C202.09 25.818 202.724 26.5572 203.264 27.5663L205.904 32.4591C206.185 32.9519 206.314 33.4329 206.291 33.9023C206.267 34.3716 206.091 34.7588 205.763 35.0639C205.434 35.3455 204.953 35.4863 204.32 35.4863C203.686 35.4863 203.17 35.3572 202.771 35.0991C202.372 34.8175 202.02 34.3951 201.715 33.8319L198.16 27.2847C197.737 26.4868 197.233 25.9588 196.646 25.7007C196.083 25.4191 195.355 25.2783 194.464 25.2783H191.12V33.1631C191.12 33.8905 190.932 34.4655 190.556 34.8879C190.181 35.2868 189.618 35.4863 188.867 35.4863ZM191.12 21.9343H196.611C198.23 21.9343 199.45 21.6057 200.272 20.9487C201.116 20.2681 201.539 19.2591 201.539 17.9215C201.539 16.6073 201.116 15.6217 200.272 14.9647C199.45 14.2841 198.23 13.9439 196.611 13.9439H191.12V21.9343Z" fill="#5C6368"/>
<path d="M218.295 35.4863C217.567 35.4863 217.004 35.2868 216.605 34.8879C216.229 34.4655 216.042 33.8905 216.042 33.1631V14.1551H209.178C208.568 14.1551 208.087 13.9908 207.735 13.6623C207.406 13.3103 207.242 12.8409 207.242 12.2543C207.242 11.6441 207.406 11.1865 207.735 10.8815C208.087 10.5529 208.568 10.3887 209.178 10.3887H227.411C228.022 10.3887 228.491 10.5529 228.819 10.8815C229.171 11.1865 229.347 11.6441 229.347 12.2543C229.347 12.8409 229.171 13.3103 228.819 13.6623C228.491 13.9908 228.022 14.1551 227.411 14.1551H220.547V33.1631C220.547 33.8905 220.36 34.4655 219.984 34.8879C219.609 35.2868 219.046 35.4863 218.295 35.4863Z" fill="#5C6368"/>
</g>
<defs>
<clipPath id="clip0_14405_4017">
<rect width="230" height="48" fill="white"/>
</clipPath>
</defs>
</svg>
