<svg width="163" height="43" viewBox="0 0 163 43" fill="none" xmlns="http://www.w3.org/2000/svg">
<g clip-path="url(#clip0_14405_4089)">
<rect width="163" height="43" fill="#5C6368"/>
<mask id="mask0_14405_4089" style="mask-type:luminance" maskUnits="userSpaceOnUse" x="0" y="0" width="47" height="43">
<path d="M46.7731 0H0V42.4347H46.7731V0Z" fill="white"/>
</mask>
<g mask="url(#mask0_14405_4089)">
<path d="M18.722 31.9998C17.7446 32.8362 16.3199 32.8883 15.2812 32.1285C15.2812 32.1285 18.3604 34.5091 19.4389 35.2781C19.6503 35.4283 19.8588 35.5815 20.0702 35.7346C21.7798 36.9816 23.4587 38.2133 25.4349 38.2103C28.2261 38.2103 30.4873 35.9461 30.4842 33.1549C30.4842 30.3637 28.2201 28.1025 25.4289 28.1056C22.6347 28.1087 20.5756 30.4158 18.722 31.9998Z" fill="#615F6F"/>
<path d="M20.0684 35.7337C19.3729 35.2465 18.466 35.3078 17.8348 35.8746C15.5584 37.9121 11.5906 42.4313 7.12351 42.4344C3.1895 42.4344 0.00306608 39.251 2.20768e-06 35.317C-0.00306167 31.386 3.18337 28.1965 7.11738 28.1935C10.6378 28.1904 13.91 31.0674 16.7043 33.1631C17.6939 33.9046 20.0684 35.7337 20.0684 35.7337Z" fill="#5C6368"/>
<path d="M20.4232 18.8267C20.1903 17.5614 20.8552 16.3021 22.0317 15.7812C22.0317 15.7812 18.4316 17.258 17.2245 17.8065C16.9886 17.9137 16.7526 18.0179 16.5137 18.1251C14.5803 18.983 12.6746 19.8194 11.688 21.5321C10.294 23.9495 11.1243 27.0379 13.5417 28.432C15.9591 29.8261 19.0475 28.9958 20.4415 26.5784C21.8356 24.161 20.8674 21.2258 20.4232 18.8267Z" fill="#615F6F"/>
<path d="M16.5138 18.1264C17.2828 17.7679 17.6842 16.9499 17.5096 16.1196C16.8815 13.1292 14.9543 7.43347 17.1848 3.56379C19.1487 0.156757 23.5025 -1.01058 26.9095 0.953365C30.3166 2.91731 31.4839 7.27108 29.52 10.6781C27.7613 13.7267 23.6343 15.1238 20.4233 16.4964C19.2836 16.9836 16.5138 18.1264 16.5138 18.1264Z" fill="#5C6368"/>
<path d="M30.9796 26.885C32.1929 27.3139 32.9497 28.5211 32.8118 29.8018C32.8118 29.8018 33.3327 25.9475 33.4614 24.6269C33.4859 24.3696 33.5135 24.1122 33.541 23.8518C33.7647 21.7469 33.9914 19.6788 33.0049 17.9691C31.6077 15.5548 28.5193 14.7275 26.1019 16.1247C23.6876 17.5218 22.8604 20.6102 24.2575 23.0276C25.6546 25.4419 28.6817 26.07 30.9796 26.885Z" fill="#615F6F"/>
<path d="M33.5454 23.8516C33.4719 24.6972 33.9774 25.4509 34.7863 25.7175C37.6908 26.6703 43.5857 27.8469 45.8224 31.7135C47.7894 35.1174 46.6251 39.4712 43.2211 41.4413C39.8172 43.4083 35.4634 42.244 33.4933 38.84C31.7316 35.7915 32.5864 31.5204 33.0031 28.0521C33.1471 26.8205 33.5454 23.8516 33.5454 23.8516Z" fill="#5C6368"/>
<path opacity="0.2" d="M32.9974 28.0541C32.8258 29.4757 32.5838 31.0322 32.4766 32.5825C32.8412 30.208 33.7818 27.7079 34.6948 25.6857C33.938 25.3977 33.4693 24.6685 33.5428 23.8535C33.5428 23.8535 33.1445 26.8224 32.9974 28.0541Z" fill="#5C6368"/>
<path opacity="0.2" d="M20.0686 35.7334C20.0686 35.7334 17.6941 33.9043 16.7044 33.1628C15.724 32.4275 14.6853 31.5972 13.5977 30.8281C15.4207 32.1977 16.9097 34.3393 17.8319 35.8774C17.835 35.8774 17.835 35.8743 17.8381 35.8743C18.4662 35.3106 19.3731 35.2462 20.0686 35.7334Z" fill="#5C6368"/>
<path opacity="0.2" d="M17.5267 16.2104C17.6554 17.0101 17.2571 17.7792 16.5156 18.1254C16.5156 18.1254 19.2854 16.9825 20.4251 16.4985C21.3382 16.1093 22.3217 15.7172 23.3052 15.2852C21.4699 15.9561 19.218 16.1614 17.5267 16.2104Z" fill="#5C6368"/>
</g>
<path d="M79.8444 33.8637C77.169 33.8637 74.9052 33.3606 73.053 32.3545C71.2236 31.3483 69.8288 29.9192 68.8683 28.0669C67.9079 26.2147 67.4277 24.0195 67.4277 21.4813C67.4277 19.5605 67.7021 17.834 68.2509 16.3019C68.8226 14.7698 69.6344 13.4664 70.6863 12.3917C71.761 11.2941 73.0644 10.4594 74.5965 9.88778C76.1286 9.29324 77.8665 8.99597 79.8101 8.99597C81.0907 8.99597 82.3712 9.15604 83.6518 9.47618C84.9552 9.77345 86.1786 10.2879 87.3219 11.0197C87.7106 11.2712 87.9622 11.5799 88.0765 11.9458C88.2137 12.3117 88.2366 12.689 88.1451 13.0777C88.0536 13.4436 87.8821 13.7637 87.6306 14.0381C87.3791 14.3125 87.0589 14.484 86.6702 14.5526C86.3043 14.6212 85.8927 14.5297 85.4354 14.2782C84.5665 13.7751 83.6861 13.4093 82.7943 13.1806C81.9025 12.9519 80.9078 12.8376 79.8101 12.8376C78.118 12.8376 76.6888 13.1806 75.5226 13.8666C74.3564 14.5297 73.476 15.5016 72.8815 16.7821C72.3098 18.0627 72.024 19.6291 72.024 21.4813C72.024 24.2939 72.6985 26.432 74.0477 27.8954C75.3968 29.3589 77.3977 30.0907 80.0502 30.0907C80.9649 30.0907 81.891 29.9992 82.8286 29.8163C83.7661 29.6333 84.6808 29.3818 85.5726 29.0616L84.7151 31.0168V23.7108H80.9421C80.3704 23.7108 79.9245 23.5622 79.6043 23.2649C79.3071 22.9676 79.1584 22.5675 79.1584 22.0644C79.1584 21.5384 79.3071 21.1383 79.6043 20.8639C79.9245 20.5895 80.3704 20.4523 80.9421 20.4523H86.6016C87.1733 20.4523 87.6077 20.6123 87.905 20.9325C88.2252 21.2297 88.3852 21.6642 88.3852 22.2359V30.5709C88.3852 31.0739 88.2823 31.497 88.0765 31.84C87.8936 32.183 87.5849 32.4345 87.1504 32.5946C86.1443 32.9604 84.9895 33.2691 83.6861 33.5207C82.3827 33.7494 81.1021 33.8637 79.8444 33.8637Z" fill="#5C6368"/>
<path d="M101.328 33.8637C99.4293 33.8637 97.7944 33.5093 96.4223 32.8004C95.0503 32.0915 93.987 31.0854 93.2324 29.782C92.5007 28.4785 92.1348 26.935 92.1348 25.1514C92.1348 23.4135 92.4892 21.8929 93.1981 20.5895C93.9299 19.2861 94.9246 18.2685 96.1822 17.5367C97.4628 16.7821 98.9148 16.4048 100.539 16.4048C101.728 16.4048 102.791 16.5992 103.729 16.9879C104.689 17.3767 105.501 17.9369 106.164 18.6686C106.85 19.4004 107.365 20.2922 107.708 21.3441C108.073 22.3731 108.256 23.5393 108.256 24.8427C108.256 25.2543 108.108 25.5744 107.81 25.8031C107.536 26.0089 107.136 26.1118 106.61 26.1118H95.5991V23.6422H105.238L104.689 24.1567C104.689 23.1048 104.529 22.2244 104.209 21.5156C103.912 20.8067 103.466 20.2693 102.871 19.9035C102.3 19.5147 101.579 19.3204 100.71 19.3204C99.7495 19.3204 98.9263 19.549 98.2403 20.0064C97.5771 20.4408 97.0626 21.0697 96.6967 21.8929C96.3537 22.6932 96.1822 23.6536 96.1822 24.7741V25.0142C96.1822 26.8893 96.6167 28.2956 97.4857 29.2331C98.3775 30.1478 99.6809 30.6052 101.396 30.6052C101.991 30.6052 102.654 30.5366 103.386 30.3994C104.14 30.2393 104.849 29.9763 105.512 29.6105C105.993 29.336 106.416 29.2217 106.781 29.2674C107.147 29.2903 107.433 29.4161 107.639 29.6448C107.868 29.8734 108.005 30.1593 108.051 30.5023C108.096 30.8224 108.028 31.154 107.845 31.497C107.685 31.84 107.399 32.1372 106.987 32.3888C106.187 32.8918 105.261 33.2691 104.209 33.5207C103.18 33.7494 102.219 33.8637 101.328 33.8637Z" fill="#5C6368"/>
<path d="M113.778 33.7951C113.092 33.7951 112.566 33.6122 112.201 33.2463C111.835 32.8575 111.652 32.3087 111.652 31.5999V18.6344C111.652 17.9255 111.835 17.3881 112.201 17.0222C112.566 16.6564 113.081 16.4734 113.744 16.4734C114.407 16.4734 114.922 16.6564 115.288 17.0222C115.654 17.3881 115.836 17.9255 115.836 18.6344V20.9668L115.459 20.1093C115.962 18.8973 116.74 17.9826 117.792 17.3652C118.866 16.725 120.078 16.4048 121.427 16.4048C122.777 16.4048 123.886 16.6564 124.755 17.1594C125.623 17.6625 126.275 18.4285 126.71 19.4576C127.144 20.4637 127.361 21.7442 127.361 23.2992V31.5999C127.361 32.3087 127.178 32.8575 126.813 33.2463C126.447 33.6122 125.921 33.7951 125.235 33.7951C124.549 33.7951 124.011 33.6122 123.623 33.2463C123.257 32.8575 123.074 32.3087 123.074 31.5999V23.505C123.074 22.2016 122.822 21.2526 122.319 20.6581C121.839 20.0635 121.084 19.7663 120.055 19.7663C118.798 19.7663 117.792 20.1664 117.037 20.9668C116.305 21.7442 115.939 22.7847 115.939 24.0881V31.5999C115.939 33.0633 115.219 33.7951 113.778 33.7951Z" fill="#5C6368"/>
<path d="M141.732 33.7951C141.114 33.7951 140.6 33.6579 140.188 33.3835C139.8 33.0862 139.479 32.6517 139.228 32.0801L130.276 11.9801C130.024 11.4084 129.955 10.9053 130.07 10.4709C130.184 10.0364 130.424 9.69341 130.79 9.44188C131.156 9.19034 131.59 9.06458 132.093 9.06458C132.757 9.06458 133.248 9.21322 133.568 9.51049C133.911 9.78489 134.197 10.2079 134.426 10.7796L142.555 29.6105H141.08L149.175 10.7453C149.427 10.1965 149.724 9.78489 150.067 9.51049C150.41 9.21322 150.89 9.06458 151.507 9.06458C152.01 9.06458 152.422 9.19034 152.742 9.44188C153.085 9.69341 153.302 10.0364 153.394 10.4709C153.485 10.9053 153.405 11.4084 153.154 11.9801L144.201 32.0801C143.95 32.6517 143.63 33.0862 143.241 33.3835C142.875 33.6579 142.372 33.7951 141.732 33.7951Z" fill="#5C6368"/>
<path d="M160.003 33.7608C159.317 33.7608 158.791 33.555 158.426 33.1434C158.06 32.7318 157.877 32.1601 157.877 31.4284V18.8402C157.877 18.0855 158.06 17.5139 158.426 17.1251C158.791 16.7135 159.317 16.5077 160.003 16.5077C160.689 16.5077 161.215 16.7135 161.581 17.1251C161.97 17.5139 162.164 18.0855 162.164 18.8402V31.4284C162.164 32.1601 161.981 32.7318 161.616 33.1434C161.25 33.555 160.712 33.7608 160.003 33.7608ZM160.003 13.3178C159.203 13.3178 158.574 13.1234 158.117 12.7347C157.682 12.3231 157.465 11.7629 157.465 11.054C157.465 10.3222 157.682 9.762 158.117 9.37327C158.574 8.98453 159.203 8.79016 160.003 8.79016C160.827 8.79016 161.455 8.98453 161.89 9.37327C162.324 9.762 162.542 10.3222 162.542 11.054C162.542 11.7629 162.324 12.3231 161.89 12.7347C161.455 13.1234 160.827 13.3178 160.003 13.3178Z" fill="#5C6368"/>
</g>
<defs>
<clipPath id="clip0_14405_4089">
<rect width="163" height="43" fill="white"/>
</clipPath>
</defs>
</svg>
