<svg width="130" height="25" viewBox="0 0 130 25" fill="none" xmlns="http://www.w3.org/2000/svg">
<g clip-path="url(#clip0_14405_4008)">
<rect width="130" height="25" fill="#5C6368"/>
<path d="M127.031 8.0158C128.671 8.0158 130 6.69674 130 5.06967C130 3.4426 128.671 2.12354 127.031 2.12354C125.391 2.12354 124.061 3.4426 124.061 5.06967C124.061 6.69674 125.391 8.0158 127.031 8.0158Z" fill="#5C6368"/>
<path d="M10.2493 19.6635L15.6744 1.58502H20.9573L12.9381 24.4343H9.45844L10.2493 19.6635ZM5.25118 1.58502L10.6605 19.6635L11.483 24.4343H7.97167L0 1.58502H5.25118Z" fill="#5C6368"/>
<path d="M31.3328 20.6051V13.041C31.3328 12.497 31.2431 12.0314 31.0639 11.6443C30.8846 11.2468 30.6052 10.9381 30.2256 10.7184C29.8565 10.4987 29.3768 10.3889 28.7863 10.3889C28.2801 10.3889 27.8425 10.4778 27.4735 10.6557C27.1044 10.8231 26.8197 11.0689 26.6194 11.3932C26.419 11.7071 26.3189 12.0785 26.3189 12.5075H21.7636C21.7636 11.7856 21.9323 11.1003 22.2698 10.4516C22.6072 9.80299 23.0975 9.2328 23.7407 8.74108C24.3839 8.2389 25.1484 7.84657 26.0342 7.5641C26.9304 7.28162 27.9322 7.14038 29.0393 7.14038C30.3679 7.14038 31.5489 7.36008 32.5823 7.79949C33.6157 8.2389 34.4276 8.89801 35.0181 9.77683C35.6191 10.6557 35.9197 11.7542 35.9197 13.0724V20.3383C35.9197 21.2695 35.9777 22.0332 36.0936 22.6295C36.2096 23.2154 36.3783 23.7281 36.5998 24.1675V24.4343H31.9971C31.7757 23.9739 31.6069 23.3985 31.4909 22.708C31.3855 22.007 31.3328 21.3061 31.3328 20.6051ZM31.9338 14.0925L31.9654 16.6504H29.419C28.8179 16.6504 28.296 16.7185 27.8531 16.8545C27.4102 16.9905 27.0464 17.184 26.7617 17.4351C26.477 17.6757 26.2661 17.9582 26.1291 18.2825C26.0025 18.6069 25.9393 18.9626 25.9393 19.3497C25.9393 19.7368 26.0289 20.0872 26.2081 20.4011C26.3874 20.7045 26.6457 20.9451 26.9832 21.123C27.3206 21.2904 27.716 21.3741 28.1694 21.3741C28.8548 21.3741 29.4506 21.2381 29.9567 20.9661C30.4629 20.6941 30.853 20.3593 31.1272 19.9617C31.4119 19.5641 31.5595 19.1875 31.57 18.8318L32.7721 20.7464C32.6034 21.1753 32.3714 21.6199 32.0762 22.0803C31.7915 22.5406 31.4277 22.9748 30.9848 23.3828C30.5419 23.7804 30.0094 24.1099 29.3873 24.3715C28.7652 24.6226 28.0271 24.7481 27.173 24.7481C26.0869 24.7481 25.101 24.5336 24.2152 24.1047C23.34 23.6653 22.6441 23.0637 22.1274 22.3C21.6213 21.5258 21.3682 20.647 21.3682 19.6635C21.3682 18.7743 21.5369 17.9844 21.8743 17.2939C22.2118 16.6034 22.7074 16.0227 23.3611 15.5519C24.0254 15.0707 24.8532 14.7097 25.8444 14.4691C26.8355 14.218 27.9849 14.0925 29.2924 14.0925H31.9338Z" fill="#5C6368"/>
<path d="M43.8911 11.0794V24.4343H39.3359V7.45424H43.6064L43.8911 11.0794ZM43.2268 15.3479H41.9931C41.9931 14.0925 42.1565 12.9626 42.4834 11.9582C42.8103 10.9434 43.269 10.0802 43.8595 9.36881C44.45 8.64692 45.1512 8.09766 45.9631 7.72103C46.7856 7.33393 47.703 7.14038 48.7152 7.14038C49.5166 7.14038 50.2495 7.25546 50.9138 7.48563C51.5781 7.7158 52.1475 8.08197 52.622 8.58415C53.107 9.08633 53.4761 9.75068 53.7292 10.5772C53.9928 11.4037 54.1246 12.4133 54.1246 13.606V24.4343H49.5377V13.5903C49.5377 12.837 49.4323 12.2511 49.2214 11.8326C49.0105 11.4142 48.6994 11.1212 48.2882 10.9538C47.8875 10.776 47.3919 10.687 46.8014 10.687C46.1898 10.687 45.6573 10.8074 45.2039 11.048C44.761 11.2886 44.392 11.6234 44.0967 12.0524C43.812 12.4708 43.5959 12.9626 43.4483 13.5275C43.3006 14.0925 43.2268 14.6993 43.2268 15.3479Z" fill="#5C6368"/>
<path d="M63.394 24.4343H58.8072V5.94771C58.8072 4.66087 59.0602 3.57804 59.5664 2.69922C60.0831 1.80995 60.8054 1.14037 61.7333 0.690499C62.6717 0.230166 63.7842 0 65.0706 0C65.4924 0 65.8984 0.0313858 66.2885 0.0941585C66.6787 0.146469 67.0583 0.214473 67.4273 0.29817L67.3799 3.70359C67.1795 3.65128 66.9686 3.61466 66.7472 3.59373C66.5258 3.57281 66.2674 3.56235 65.9722 3.56235C65.4239 3.56235 64.9546 3.65651 64.5645 3.84482C64.1849 4.02268 63.8949 4.28946 63.6946 4.64518C63.4942 5.00089 63.394 5.43507 63.394 5.94771V24.4343ZM66.8105 7.45425V10.6557H56.2607V7.45425H66.8105Z" fill="#5C6368"/>
<path d="M78.4353 20.6051V13.041C78.4353 12.497 78.3457 12.0314 78.1664 11.6443C77.9872 11.2468 77.7077 10.9381 77.3281 10.7184C76.9591 10.4987 76.4793 10.3889 75.8888 10.3889C75.3827 10.3889 74.9451 10.4778 74.576 10.6557C74.207 10.8231 73.9222 11.0689 73.7219 11.3932C73.5216 11.7071 73.4214 12.0785 73.4214 12.5075H68.8662C68.8662 11.7856 69.0349 11.1003 69.3723 10.4516C69.7097 9.80299 70.2 9.2328 70.8432 8.74108C71.4865 8.2389 72.2509 7.84657 73.1367 7.5641C74.033 7.28162 75.0347 7.14038 76.1419 7.14038C77.4705 7.14038 78.6515 7.36008 79.6848 7.79949C80.7182 8.2389 81.5301 8.89801 82.1206 9.77683C82.7217 10.6557 83.0222 11.7542 83.0222 13.0724V20.3383C83.0222 21.2695 83.0802 22.0332 83.1962 22.6295C83.3122 23.2154 83.4809 23.7281 83.7023 24.1675V24.4343H79.0996C78.8782 23.9739 78.7095 23.3985 78.5935 22.708C78.488 22.007 78.4353 21.3061 78.4353 20.6051ZM79.0364 14.0925L79.068 16.6504H76.5215C75.9204 16.6504 75.3985 16.7185 74.9556 16.8545C74.5127 16.9905 74.149 17.184 73.8643 17.4351C73.5796 17.6757 73.3687 17.9582 73.2316 18.2825C73.1051 18.6069 73.0418 18.9626 73.0418 19.3497C73.0418 19.7368 73.1314 20.0872 73.3107 20.4011C73.4899 20.7045 73.7483 20.9451 74.0857 21.123C74.4231 21.2904 74.8185 21.3741 75.2719 21.3741C75.9573 21.3741 76.5531 21.2381 77.0592 20.9661C77.5654 20.6941 77.9555 20.3593 78.2297 19.9617C78.5144 19.5641 78.662 19.1875 78.6726 18.8318L79.8746 20.7464C79.7059 21.1753 79.474 21.6199 79.1787 22.0803C78.894 22.5406 78.5302 22.9748 78.0873 23.3828C77.6445 23.7804 77.112 24.1099 76.4898 24.3715C75.8677 24.6226 75.1296 24.7481 74.2755 24.7481C73.1894 24.7481 72.2035 24.5336 71.3177 24.1047C70.4425 23.6653 69.7466 23.0637 69.2299 22.3C68.7238 21.5258 68.4707 20.647 68.4707 19.6635C68.4707 18.7743 68.6394 17.9844 68.9769 17.2939C69.3143 16.6034 69.8099 16.0227 70.4637 15.5519C71.128 15.0707 71.9557 14.7097 72.9469 14.4691C73.9381 14.218 75.0874 14.0925 76.3949 14.0925H79.0364Z" fill="#5C6368"/>
<path d="M86.5342 0.329529H91.0895V20.5424L90.6308 24.4343H86.5342V0.329529ZM101.923 15.7716V16.1012C101.923 17.3671 101.786 18.5284 101.512 19.5851C101.249 20.6417 100.837 21.5572 100.279 22.3314C99.7202 23.0951 99.0242 23.6914 98.1912 24.1204C97.3687 24.5389 96.3986 24.7481 95.2809 24.7481C94.237 24.7481 93.3302 24.5389 92.5604 24.1204C91.8012 23.7019 91.1633 23.1108 90.6466 22.3471C90.1299 21.5833 89.7134 20.6888 89.3971 19.6635C89.0807 18.6382 88.8435 17.5188 88.6853 16.3052V15.5833C88.8435 14.3697 89.0807 13.2503 89.3971 12.225C89.7134 11.1997 90.1299 10.3052 90.6466 9.54141C91.1633 8.77768 91.8012 8.18657 92.5604 7.76809C93.3196 7.3496 94.2159 7.14036 95.2493 7.14036C96.3775 7.14036 97.3582 7.35483 98.1912 7.78378C99.0348 8.20226 99.7307 8.7986 100.279 9.5728C100.837 10.3366 101.249 11.2468 101.512 12.3034C101.786 13.3497 101.923 14.5057 101.923 15.7716ZM97.3687 16.1012V15.7716C97.3687 15.0811 97.316 14.4325 97.2106 13.8257C97.1157 13.2084 96.9469 12.6696 96.7044 12.2093C96.4619 11.7385 96.1297 11.3671 95.708 11.0951C95.2967 10.8231 94.7642 10.687 94.1105 10.687C93.4883 10.687 92.9611 10.7917 92.5288 11.0009C92.0965 11.2102 91.7379 11.5031 91.4532 11.8797C91.1791 12.2564 90.9735 12.7062 90.8364 13.2293C90.6993 13.742 90.6149 14.3069 90.5833 14.9242V16.98C90.6149 17.8065 90.752 18.5389 90.9946 19.177C91.2476 19.8048 91.6272 20.3017 92.1334 20.6679C92.65 21.0236 93.3196 21.2015 94.1421 21.2015C94.7853 21.2015 95.3178 21.0759 95.7396 20.8248C96.1614 20.5737 96.4882 20.218 96.7202 19.7577C96.9627 19.2974 97.1315 18.7586 97.2264 18.1413C97.3213 17.5136 97.3687 16.8335 97.3687 16.1012Z" fill="#5C6368"/>
<path d="M113.992 20.6051V13.041C113.992 12.497 113.902 12.0314 113.723 11.6443C113.544 11.2468 113.264 10.9381 112.884 10.7184C112.515 10.4987 112.036 10.3889 111.445 10.3889C110.939 10.3889 110.501 10.4778 110.132 10.6557C109.763 10.8231 109.479 11.0689 109.278 11.3932C109.078 11.7071 108.978 12.0785 108.978 12.5075H104.423C104.423 11.7856 104.591 11.1003 104.929 10.4516C105.266 9.80299 105.756 9.2328 106.4 8.74108C107.043 8.2389 107.807 7.84657 108.693 7.5641C109.589 7.28162 110.591 7.14038 111.698 7.14038C113.027 7.14038 114.208 7.36008 115.241 7.79949C116.275 8.2389 117.087 8.89801 117.677 9.77683C118.278 10.6557 118.579 11.7542 118.579 13.0724V20.3383C118.579 21.2695 118.637 22.0332 118.753 22.6295C118.869 23.2154 119.037 23.7281 119.259 24.1675V24.4343H114.656C114.435 23.9739 114.266 23.3985 114.15 22.708C114.044 22.007 113.992 21.3061 113.992 20.6051ZM114.593 14.0925L114.624 16.6504H112.078C111.477 16.6504 110.955 16.7185 110.512 16.8545C110.069 16.9905 109.705 17.184 109.421 17.4351C109.136 17.6757 108.925 17.9582 108.788 18.2825C108.661 18.6069 108.598 18.9626 108.598 19.3497C108.598 19.7368 108.688 20.0872 108.867 20.4011C109.046 20.7045 109.305 20.9451 109.642 21.123C109.979 21.2904 110.375 21.3741 110.828 21.3741C111.514 21.3741 112.109 21.2381 112.616 20.9661C113.122 20.6941 113.512 20.3593 113.786 19.9617C114.071 19.5641 114.218 19.1875 114.229 18.8318L115.431 20.7464C115.262 21.1753 115.03 21.6199 114.735 22.0803C114.45 22.5406 114.087 22.9748 113.644 23.3828C113.201 23.7804 112.668 24.1099 112.046 24.3715C111.424 24.6226 110.686 24.7481 109.832 24.7481C108.746 24.7481 107.76 24.5336 106.874 24.1047C105.999 23.6653 105.303 23.0637 104.786 22.3C104.28 21.5258 104.027 20.647 104.027 19.6635C104.027 18.7743 104.196 17.9844 104.533 17.2939C104.871 16.6034 105.366 16.0227 106.02 15.5519C106.684 15.0707 107.512 14.7097 108.503 14.4691C109.494 14.218 110.644 14.0925 111.951 14.0925H114.593Z" fill="#5C6368"/>
</g>
<defs>
<clipPath id="clip0_14405_4008">
<rect width="130" height="25" fill="white"/>
</clipPath>
</defs>
</svg>
