<svg width="147" height="38" viewBox="0 0 147 38" fill="none" xmlns="http://www.w3.org/2000/svg">
<g clip-path="url(#clip0_14405_3957)">
<rect width="147" height="38" fill="#5C6368"/>
<mask id="mask0_14405_3957" style="mask-type:luminance" maskUnits="userSpaceOnUse" x="0" y="0" width="147" height="38">
<path d="M147 0H0V38H147V0Z" fill="white"/>
</mask>
<g mask="url(#mask0_14405_3957)">
<path d="M36.2972 4.55797C36.302 2.86384 35.661 1.23239 34.5063 0L30.1553 4.55797C29.0862 5.69472 28.4633 7.1835 28.4023 8.74774H34.7838C35.7565 7.57059 36.2916 6.08916 36.2972 4.55797Z" fill="#5C6368"/>
<path d="M43.1953 31.5758L58.2661 15.7943V15.7816L53.9277 11.2363L43.1953 22.4852V31.5631V31.5758Z" fill="#5C6368"/>
<path d="M30.1527 13.6488L34.5037 9.10354C34.6046 8.98927 34.6802 8.86231 34.7811 8.74805H28.3997C28.3928 8.86644 28.3928 8.98514 28.3997 9.10354C28.3839 10.7888 29.0114 12.4158 30.1527 13.6488Z" fill="#5C6368"/>
<path d="M43.1933 31.5622V22.4844L39.3594 26.4837L43.1933 31.5622Z" fill="#5C6368"/>
<path d="M38.8423 27.0312L34.5039 31.5765L38.8423 36.1218L43.1933 31.5765V31.5638L38.8423 27.0312Z" fill="#5C6368"/>
<path d="M30.1651 36.121L34.5034 31.5249L28.1094 24.834V33.9245L30.1651 36.0829C30.7247 36.6764 31.3985 37.1491 32.1455 37.4721C32.8924 37.7951 33.6968 37.9616 34.5097 37.9616C35.3226 37.9616 36.1271 37.7951 36.874 37.4721C37.6209 37.1491 38.2947 36.6764 38.8544 36.0829C38.2958 36.6761 37.6231 37.1485 36.8772 37.4714C36.1313 37.7942 35.3279 37.9607 34.516 37.9607C33.7041 37.9607 32.9007 37.7942 32.1549 37.4714C31.409 37.1485 30.7362 36.6761 30.1777 36.0829L30.1651 36.121Z" fill="#5C6368"/>
<path d="M30.168 36.1215C30.7265 36.7146 31.3993 37.1871 32.1452 37.5099C32.891 37.8328 33.6944 37.9993 34.5063 37.9993C35.3182 37.9993 36.1216 37.8328 36.8675 37.5099C37.6134 37.1871 38.2861 36.7146 38.8447 36.1215L34.5063 31.5254L30.168 36.1215Z" fill="#5C6368"/>
<path d="M20.847 26.3696L19.4219 24.8714L23.7729 20.3389V20.3262L19.4219 24.8714L25.8285 31.5751V22.4845L24.4791 21.0753L20.847 26.3696Z" fill="#5C6368"/>
<path d="M25.8281 22.4844V31.5749L28.1108 33.9745V24.8713L25.8281 22.4844Z" fill="#5C6368"/>
<path d="M0 36.121C0.559671 36.7145 1.23349 37.1872 1.98041 37.5102C2.72734 37.8332 3.53175 37.9997 4.34467 37.9997C5.15759 37.9997 5.96201 37.8332 6.70893 37.5102C7.45586 37.1872 8.12967 36.7145 8.68934 36.121L10.745 33.9753V24.8848L0 36.121Z" fill="#5C6368"/>
<path d="M15.0814 20.3262L10.7305 24.8841V33.9747L19.4198 24.8714L15.0814 20.3262Z" fill="#5C6368"/>
<path d="M19.4204 15.7812L15.082 20.3265L19.4204 24.8718L23.7714 20.3265L19.4204 15.7812Z" fill="#5C6368"/>
<path d="M19.4219 24.8724L20.847 26.3706L24.4791 21.0762L23.7729 20.3398L19.4219 24.8724Z" fill="#5C6368"/>
<path d="M43.1946 31.5629L39.3608 26.4844L38.8438 27.0303L43.1946 31.5629Z" fill="#5C6368"/>
<path d="M143.316 9.1025C142.745 9.06811 142.174 9.1645 141.645 9.38441C141.117 9.60432 140.645 9.94202 140.264 10.3721V9.16599H138.297V18.4089H140.365V13.7493C140.365 11.9084 141.361 10.9689 142.887 10.9689C144.413 10.9689 144.981 11.7687 144.981 13.4066V18.4216H146.948V13.1018C146.948 10.3594 145.41 9.1025 143.316 9.1025Z" fill="#5C6368"/>
<path d="M123.896 7.70686C124.073 7.7219 124.251 7.69132 124.413 7.61799C124.574 7.5553 124.72 7.46024 124.842 7.33867C124.969 7.21282 125.068 7.06138 125.132 6.8943C125.199 6.725 125.229 6.54313 125.22 6.36106C125.221 6.18885 125.186 6.0184 125.119 5.86008C125.052 5.70175 124.953 5.55885 124.829 5.44009C124.705 5.32132 124.559 5.22916 124.398 5.16922C124.238 5.10929 124.067 5.08282 123.896 5.09143C123.562 5.09143 123.241 5.2252 123.004 5.4633C122.768 5.7014 122.635 6.02433 122.635 6.36106C122.625 6.53409 122.65 6.70741 122.708 6.87035C122.767 7.03329 122.858 7.1824 122.977 7.30849C123.095 7.43457 123.237 7.53497 123.395 7.60348C123.554 7.672 123.724 7.70718 123.896 7.70686Z" fill="#5C6368"/>
<path d="M81.3698 13.4195V18.498H83.4381V13.1402C83.4381 10.3851 81.8617 9.11547 79.7429 9.11547C79.1741 9.08303 78.6052 9.18037 78.079 9.40021C77.5527 9.62006 77.0825 9.95673 76.7036 10.3851V9.19165H74.7109V18.4346H76.7792V13.7496C76.7792 11.896 77.7755 10.9691 79.3015 10.9691C80.8275 10.9691 81.3698 11.7817 81.3698 13.4195Z" fill="#5C6368"/>
<path d="M124.932 9.20508H122.863V18.448H124.932V9.20508Z" fill="#5C6368"/>
<path d="M131.602 9.10352C130.395 9.16642 129.258 9.69347 128.425 10.5759C127.593 11.4583 127.129 12.6287 127.129 13.8456C127.129 15.0624 127.593 16.2329 128.425 17.1153C129.258 17.9977 130.395 18.5247 131.602 18.5876C132.849 18.5876 134.046 18.0887 134.928 17.2006C135.81 16.3125 136.306 15.1079 136.306 13.8519C136.306 12.5959 135.81 11.3914 134.928 10.5033C134.046 9.61514 132.849 9.11621 131.602 9.11621V9.10352ZM131.602 16.7213C131.025 16.7698 130.448 16.6422 129.944 16.355C129.441 16.0679 129.036 15.6345 128.781 15.1117C128.526 14.5889 128.434 14.0008 128.516 13.4243C128.598 12.8479 128.852 12.3099 129.243 11.8805C129.633 11.4512 130.144 11.1506 130.707 11.018C131.27 10.8853 131.86 10.9268 132.4 11.1369C132.939 11.3471 133.403 11.7163 133.731 12.1961C134.059 12.6759 134.236 13.2442 134.238 13.8265C134.273 14.1951 134.231 14.5671 134.114 14.9183C133.998 15.2695 133.809 15.5921 133.56 15.8651C133.312 16.138 133.009 16.3553 132.672 16.5029C132.334 16.6504 131.97 16.7248 131.602 16.7213Z" fill="#5C6368"/>
<path d="M71.998 9.20508H69.9297V18.448H71.998V9.20508Z" fill="#5C6368"/>
<path d="M109.177 9.11677C107.824 9.05908 106.492 9.46159 105.394 10.2594L106.201 11.8338C106.963 11.2312 107.906 10.9087 108.875 10.9196C110.35 10.9196 111.082 11.6687 111.082 12.9257V13.0653H108.799C106.125 13.0653 105.129 14.3349 105.129 15.8204C105.129 17.3059 106.39 18.5882 108.421 18.5882C108.953 18.6386 109.489 18.548 109.976 18.3252C110.462 18.1025 110.883 17.7555 111.195 17.3186V18.4485H113.15V13.0399C113.2 10.3864 111.725 9.11677 109.177 9.11677ZM111.132 15.5665C110.963 16.0165 110.655 16.4001 110.253 16.6606C109.851 16.9212 109.377 17.045 108.9 17.0139C107.84 17.0139 107.222 16.506 107.222 15.7442C107.222 14.9825 107.601 14.4746 109.001 14.4746H111.132V15.5665Z" fill="#5C6368"/>
<path d="M101.017 18.448L104.801 9.20508H102.821L99.9831 16.0611L97.2464 9.20508H95.0898L98.8859 18.448H101.017Z" fill="#5C6368"/>
<path d="M70.9783 7.70686C71.1512 7.722 71.3251 7.69136 71.4827 7.61799C71.6455 7.56014 71.7924 7.46444 71.9115 7.33867C72.0383 7.21282 72.1371 7.06138 72.2016 6.8943C72.2654 6.72371 72.2995 6.54332 72.3025 6.36106C72.3025 6.02433 72.1696 5.7014 71.9331 5.4633C71.6966 5.2252 71.3758 5.09143 71.0413 5.09143C70.8705 5.08282 70.6997 5.10929 70.5393 5.16922C70.3789 5.22916 70.2324 5.32132 70.1085 5.44009C69.9846 5.55885 69.8861 5.70175 69.8188 5.86008C69.7515 6.0184 69.7169 6.18885 69.7171 6.36106C69.7068 6.53409 69.7318 6.70741 69.7905 6.87035C69.8492 7.03329 69.9405 7.1824 70.0586 7.30849C70.1768 7.43457 70.3193 7.53497 70.4775 7.60348C70.6357 7.672 70.8061 7.70718 70.9783 7.70686Z" fill="#5C6368"/>
<path d="M116.126 15.4508C116.073 15.8714 116.117 16.2985 116.252 16.6999C116.388 17.1012 116.612 17.4661 116.909 17.7671C117.206 18.0681 117.566 18.2971 117.964 18.437C118.361 18.5768 118.785 18.6237 119.203 18.5741C119.917 18.5926 120.618 18.3739 121.196 17.952L120.616 16.4031C120.286 16.6638 119.875 16.7987 119.456 16.7839C118.661 16.7839 118.194 16.3015 118.194 15.4001V11.0071H120.565V9.28044H118.194V7.16016H116.126V9.28044H114.676V11.0071H116.126V15.4508Z" fill="#5C6368"/>
<path d="M90.0847 18.5866C91.0151 18.5892 91.9253 18.3139 92.7003 17.7956C93.4752 17.2773 94.0801 16.5393 94.4385 15.6749C94.7968 14.8106 94.8925 13.8586 94.7135 12.9395C94.5344 12.0204 94.0886 11.1754 93.4325 10.5113C92.7764 9.84721 91.9394 9.39392 91.0274 9.20873C90.1154 9.02354 89.1693 9.11476 88.3088 9.47087C87.4483 9.82698 86.712 10.432 86.193 11.2094C85.674 11.9868 85.3957 12.9016 85.3932 13.8382C85.3722 14.4648 85.4791 15.089 85.7073 15.6723C85.9355 16.2555 86.2801 16.7855 86.7198 17.2294C87.1595 17.6732 87.685 18.0216 88.2638 18.2529C88.8425 18.4841 89.4623 18.5934 90.0847 18.574V18.5866ZM90.0847 10.9689C90.8008 11.0365 91.4662 11.3707 91.9504 11.9061C92.4347 12.4415 92.7031 13.1395 92.7031 13.8636C92.7031 14.5877 92.4347 15.2858 91.9504 15.8212C91.4662 16.3566 90.8008 16.6908 90.0847 16.7584C89.3805 16.6768 88.7307 16.3375 88.259 15.8048C87.7873 15.2722 87.5267 14.5836 87.5267 13.87C87.5267 13.1564 87.7873 12.4677 88.259 11.9351C88.7307 11.4025 89.3805 11.0631 90.0847 10.9816V10.9689Z" fill="#5C6368"/>
<path d="M118.247 24.0724C116.957 24.0571 115.704 24.5076 114.716 25.342L115.245 26.2561C116.044 25.5532 117.073 25.1733 118.133 25.1896C118.465 25.1323 118.806 25.1535 119.128 25.2515C119.45 25.3496 119.746 25.5219 119.99 25.7547C120.235 25.9875 120.423 26.2745 120.538 26.5929C120.654 26.9113 120.694 27.2524 120.656 27.5892V28.1479H117.894C115.371 28.1479 114.539 29.3159 114.539 30.6871C114.539 32.0583 115.8 33.3279 117.705 33.3279C118.293 33.3757 118.883 33.2616 119.412 32.9977C119.94 32.7338 120.388 32.3301 120.706 31.8298V33.2518H121.728V27.6019C121.784 27.127 121.733 26.6455 121.578 26.1933C121.423 25.7411 121.169 25.3299 120.834 24.9905C120.5 24.6511 120.093 24.3923 119.645 24.2333C119.197 24.0743 118.719 24.0193 118.247 24.0724ZM120.593 30.5094C120.391 31.0756 120.013 31.5615 119.516 31.8953C119.018 32.229 118.428 32.393 117.831 32.363C116.443 32.363 115.624 31.7028 115.624 30.649C115.624 29.5952 116.179 29.0112 117.869 29.0112H120.593V30.5094Z" fill="#5C6368"/>
<path d="M109.845 25.9262V24.1487H108.723V33.252H109.896V28.6051C109.896 26.4594 111.005 25.2533 112.821 25.2533H113.111V24.0598C112.442 23.991 111.768 24.1337 111.182 24.4682C110.597 24.8026 110.13 25.3122 109.845 25.9262Z" fill="#5C6368"/>
<path d="M93.7531 32.2742C92.782 32.2742 92.2523 31.6902 92.2523 30.611V25.177H94.8881V24.1486H92.2523V22.1426H91.0795V24.1359H89.5156V25.177H91.0795V30.6745C91.035 31.0237 91.0687 31.3786 91.178 31.713C91.2873 32.0474 91.4696 32.353 91.7114 32.6074C91.9532 32.8618 92.2484 33.0585 92.5755 33.1832C92.9026 33.3079 93.2532 33.3574 93.6018 33.328C94.2722 33.3519 94.9279 33.1258 95.4431 32.6932L95.0269 31.8045C94.6746 32.1142 94.2208 32.2815 93.7531 32.2742Z" fill="#5C6368"/>
<path d="M74.3563 24.0728C73.6992 24.0335 73.0439 24.176 72.4614 24.4848C71.879 24.7937 71.3916 25.2571 71.0521 25.8249V24.149H69.9297V33.2522H71.1026V28.4657C71.0505 28.0409 71.0914 27.6097 71.2224 27.2025C71.3535 26.7953 71.5715 26.4219 71.8611 26.1086C72.1508 25.7952 72.505 25.5494 72.8991 25.3886C73.2931 25.2277 73.7173 25.1556 74.1419 25.1774C75.794 25.1774 76.7525 26.1677 76.7525 28.0848V33.2395H77.9254V27.9579C77.9254 25.3551 76.4751 24.0728 74.3563 24.0728Z" fill="#5C6368"/>
<path d="M104.247 28.9847C104.304 29.4036 104.27 29.83 104.146 30.2341C104.023 30.6383 103.814 31.0105 103.533 31.3247C103.252 31.639 102.906 31.8878 102.52 32.0538C102.133 32.2198 101.716 32.2989 101.296 32.2858C99.644 32.2858 98.6855 31.2955 98.6855 29.3656V24.2109H97.5V29.4799C97.5 32.0953 98.9629 33.3904 101.17 33.3904C101.8 33.4192 102.426 33.2719 102.978 32.9649C103.53 32.6579 103.986 32.2032 104.298 31.651V33.3142H105.42V24.2109H104.247V28.9847Z" fill="#5C6368"/>
<path d="M126.126 20.4023H124.953V33.251H126.126V20.4023Z" fill="#5C6368"/>
<path d="M84.1702 24.0714C82.8802 24.0562 81.6275 24.5066 80.6389 25.341L81.1686 26.2551C81.9671 25.5523 82.9961 25.1723 84.0567 25.1887C84.3843 25.1396 84.7187 25.1672 85.034 25.2692C85.3493 25.3713 85.637 25.5451 85.8749 25.7771C86.1127 26.0092 86.2942 26.2933 86.4054 26.6074C86.5166 26.9214 86.5544 27.2571 86.5159 27.5883V28.1469H83.7414C81.2191 28.1469 80.3867 29.3149 80.3867 30.6861C80.3867 32.0573 81.6479 33.327 83.5648 33.327C84.1513 33.3752 84.7398 33.2611 85.2666 32.9971C85.7934 32.733 86.2385 32.3291 86.5538 31.8288V33.2508H87.6762V27.601C87.7382 27.1227 87.6902 26.6364 87.5359 26.1798C87.3816 25.7231 87.1252 25.3082 86.7864 24.9672C86.4476 24.6261 86.0355 24.3679 85.5819 24.2126C85.1283 24.0573 84.6453 24.009 84.1702 24.0714ZM86.5159 30.5084C86.3138 31.0747 85.9363 31.5605 85.439 31.8943C84.9417 32.2281 84.3509 32.3921 83.754 32.3621C82.3667 32.3621 81.547 31.7019 81.547 30.6481C81.547 29.5943 82.1019 29.0102 83.7792 29.0102H86.5159V30.5084Z" fill="#5C6368"/>
</g>
</g>
<defs>
<clipPath id="clip0_14405_3957">
<rect width="147" height="38" fill="white"/>
</clipPath>
</defs>
</svg>
